{"glyphs":{"0":{"ha":788,"x_min":88,"x_max":701,"o":"m 394 -13 q 168 95 247 -13 q 88 400 88 202 l 88 605 q 168 915 88 807 q 395 1023 247 1023 q 621 915 542 1023 q 701 605 701 807 l 701 400 q 621 95 701 202 q 394 -13 542 -13 m 394 122 q 506 187 473 122 q 538 409 538 251 l 538 596 q 506 823 538 758 q 394 888 473 888 q 283 823 314 888 q 251 596 251 758 l 251 409 q 283 187 251 251 q 394 122 314 122 m 394 403 q 339 417 360 403 q 318 470 318 431 l 318 539 q 339 592 318 577 q 394 606 360 606 q 449 592 428 606 q 470 539 470 577 l 470 470 q 448 417 470 431 q 394 403 427 403 z "},"1":{"ha":788,"x_min":102,"x_max":711,"o":"m 126 0 l 126 140 l 343 140 l 343 832 l 313 832 q 237 720 292 760 q 112 686 182 681 l 102 832 q 249 881 182 831 q 347 1010 316 931 l 521 1010 l 521 140 l 711 140 l 711 0 l 126 0 z "},"2":{"ha":788,"x_min":88,"x_max":701,"o":"m 88 0 l 88 212 q 131 395 88 331 q 287 511 173 458 l 402 562 q 489 620 466 592 q 513 708 513 648 l 513 750 q 485 855 513 822 q 394 888 458 888 q 307 848 331 888 q 275 693 283 809 l 98 706 q 175 949 107 876 q 393 1023 242 1023 q 616 956 543 1023 q 689 758 689 889 l 689 686 q 644 533 689 588 q 494 428 598 479 l 379 378 q 288 314 311 346 q 265 215 265 283 l 265 140 l 701 140 l 701 0 l 88 0 z "},"3":{"ha":788,"x_min":77,"x_max":701,"o":"m 393 -13 q 156 61 227 -13 q 77 282 85 134 l 255 294 q 292 160 264 194 q 393 125 321 125 q 494 158 465 125 q 523 269 523 191 l 523 319 q 492 431 523 398 q 390 465 461 465 l 282 465 l 282 604 l 390 604 q 478 627 453 604 q 503 715 503 650 l 503 768 q 477 859 503 832 q 390 885 451 885 q 307 853 332 885 q 275 739 283 821 l 98 751 q 176 958 106 894 q 384 1023 245 1023 q 603 963 527 1023 q 679 777 679 904 l 679 735 q 636 610 679 658 q 521 554 592 563 l 521 518 q 652 449 602 509 q 701 304 701 389 l 701 266 q 626 58 701 129 q 393 -13 551 -13 z "},"4":{"ha":788,"x_min":77,"x_max":753,"o":"m 236 394 l 449 394 l 449 792 l 236 394 m 753 259 l 626 259 l 626 0 l 449 0 l 449 259 l 77 259 l 77 394 l 402 1010 l 626 1010 l 626 394 l 753 394 l 753 259 z "},"5":{"ha":788,"x_min":77,"x_max":701,"o":"m 390 -13 q 153 54 222 -13 q 77 292 85 120 l 255 304 q 290 158 264 193 q 391 122 317 122 q 494 159 466 122 q 523 278 523 196 l 523 346 q 493 460 523 424 q 386 496 463 496 l 109 496 l 109 1010 l 665 1010 l 665 875 l 287 875 l 287 640 l 438 640 q 634 574 568 640 q 701 369 701 508 l 701 264 q 624 61 701 135 q 390 -13 547 -13 z "},"6":{"ha":788,"x_min":88,"x_max":701,"o":"m 394 -13 q 164 77 240 -13 q 88 340 88 167 l 88 672 q 165 934 88 846 q 396 1023 242 1023 q 604 966 537 1023 q 691 778 672 909 l 504 749 q 468 859 492 830 q 386 888 444 888 q 293 840 321 888 q 265 679 265 793 l 265 538 l 278 538 q 351 607 307 583 q 466 631 395 631 q 642 554 583 631 q 701 340 701 476 l 701 294 q 623 65 701 143 q 394 -13 545 -13 m 393 122 q 491 164 461 122 q 520 294 520 206 l 520 327 q 491 461 520 418 q 393 504 461 504 q 295 461 324 504 q 265 327 265 418 l 265 294 q 295 163 265 203 q 393 122 324 122 z "},"7":{"ha":788,"x_min":88,"x_max":701,"o":"m 253 0 q 364 506 314 345 q 523 862 413 668 l 88 862 l 88 1010 l 701 1010 l 701 862 q 534 458 587 636 q 443 0 481 280 l 253 0 z "},"8":{"ha":788,"x_min":88,"x_max":701,"o":"m 394 -13 q 163 54 237 -13 q 88 259 88 120 l 88 295 q 134 446 88 386 q 261 514 179 505 l 261 551 q 153 606 197 558 q 109 734 109 654 l 109 783 q 179 964 109 905 q 394 1023 249 1023 q 610 964 540 1023 q 679 783 679 905 l 679 734 q 636 606 679 654 q 528 551 592 558 l 528 514 q 655 445 609 505 q 701 295 701 385 l 701 259 q 626 54 701 120 q 394 -13 552 -13 m 394 598 q 478 625 453 598 q 503 718 503 652 l 503 768 q 478 859 503 833 q 394 885 453 885 q 311 859 336 885 q 287 768 287 833 l 287 718 q 311 625 287 652 q 394 598 336 598 m 394 125 q 495 159 467 125 q 523 274 523 193 l 523 311 q 495 428 523 394 q 394 462 467 462 q 293 428 321 462 q 265 311 265 394 l 265 274 q 293 159 265 193 q 394 125 321 125 z "},"9":{"ha":788,"x_min":88,"x_max":701,"o":"m 395 506 q 493 549 463 506 q 523 683 523 592 l 523 716 q 493 847 523 807 q 395 888 463 888 q 297 846 327 888 q 268 716 268 804 l 268 683 q 297 549 268 592 q 395 506 327 506 m 391 -13 q 184 45 253 -13 q 97 232 116 102 l 284 261 q 319 150 295 178 q 404 122 343 122 q 496 171 468 122 q 523 335 523 220 l 523 472 l 509 472 q 437 404 482 428 q 324 380 391 380 q 148 454 207 380 q 88 670 88 528 l 88 716 q 165 945 88 867 q 394 1023 242 1023 q 624 933 548 1023 q 701 670 701 843 l 701 338 q 624 76 701 165 q 391 -13 547 -13 z "},"\u0000":{"ha":0,"x_min":0,"x_max":0,"o":""},"\r":{"ha":0,"x_min":0,"x_max":0,"o":""}," ":{"ha":788,"x_min":0,"x_max":0,"o":""}," ":{"ha":788,"x_min":0,"x_max":0,"o":""},"A":{"ha":788,"x_min":45,"x_max":744,"o":"m 490 408 l 398 857 l 299 408 l 490 408 m 573 0 l 518 269 l 269 269 l 210 0 l 45 0 l 289 1010 l 500 1010 l 744 0 l 573 0 z "},"À":{"ha":788,"x_min":45,"x_max":744,"o":"m 490 408 l 398 857 l 299 408 l 490 408 m 573 0 l 518 269 l 269 269 l 210 0 l 45 0 l 289 1010 l 500 1010 l 744 0 l 573 0 m 380 1136 l 154 1389 l 384 1389 l 505 1136 l 380 1136 z "},"Á":{"ha":788,"x_min":45,"x_max":744,"o":"m 490 408 l 398 857 l 299 408 l 490 408 m 573 0 l 518 269 l 269 269 l 210 0 l 45 0 l 289 1010 l 500 1010 l 744 0 l 573 0 m 259 1136 l 381 1389 l 611 1389 l 384 1136 l 259 1136 z "},"Â":{"ha":788,"x_min":45,"x_max":744,"o":"m 490 408 l 398 857 l 299 408 l 490 408 m 573 0 l 518 269 l 269 269 l 210 0 l 45 0 l 289 1010 l 500 1010 l 744 0 l 573 0 m 193 1136 l 131 1222 l 326 1414 l 460 1414 l 657 1222 l 596 1138 l 393 1275 l 193 1136 z "},"Ã":{"ha":788,"x_min":45,"x_max":744,"o":"m 490 408 l 398 857 l 299 408 l 490 408 m 573 0 l 518 269 l 269 269 l 210 0 l 45 0 l 289 1010 l 500 1010 l 744 0 l 573 0 m 489 1149 q 417 1169 444 1149 q 370 1217 390 1189 q 339 1263 354 1242 q 304 1284 324 1284 q 271 1262 284 1284 q 260 1182 259 1240 l 260 1162 l 143 1162 l 143 1181 q 185 1346 143 1282 q 303 1410 227 1410 q 373 1391 346 1410 q 420 1342 400 1371 q 451 1295 437 1317 q 484 1274 466 1274 q 516 1297 504 1274 q 529 1378 529 1319 l 529 1398 l 646 1398 l 646 1379 q 605 1213 646 1277 q 489 1149 563 1149 z "},"Ä":{"ha":788,"x_min":45,"x_max":744,"o":"m 490 408 l 398 857 l 299 408 l 490 408 m 573 0 l 518 269 l 269 269 l 210 0 l 45 0 l 289 1010 l 500 1010 l 744 0 l 573 0 m 261 1140 q 195 1157 221 1140 q 169 1221 169 1174 l 169 1234 q 195 1299 169 1280 q 261 1317 221 1317 q 328 1299 303 1317 q 354 1234 354 1280 l 354 1221 q 328 1157 354 1174 q 261 1140 302 1140 m 527 1140 q 460 1157 485 1140 q 434 1221 434 1174 l 434 1234 q 460 1299 434 1280 q 527 1317 485 1317 q 593 1299 567 1317 q 619 1234 619 1280 l 619 1221 q 592 1157 619 1174 q 527 1140 566 1140 z "},"Å":{"ha":788,"x_min":45,"x_max":744,"o":"m 490 408 l 398 857 l 299 408 l 490 408 m 573 0 l 518 269 l 269 269 l 210 0 l 45 0 l 289 1010 l 500 1010 l 744 0 l 573 0 m 394 1114 q 246 1159 303 1114 q 189 1301 189 1205 l 189 1341 q 246 1485 189 1438 q 394 1532 303 1532 q 542 1485 486 1532 q 598 1341 598 1438 l 598 1301 q 542 1159 598 1205 q 394 1114 485 1114 m 394 1211 q 453 1232 433 1211 q 473 1301 473 1253 l 473 1341 q 453 1411 473 1388 q 394 1434 433 1434 q 335 1411 355 1434 q 314 1341 314 1388 l 314 1301 q 335 1232 314 1253 q 394 1211 355 1211 z "},"Ā":{"ha":788,"x_min":45,"x_max":744,"o":"m 490 408 l 398 857 l 299 408 l 490 408 m 573 0 l 518 269 l 269 269 l 210 0 l 45 0 l 289 1010 l 500 1010 l 744 0 l 573 0 m 165 1193 l 165 1332 l 622 1332 l 622 1193 l 165 1193 z "},"Ă":{"ha":788,"x_min":45,"x_max":744,"o":"m 490 408 l 398 857 l 299 408 l 490 408 m 573 0 l 518 269 l 269 269 l 210 0 l 45 0 l 289 1010 l 500 1010 l 744 0 l 573 0 m 394 1128 q 194 1195 263 1128 q 124 1405 125 1263 l 273 1405 q 302 1280 274 1316 q 394 1245 330 1245 q 486 1280 458 1245 q 515 1405 514 1316 l 664 1405 q 594 1195 663 1263 q 394 1128 525 1128 z "},"Ą":{"ha":788,"x_min":45,"x_max":797,"o":"m 490 408 l 398 857 l 299 408 l 490 408 m 573 0 l 518 269 l 269 269 l 210 0 l 45 0 l 289 1010 l 500 1010 l 744 0 l 573 0 m 670 -275 q 539 -235 587 -275 q 490 -121 490 -194 q 537 -3 490 -56 q 648 72 585 49 l 676 29 q 631 -23 643 5 q 620 -80 620 -52 q 640 -131 620 -114 q 698 -148 659 -148 q 743 -144 717 -148 q 797 -135 769 -140 l 797 -261 q 732 -271 765 -268 q 670 -275 698 -275 z "},"Ǻ":{"ha":788,"x_min":45,"x_max":744,"o":"m 490 408 l 398 857 l 299 408 l 490 408 m 573 0 l 518 269 l 269 269 l 210 0 l 45 0 l 289 1010 l 500 1010 l 744 0 l 573 0 m 394 1114 q 246 1159 303 1114 q 189 1301 189 1205 l 189 1341 q 246 1485 189 1438 q 394 1532 303 1532 q 542 1485 486 1532 q 598 1341 598 1438 l 598 1301 q 542 1159 598 1205 q 394 1114 485 1114 m 394 1211 q 453 1232 433 1211 q 473 1301 473 1253 l 473 1341 q 453 1411 473 1388 q 394 1434 433 1434 q 335 1411 355 1434 q 314 1341 314 1388 l 314 1301 q 335 1232 314 1253 q 394 1211 355 1211 m 330 1515 l 452 1768 l 682 1768 l 455 1515 l 330 1515 z "},"B":{"ha":788,"x_min":95,"x_max":701,"o":"m 95 0 l 95 1010 l 404 1010 q 607 951 539 1010 q 676 773 676 891 l 676 721 q 643 608 676 650 q 544 553 610 566 l 544 516 q 660 455 619 508 q 701 321 701 402 l 701 261 q 626 66 701 131 q 404 0 552 0 l 95 0 m 271 590 l 388 590 q 473 618 447 590 q 500 711 500 646 l 500 755 q 473 847 500 818 q 388 875 447 875 l 271 875 l 271 590 m 271 135 l 395 135 q 494 168 463 135 q 524 274 524 201 l 524 323 q 494 428 524 395 q 395 461 463 461 l 271 461 l 271 135 z "},"":{"ha":788,"x_min":95,"x_max":701,"o":"m 95 0 l 95 1010 l 404 1010 q 607 951 539 1010 q 676 773 676 891 l 676 721 q 643 608 676 650 q 544 553 610 566 l 544 516 q 660 455 619 508 q 701 321 701 402 l 701 261 q 626 66 701 131 q 404 0 552 0 l 95 0 m 271 590 l 388 590 q 473 618 447 590 q 500 711 500 646 l 500 755 q 473 847 500 818 q 388 875 447 875 l 271 875 l 271 590 m 271 135 l 395 135 q 494 168 463 135 q 524 274 524 201 l 524 323 q 494 428 524 395 q 395 461 463 461 l 271 461 l 271 135 z "},"C":{"ha":788,"x_min":88,"x_max":726,"o":"m 410 -13 q 169 74 249 -13 q 88 333 88 160 l 88 672 q 169 934 88 846 q 410 1023 250 1023 q 643 939 568 1023 q 726 672 717 855 l 549 659 q 512 836 542 790 q 409 883 482 883 q 297 833 330 883 q 265 663 265 784 l 265 341 q 297 177 265 227 q 409 128 330 128 q 511 172 482 128 q 549 346 540 217 l 726 333 q 643 70 718 153 q 410 -13 568 -13 z "},"Ç":{"ha":788,"x_min":88,"x_max":726,"o":"m 410 -13 q 169 74 249 -13 q 88 333 88 160 l 88 672 q 169 934 88 846 q 410 1023 250 1023 q 643 939 568 1023 q 726 672 717 855 l 549 659 q 512 836 542 790 q 409 883 482 883 q 297 833 330 883 q 265 663 265 784 l 265 341 q 297 177 265 227 q 409 128 330 128 q 511 172 482 128 q 549 346 540 217 l 726 333 q 643 70 718 153 q 410 -13 568 -13 m 376 0 l 396 53 q 530 2 482 42 q 578 -114 578 -38 q 519 -237 578 -197 q 374 -277 460 -277 q 224 -241 280 -277 q 163 -130 168 -206 l 313 -117 q 326 -151 314 -141 q 366 -160 338 -160 q 411 -146 396 -160 q 426 -88 426 -131 q 415 -29 426 -48 q 376 0 404 -10 z "},"Ć":{"ha":788,"x_min":88,"x_max":726,"o":"m 410 -13 q 169 74 249 -13 q 88 333 88 160 l 88 672 q 169 934 88 846 q 410 1023 250 1023 q 643 939 568 1023 q 726 672 717 855 l 549 659 q 512 836 542 790 q 409 883 482 883 q 297 833 330 883 q 265 663 265 784 l 265 341 q 297 177 265 227 q 409 128 330 128 q 511 172 482 128 q 549 346 540 217 l 726 333 q 643 70 718 153 q 410 -13 568 -13 m 301 1136 l 423 1389 l 653 1389 l 426 1136 l 301 1136 z "},"Ĉ":{"ha":788,"x_min":88,"x_max":726,"o":"m 410 -13 q 169 74 249 -13 q 88 333 88 160 l 88 672 q 169 934 88 846 q 410 1023 250 1023 q 643 939 568 1023 q 726 672 717 855 l 549 659 q 512 836 542 790 q 409 883 482 883 q 297 833 330 883 q 265 663 265 784 l 265 341 q 297 177 265 227 q 409 128 330 128 q 511 172 482 128 q 549 346 540 217 l 726 333 q 643 70 718 153 q 410 -13 568 -13 m 207 1136 l 145 1222 l 340 1414 l 473 1414 l 670 1222 l 610 1138 l 407 1275 l 207 1136 z "},"Ċ":{"ha":788,"x_min":88,"x_max":726,"o":"m 410 -13 q 169 74 249 -13 q 88 333 88 160 l 88 672 q 169 934 88 846 q 410 1023 250 1023 q 643 939 568 1023 q 726 672 717 855 l 549 659 q 512 836 542 790 q 409 883 482 883 q 297 833 330 883 q 265 663 265 784 l 265 341 q 297 177 265 227 q 409 128 330 128 q 511 172 482 128 q 549 346 540 217 l 726 333 q 643 70 718 153 q 410 -13 568 -13 m 408 1140 q 320 1157 354 1140 q 287 1221 287 1174 l 287 1234 q 320 1299 287 1280 q 408 1317 354 1317 q 496 1299 462 1317 q 529 1234 529 1280 l 529 1221 q 495 1157 529 1174 q 408 1140 461 1140 z "},"Č":{"ha":788,"x_min":88,"x_max":726,"o":"m 410 -13 q 169 74 249 -13 q 88 333 88 160 l 88 672 q 169 934 88 846 q 410 1023 250 1023 q 643 939 568 1023 q 726 672 717 855 l 549 659 q 512 836 542 790 q 409 883 482 883 q 297 833 330 883 q 265 663 265 784 l 265 341 q 297 177 265 227 q 409 128 330 128 q 511 172 482 128 q 549 346 540 217 l 726 333 q 643 70 718 153 q 410 -13 568 -13 m 342 1141 l 145 1333 l 206 1419 l 409 1282 l 609 1419 l 670 1333 l 476 1141 l 342 1141 z "},"D":{"ha":788,"x_min":95,"x_max":701,"o":"m 95 0 l 95 1010 l 385 1010 q 616 912 532 1010 q 701 652 701 814 l 701 354 q 616 96 701 192 q 384 0 530 0 l 95 0 m 271 140 l 370 140 q 486 193 449 140 q 523 362 523 245 l 523 643 q 486 816 523 763 q 370 870 449 870 l 271 870 l 271 140 z "},"Ď":{"ha":788,"x_min":95,"x_max":701,"o":"m 95 0 l 95 1010 l 385 1010 q 616 912 532 1010 q 701 652 701 814 l 701 354 q 616 96 701 192 q 384 0 530 0 l 95 0 m 271 140 l 370 140 q 486 193 449 140 q 523 362 523 245 l 523 643 q 486 816 523 763 q 370 870 449 870 l 271 870 l 271 140 m 328 1141 l 131 1333 l 192 1419 l 395 1282 l 595 1419 l 657 1333 l 462 1141 l 328 1141 z "},"E":{"ha":788,"x_min":95,"x_max":701,"o":"m 95 0 l 95 1010 l 701 1010 l 701 870 l 271 870 l 271 615 l 648 615 l 648 475 l 271 475 l 271 140 l 701 140 l 701 0 l 95 0 z "},"":{"ha":788,"x_min":95,"x_max":701,"o":"m 95 0 l 95 1010 l 701 1010 l 701 870 l 271 870 l 271 615 l 648 615 l 648 475 l 271 475 l 271 140 l 701 140 l 701 0 l 95 0 z "},"È":{"ha":788,"x_min":95,"x_max":701,"o":"m 95 0 l 95 1010 l 701 1010 l 701 870 l 271 870 l 271 615 l 648 615 l 648 475 l 271 475 l 271 140 l 701 140 l 701 0 l 95 0 m 405 1136 l 179 1389 l 409 1389 l 530 1136 l 405 1136 z "},"É":{"ha":788,"x_min":95,"x_max":701,"o":"m 95 0 l 95 1010 l 701 1010 l 701 870 l 271 870 l 271 615 l 648 615 l 648 475 l 271 475 l 271 140 l 701 140 l 701 0 l 95 0 m 290 1135 l 413 1388 l 643 1388 l 415 1135 l 290 1135 z "},"Ê":{"ha":788,"x_min":95,"x_max":701,"o":"m 95 0 l 95 1010 l 701 1010 l 701 870 l 271 870 l 271 615 l 648 615 l 648 475 l 271 475 l 271 140 l 701 140 l 701 0 l 95 0 m 207 1136 l 145 1222 l 340 1414 l 473 1414 l 670 1222 l 610 1138 l 407 1275 l 207 1136 z "},"Ë":{"ha":788,"x_min":95,"x_max":701,"o":"m 95 0 l 95 1010 l 701 1010 l 701 870 l 271 870 l 271 615 l 648 615 l 648 475 l 271 475 l 271 140 l 701 140 l 701 0 l 95 0 m 280 1140 q 214 1157 240 1140 q 188 1221 188 1174 l 188 1234 q 214 1299 188 1280 q 280 1317 240 1317 q 347 1299 322 1317 q 372 1234 372 1280 l 372 1221 q 347 1157 372 1174 q 280 1140 321 1140 m 545 1140 q 479 1157 504 1140 q 453 1221 453 1174 l 453 1234 q 479 1299 453 1280 q 545 1317 504 1317 q 612 1299 586 1317 q 638 1234 638 1280 l 638 1221 q 611 1157 638 1174 q 545 1140 585 1140 z "},"Ē":{"ha":788,"x_min":95,"x_max":701,"o":"m 95 0 l 95 1010 l 701 1010 l 701 870 l 271 870 l 271 615 l 648 615 l 648 475 l 271 475 l 271 140 l 701 140 l 701 0 l 95 0 m 179 1193 l 179 1332 l 636 1332 l 636 1193 l 179 1193 z "},"Ĕ":{"ha":788,"x_min":95,"x_max":701,"o":"m 95 0 l 95 1010 l 701 1010 l 701 870 l 271 870 l 271 615 l 648 615 l 648 475 l 271 475 l 271 140 l 701 140 l 701 0 l 95 0 m 408 1128 q 208 1195 277 1128 q 138 1405 139 1263 l 287 1405 q 316 1280 288 1316 q 408 1245 343 1245 q 500 1280 472 1245 q 529 1405 528 1316 l 678 1405 q 608 1195 677 1263 q 408 1128 539 1128 z "},"Ė":{"ha":788,"x_min":95,"x_max":701,"o":"m 95 0 l 95 1010 l 701 1010 l 701 870 l 271 870 l 271 615 l 648 615 l 648 475 l 271 475 l 271 140 l 701 140 l 701 0 l 95 0 m 408 1140 q 320 1157 354 1140 q 287 1221 287 1174 l 287 1234 q 320 1299 287 1280 q 408 1317 354 1317 q 496 1299 462 1317 q 529 1234 529 1280 l 529 1221 q 495 1157 529 1174 q 408 1140 461 1140 z "},"Ę":{"ha":788,"x_min":95,"x_max":701,"o":"m 574 -275 q 443 -235 491 -275 q 394 -121 394 -194 q 441 -3 394 -56 q 552 72 489 49 l 580 29 q 535 -23 547 5 q 524 -80 524 -52 q 544 -131 524 -114 q 602 -148 563 -148 q 647 -144 621 -148 q 701 -135 673 -140 l 701 -261 q 636 -271 669 -268 q 574 -275 602 -275 m 95 0 l 95 1010 l 701 1010 l 701 870 l 271 870 l 271 615 l 648 615 l 648 475 l 271 475 l 271 140 l 701 140 l 701 0 l 95 0 z "},"Ě":{"ha":788,"x_min":95,"x_max":701,"o":"m 95 0 l 95 1010 l 701 1010 l 701 870 l 271 870 l 271 615 l 648 615 l 648 475 l 271 475 l 271 140 l 701 140 l 701 0 l 95 0 m 346 1141 l 149 1333 l 210 1419 l 413 1282 l 612 1419 l 674 1333 l 480 1141 l 346 1141 z "},"F":{"ha":788,"x_min":130,"x_max":715,"o":"m 130 0 l 130 1010 l 715 1010 l 715 870 l 308 870 l 308 527 l 640 527 l 640 388 l 308 388 l 308 0 l 130 0 z "},"G":{"ha":788,"x_min":88,"x_max":710,"o":"m 403 -13 q 169 80 249 -13 q 88 333 88 172 l 88 674 q 168 932 88 841 q 398 1023 247 1023 q 619 944 545 1023 q 701 706 692 866 l 523 693 q 489 842 516 801 q 399 883 461 883 q 294 831 322 883 q 265 665 265 779 l 265 341 q 294 179 265 230 q 403 128 323 128 q 505 184 477 128 q 533 362 533 241 l 396 362 l 396 501 l 710 501 l 710 341 q 629 78 710 169 q 403 -13 549 -13 z "},"Ĝ":{"ha":788,"x_min":88,"x_max":710,"o":"m 403 -13 q 169 80 249 -13 q 88 333 88 172 l 88 674 q 168 932 88 841 q 398 1023 247 1023 q 619 944 545 1023 q 701 706 692 866 l 523 693 q 489 842 516 801 q 399 883 461 883 q 294 831 322 883 q 265 665 265 779 l 265 341 q 294 179 265 230 q 403 128 323 128 q 505 184 477 128 q 533 362 533 241 l 396 362 l 396 501 l 710 501 l 710 341 q 629 78 710 169 q 403 -13 549 -13 m 199 1136 l 138 1222 l 332 1414 l 466 1414 l 663 1222 l 602 1138 l 399 1275 l 199 1136 z "},"Ğ":{"ha":788,"x_min":88,"x_max":710,"o":"m 403 -13 q 169 80 249 -13 q 88 333 88 172 l 88 674 q 168 932 88 841 q 398 1023 247 1023 q 619 944 545 1023 q 701 706 692 866 l 523 693 q 489 842 516 801 q 399 883 461 883 q 294 831 322 883 q 265 665 265 779 l 265 341 q 294 179 265 230 q 403 128 323 128 q 505 184 477 128 q 533 362 533 241 l 396 362 l 396 501 l 710 501 l 710 341 q 629 78 710 169 q 403 -13 549 -13 m 400 1128 q 200 1195 269 1128 q 130 1405 131 1263 l 279 1405 q 308 1280 280 1316 q 400 1245 336 1245 q 492 1280 465 1245 q 521 1405 520 1316 l 670 1405 q 600 1195 669 1263 q 400 1128 532 1128 z "},"Ġ":{"ha":788,"x_min":88,"x_max":710,"o":"m 403 -13 q 169 80 249 -13 q 88 333 88 172 l 88 674 q 168 932 88 841 q 398 1023 247 1023 q 619 944 545 1023 q 701 706 692 866 l 523 693 q 489 842 516 801 q 399 883 461 883 q 294 831 322 883 q 265 665 265 779 l 265 341 q 294 179 265 230 q 403 128 323 128 q 505 184 477 128 q 533 362 533 241 l 396 362 l 396 501 l 710 501 l 710 341 q 629 78 710 169 q 403 -13 549 -13 m 404 1140 q 316 1157 350 1140 q 283 1221 283 1174 l 283 1234 q 316 1299 283 1280 q 404 1317 350 1317 q 492 1299 458 1317 q 525 1234 525 1280 l 525 1221 q 491 1157 525 1174 q 404 1140 457 1140 z "},"Ģ":{"ha":788,"x_min":88,"x_max":710,"o":"m 235 -379 l 314 -126 l 544 -126 l 360 -379 l 235 -379 m 403 -13 q 169 80 249 -13 q 88 333 88 172 l 88 674 q 168 932 88 841 q 398 1023 247 1023 q 619 944 545 1023 q 701 706 692 866 l 523 693 q 489 842 516 801 q 399 883 461 883 q 294 831 322 883 q 265 665 265 779 l 265 341 q 294 179 265 230 q 403 128 323 128 q 505 184 477 128 q 533 362 533 241 l 396 362 l 396 501 l 710 501 l 710 341 q 629 78 710 169 q 403 -13 549 -13 z "},"H":{"ha":788,"x_min":95,"x_max":693,"o":"m 95 0 l 95 1010 l 271 1010 l 271 624 l 516 624 l 516 1010 l 693 1010 l 693 0 l 516 0 l 516 484 l 271 484 l 271 0 l 95 0 z "},"Ĥ":{"ha":788,"x_min":95,"x_max":693,"o":"m 95 0 l 95 1010 l 271 1010 l 271 624 l 516 624 l 516 1010 l 693 1010 l 693 0 l 516 0 l 516 484 l 271 484 l 271 0 l 95 0 m 193 1136 l 131 1222 l 326 1414 l 460 1414 l 657 1222 l 596 1138 l 393 1275 l 193 1136 z "},"I":{"ha":788,"x_min":95,"x_max":693,"o":"m 95 0 l 95 140 l 306 140 l 306 870 l 95 870 l 95 1010 l 693 1010 l 693 870 l 482 870 l 482 140 l 693 140 l 693 0 l 95 0 z "},"Ì":{"ha":788,"x_min":95,"x_max":693,"o":"m 95 0 l 95 140 l 306 140 l 306 870 l 95 870 l 95 1010 l 693 1010 l 693 870 l 482 870 l 482 140 l 693 140 l 693 0 l 95 0 m 380 1136 l 154 1389 l 384 1389 l 505 1136 l 380 1136 z "},"Í":{"ha":788,"x_min":95,"x_max":693,"o":"m 95 0 l 95 140 l 306 140 l 306 870 l 95 870 l 95 1010 l 693 1010 l 693 870 l 482 870 l 482 140 l 693 140 l 693 0 l 95 0 m 259 1136 l 381 1389 l 611 1389 l 384 1136 l 259 1136 z "},"Î":{"ha":788,"x_min":95,"x_max":693,"o":"m 95 0 l 95 140 l 306 140 l 306 870 l 95 870 l 95 1010 l 693 1010 l 693 870 l 482 870 l 482 140 l 693 140 l 693 0 l 95 0 m 193 1136 l 131 1222 l 326 1414 l 460 1414 l 657 1222 l 596 1138 l 393 1275 l 193 1136 z "},"Ï":{"ha":788,"x_min":95,"x_max":693,"o":"m 95 0 l 95 140 l 306 140 l 306 870 l 95 870 l 95 1010 l 693 1010 l 693 870 l 482 870 l 482 140 l 693 140 l 693 0 l 95 0 m 261 1140 q 195 1157 221 1140 q 169 1221 169 1174 l 169 1234 q 195 1299 169 1280 q 261 1317 221 1317 q 328 1299 303 1317 q 354 1234 354 1280 l 354 1221 q 328 1157 354 1174 q 261 1140 302 1140 m 527 1140 q 460 1157 485 1140 q 434 1221 434 1174 l 434 1234 q 460 1299 434 1280 q 527 1317 485 1317 q 593 1299 567 1317 q 619 1234 619 1280 l 619 1221 q 592 1157 619 1174 q 527 1140 566 1140 z "},"Ĩ":{"ha":788,"x_min":95,"x_max":693,"o":"m 95 0 l 95 140 l 306 140 l 306 870 l 95 870 l 95 1010 l 693 1010 l 693 870 l 482 870 l 482 140 l 693 140 l 693 0 l 95 0 m 489 1149 q 417 1169 444 1149 q 370 1217 390 1189 q 339 1263 354 1242 q 304 1284 324 1284 q 271 1262 284 1284 q 260 1182 259 1240 l 260 1162 l 143 1162 l 143 1181 q 185 1346 143 1282 q 303 1410 227 1410 q 373 1391 346 1410 q 420 1342 400 1371 q 451 1295 437 1317 q 484 1274 466 1274 q 516 1297 504 1274 q 529 1378 529 1319 l 529 1398 l 646 1398 l 646 1379 q 605 1213 646 1277 q 489 1149 563 1149 z "},"Ī":{"ha":788,"x_min":95,"x_max":693,"o":"m 95 0 l 95 140 l 306 140 l 306 870 l 95 870 l 95 1010 l 693 1010 l 693 870 l 482 870 l 482 140 l 693 140 l 693 0 l 95 0 m 165 1193 l 165 1332 l 622 1332 l 622 1193 l 165 1193 z "},"Ĭ":{"ha":788,"x_min":95,"x_max":693,"o":"m 95 0 l 95 140 l 306 140 l 306 870 l 95 870 l 95 1010 l 693 1010 l 693 870 l 482 870 l 482 140 l 693 140 l 693 0 l 95 0 m 394 1128 q 194 1195 263 1128 q 124 1405 125 1263 l 273 1405 q 302 1280 274 1316 q 394 1245 330 1245 q 486 1280 458 1245 q 515 1405 514 1316 l 664 1405 q 594 1195 663 1263 q 394 1128 525 1128 z "},"Į":{"ha":788,"x_min":95,"x_max":693,"o":"m 95 0 l 95 140 l 306 140 l 306 870 l 95 870 l 95 1010 l 693 1010 l 693 870 l 482 870 l 482 140 l 693 140 l 693 0 l 95 0 m 484 -275 q 352 -235 400 -275 q 303 -121 303 -194 q 350 -3 303 -56 q 461 72 398 49 l 489 29 q 444 -23 456 5 q 433 -80 433 -52 q 453 -131 433 -114 q 511 -148 472 -148 q 556 -144 530 -148 q 610 -135 582 -140 l 610 -261 q 545 -271 578 -268 q 484 -275 511 -275 z "},"İ":{"ha":788,"x_min":95,"x_max":693,"o":"m 95 0 l 95 140 l 306 140 l 306 870 l 95 870 l 95 1010 l 693 1010 l 693 870 l 482 870 l 482 140 l 693 140 l 693 0 l 95 0 m 394 1140 q 306 1157 340 1140 q 273 1221 273 1174 l 273 1234 q 306 1299 273 1280 q 394 1317 340 1317 q 482 1299 448 1317 q 515 1234 515 1280 l 515 1221 q 481 1157 515 1174 q 394 1140 447 1140 z "},"J":{"ha":788,"x_min":67,"x_max":679,"o":"m 379 -13 q 146 68 217 -13 q 67 337 74 149 l 244 351 q 280 172 253 216 q 376 128 307 128 q 472 171 441 128 q 503 313 503 215 l 503 870 l 269 870 l 269 1010 l 679 1010 l 679 316 q 605 73 679 159 q 379 -13 530 -13 z "},"Ĵ":{"ha":788,"x_min":67,"x_max":730,"o":"m 379 -13 q 146 68 217 -13 q 67 337 74 149 l 244 351 q 280 172 253 216 q 376 128 307 128 q 472 171 441 128 q 503 313 503 215 l 503 870 l 269 870 l 269 1010 l 679 1010 l 679 316 q 605 73 679 159 q 379 -13 530 -13 m 266 1136 l 205 1222 l 399 1414 l 533 1414 l 730 1222 l 669 1138 l 466 1275 l 266 1136 z "},"K":{"ha":788,"x_min":95,"x_max":751,"o":"m 271 460 l 271 0 l 95 0 l 95 1010 l 271 1010 l 271 601 l 312 601 l 552 1010 l 751 1010 l 453 545 l 747 0 l 549 0 l 316 460 l 271 460 z "},"Ķ":{"ha":788,"x_min":95,"x_max":751,"o":"m 271 460 l 271 0 l 95 0 l 95 1010 l 271 1010 l 271 601 l 312 601 l 552 1010 l 751 1010 l 453 545 l 747 0 l 549 0 l 316 460 l 271 460 m 247 -379 l 327 -126 l 557 -126 l 372 -379 l 247 -379 z "},"L":{"ha":788,"x_min":148,"x_max":693,"o":"m 148 0 l 148 1010 l 324 1010 l 324 140 l 693 140 l 693 0 l 148 0 z "},"Ĺ":{"ha":788,"x_min":148,"x_max":693,"o":"m 148 0 l 148 1010 l 324 1010 l 324 140 l 693 140 l 693 0 l 148 0 m 160 1136 l 283 1389 l 513 1389 l 285 1136 l 160 1136 z "},"Ļ":{"ha":788,"x_min":148,"x_max":693,"o":"m 148 0 l 148 1010 l 324 1010 l 324 140 l 693 140 l 693 0 l 148 0 m 268 -379 l 347 -126 l 577 -126 l 393 -379 l 268 -379 z "},"Ľ":{"ha":788,"x_min":148,"x_max":731,"o":"m 148 0 l 148 1010 l 324 1010 l 324 140 l 693 140 l 693 0 l 148 0 m 439 638 l 504 1010 l 731 1010 l 544 638 l 439 638 z "},"M":{"ha":788,"x_min":76,"x_max":712,"o":"m 333 274 l 217 740 l 232 0 l 76 0 l 76 1010 l 254 1010 l 398 472 l 539 1010 l 712 1010 l 712 0 l 556 0 l 572 734 l 456 274 l 333 274 z "},"N":{"ha":788,"x_min":95,"x_max":693,"o":"m 479 0 l 246 779 l 246 0 l 95 0 l 95 1010 l 297 1010 l 542 215 l 542 1010 l 693 1010 l 693 0 l 479 0 z "},"Ñ":{"ha":788,"x_min":95,"x_max":693,"o":"m 479 0 l 246 779 l 246 0 l 95 0 l 95 1010 l 297 1010 l 542 215 l 542 1010 l 693 1010 l 693 0 l 479 0 m 495 1149 q 424 1169 451 1149 q 376 1217 396 1189 q 345 1263 360 1242 q 311 1284 331 1284 q 278 1262 290 1284 q 266 1182 265 1240 l 266 1162 l 149 1162 l 149 1181 q 191 1346 149 1282 q 309 1410 234 1410 q 379 1391 352 1410 q 427 1342 407 1371 q 458 1295 443 1317 q 490 1274 472 1274 q 523 1297 510 1274 q 535 1378 535 1319 l 535 1398 l 653 1398 l 653 1379 q 611 1213 653 1277 q 495 1149 569 1149 z "},"Ń":{"ha":788,"x_min":95,"x_max":693,"o":"m 479 0 l 246 779 l 246 0 l 95 0 l 95 1010 l 297 1010 l 542 215 l 542 1010 l 693 1010 l 693 0 l 479 0 m 287 1136 l 409 1389 l 639 1389 l 412 1136 l 287 1136 z "},"Ņ":{"ha":788,"x_min":95,"x_max":693,"o":"m 225 -379 l 304 -126 l 534 -126 l 350 -379 l 225 -379 m 479 0 l 246 779 l 246 0 l 95 0 l 95 1010 l 297 1010 l 542 215 l 542 1010 l 693 1010 l 693 0 l 479 0 z "},"Ň":{"ha":788,"x_min":95,"x_max":693,"o":"m 479 0 l 246 779 l 246 0 l 95 0 l 95 1010 l 297 1010 l 542 215 l 542 1010 l 693 1010 l 693 0 l 479 0 m 335 1141 l 138 1333 l 198 1419 l 402 1282 l 601 1419 l 663 1333 l 468 1141 l 335 1141 z "},"O":{"ha":788,"x_min":88,"x_max":701,"o":"m 394 -13 q 167 76 245 -13 q 88 328 88 165 l 88 677 q 167 932 88 842 q 395 1023 246 1023 q 622 932 543 1023 q 701 677 701 842 l 701 328 q 622 76 701 165 q 394 -13 543 -13 m 394 128 q 494 174 466 128 q 523 337 523 220 l 523 668 q 494 836 523 789 q 394 883 466 883 q 294 836 323 883 q 265 668 265 789 l 265 337 q 294 174 265 220 q 394 128 323 128 z "},"Ò":{"ha":788,"x_min":88,"x_max":701,"o":"m 394 -13 q 167 76 245 -13 q 88 328 88 165 l 88 677 q 167 932 88 842 q 395 1023 246 1023 q 622 932 543 1023 q 701 677 701 842 l 701 328 q 622 76 701 165 q 394 -13 543 -13 m 394 128 q 494 174 466 128 q 523 337 523 220 l 523 668 q 494 836 523 789 q 394 883 466 883 q 294 836 323 883 q 265 668 265 789 l 265 337 q 294 174 265 220 q 394 128 323 128 m 380 1136 l 154 1389 l 384 1389 l 505 1136 l 380 1136 z "},"Ó":{"ha":788,"x_min":88,"x_max":701,"o":"m 394 -13 q 167 76 245 -13 q 88 328 88 165 l 88 677 q 167 932 88 842 q 395 1023 246 1023 q 622 932 543 1023 q 701 677 701 842 l 701 328 q 622 76 701 165 q 394 -13 543 -13 m 394 128 q 494 174 466 128 q 523 337 523 220 l 523 668 q 494 836 523 789 q 394 883 466 883 q 294 836 323 883 q 265 668 265 789 l 265 337 q 294 174 265 220 q 394 128 323 128 m 294 1136 l 417 1389 l 646 1389 l 419 1136 l 294 1136 z "},"Ô":{"ha":788,"x_min":88,"x_max":701,"o":"m 394 -13 q 167 76 245 -13 q 88 328 88 165 l 88 677 q 167 932 88 842 q 395 1023 246 1023 q 622 932 543 1023 q 701 677 701 842 l 701 328 q 622 76 701 165 q 394 -13 543 -13 m 394 128 q 494 174 466 128 q 523 337 523 220 l 523 668 q 494 836 523 789 q 394 883 466 883 q 294 836 323 883 q 265 668 265 789 l 265 337 q 294 174 265 220 q 394 128 323 128 m 193 1136 l 131 1222 l 326 1414 l 460 1414 l 657 1222 l 596 1138 l 393 1275 l 193 1136 z "},"Õ":{"ha":788,"x_min":88,"x_max":701,"o":"m 394 -13 q 167 76 245 -13 q 88 328 88 165 l 88 677 q 167 932 88 842 q 395 1023 246 1023 q 622 932 543 1023 q 701 677 701 842 l 701 328 q 622 76 701 165 q 394 -13 543 -13 m 394 128 q 494 174 466 128 q 523 337 523 220 l 523 668 q 494 836 523 789 q 394 883 466 883 q 294 836 323 883 q 265 668 265 789 l 265 337 q 294 174 265 220 q 394 128 323 128 m 489 1149 q 417 1169 444 1149 q 370 1217 390 1189 q 339 1263 354 1242 q 304 1284 324 1284 q 271 1262 284 1284 q 260 1182 259 1240 l 260 1162 l 143 1162 l 143 1181 q 185 1346 143 1282 q 303 1410 227 1410 q 373 1391 346 1410 q 420 1342 400 1371 q 451 1295 437 1317 q 484 1274 466 1274 q 516 1297 504 1274 q 529 1378 529 1319 l 529 1398 l 646 1398 l 646 1379 q 605 1213 646 1277 q 489 1149 563 1149 z "},"Ö":{"ha":788,"x_min":88,"x_max":701,"o":"m 394 -13 q 167 76 245 -13 q 88 328 88 165 l 88 677 q 167 932 88 842 q 395 1023 246 1023 q 622 932 543 1023 q 701 677 701 842 l 701 328 q 622 76 701 165 q 394 -13 543 -13 m 394 128 q 494 174 466 128 q 523 337 523 220 l 523 668 q 494 836 523 789 q 394 883 466 883 q 294 836 323 883 q 265 668 265 789 l 265 337 q 294 174 265 220 q 394 128 323 128 m 261 1140 q 195 1157 221 1140 q 169 1221 169 1174 l 169 1234 q 195 1299 169 1280 q 261 1317 221 1317 q 328 1299 303 1317 q 354 1234 354 1280 l 354 1221 q 328 1157 354 1174 q 261 1140 302 1140 m 527 1140 q 460 1157 485 1140 q 434 1221 434 1174 l 434 1234 q 460 1299 434 1280 q 527 1317 485 1317 q 593 1299 567 1317 q 619 1234 619 1280 l 619 1221 q 592 1157 619 1174 q 527 1140 566 1140 z "},"Ō":{"ha":788,"x_min":88,"x_max":701,"o":"m 394 -13 q 167 76 245 -13 q 88 328 88 165 l 88 677 q 167 932 88 842 q 395 1023 246 1023 q 622 932 543 1023 q 701 677 701 842 l 701 328 q 622 76 701 165 q 394 -13 543 -13 m 394 128 q 494 174 466 128 q 523 337 523 220 l 523 668 q 494 836 523 789 q 394 883 466 883 q 294 836 323 883 q 265 668 265 789 l 265 337 q 294 174 265 220 q 394 128 323 128 m 165 1193 l 165 1332 l 622 1332 l 622 1193 l 165 1193 z "},"Ŏ":{"ha":788,"x_min":88,"x_max":701,"o":"m 394 -13 q 167 76 245 -13 q 88 328 88 165 l 88 677 q 167 932 88 842 q 395 1023 246 1023 q 622 932 543 1023 q 701 677 701 842 l 701 328 q 622 76 701 165 q 394 -13 543 -13 m 394 128 q 494 174 466 128 q 523 337 523 220 l 523 668 q 494 836 523 789 q 394 883 466 883 q 294 836 323 883 q 265 668 265 789 l 265 337 q 294 174 265 220 q 394 128 323 128 m 394 1128 q 194 1195 263 1128 q 124 1405 125 1263 l 273 1405 q 302 1280 274 1316 q 394 1245 330 1245 q 486 1280 458 1245 q 515 1405 514 1316 l 664 1405 q 594 1195 663 1263 q 394 1128 525 1128 z "},"Ő":{"ha":788,"x_min":88,"x_max":701,"o":"m 394 -13 q 167 76 245 -13 q 88 328 88 165 l 88 677 q 167 932 88 842 q 395 1023 246 1023 q 622 932 543 1023 q 701 677 701 842 l 701 328 q 622 76 701 165 q 394 -13 543 -13 m 394 128 q 494 174 466 128 q 523 337 523 220 l 523 668 q 494 836 523 789 q 394 883 466 883 q 294 836 323 883 q 265 668 265 789 l 265 337 q 294 174 265 220 q 394 128 323 128 m 453 1136 l 505 1389 l 688 1389 l 549 1136 l 453 1136 m 211 1136 l 263 1389 l 446 1389 l 307 1136 l 211 1136 z "},"P":{"ha":788,"x_min":95,"x_max":705,"o":"m 95 0 l 95 1010 l 413 1010 q 630 944 556 1010 q 705 740 705 878 l 705 601 q 631 400 705 463 q 413 337 558 337 l 271 337 l 271 0 l 95 0 m 271 473 l 403 473 q 498 504 468 473 q 528 612 528 535 l 528 730 q 498 838 528 807 q 403 870 468 870 l 271 870 l 271 473 z "},"Q":{"ha":788,"x_min":88,"x_max":701,"o":"m 682 -250 q 413 -225 505 -283 q 321 10 321 -168 q 148 116 207 30 q 88 341 88 201 l 88 677 q 167 932 88 841 q 395 1023 246 1023 q 622 932 543 1023 q 701 677 701 841 l 701 341 q 640 113 701 199 q 462 8 578 27 q 518 -105 466 -83 q 662 -106 571 -126 l 682 -250 m 394 140 q 494 187 465 140 q 523 347 523 234 l 523 670 q 494 833 523 787 q 394 880 465 880 q 294 833 323 880 q 265 670 265 787 l 265 347 q 294 187 265 234 q 394 140 323 140 z "},"R":{"ha":788,"x_min":95,"x_max":727,"o":"m 271 516 l 410 516 q 504 548 475 516 q 533 658 533 580 l 533 735 q 504 840 533 811 q 410 870 475 870 l 271 870 l 271 516 m 271 0 l 95 0 l 95 1010 l 433 1010 q 636 941 568 1010 q 703 740 703 872 l 703 657 q 661 480 703 547 q 535 393 619 414 l 727 0 l 539 0 l 355 379 l 271 379 l 271 0 z "},"Ŕ":{"ha":788,"x_min":95,"x_max":727,"o":"m 271 516 l 410 516 q 504 548 475 516 q 533 658 533 580 l 533 735 q 504 840 533 811 q 410 870 475 870 l 271 870 l 271 516 m 271 0 l 95 0 l 95 1010 l 433 1010 q 636 941 568 1010 q 703 740 703 872 l 703 657 q 661 480 703 547 q 535 393 619 414 l 727 0 l 539 0 l 355 379 l 271 379 l 271 0 m 302 1136 l 424 1389 l 654 1389 l 427 1136 l 302 1136 z "},"Ŗ":{"ha":788,"x_min":95,"x_max":727,"o":"m 271 516 l 410 516 q 504 548 475 516 q 533 658 533 580 l 533 735 q 504 840 533 811 q 410 870 475 870 l 271 870 l 271 516 m 271 0 l 95 0 l 95 1010 l 433 1010 q 636 941 568 1010 q 703 740 703 872 l 703 657 q 661 480 703 547 q 535 393 619 414 l 727 0 l 539 0 l 355 379 l 271 379 l 271 0 m 208 -379 l 288 -126 l 518 -126 l 333 -379 l 208 -379 z "},"Ř":{"ha":788,"x_min":95,"x_max":727,"o":"m 271 516 l 410 516 q 504 548 475 516 q 533 658 533 580 l 533 735 q 504 840 533 811 q 410 870 475 870 l 271 870 l 271 516 m 271 0 l 95 0 l 95 1010 l 433 1010 q 636 941 568 1010 q 703 740 703 872 l 703 657 q 661 480 703 547 q 535 393 619 414 l 727 0 l 539 0 l 355 379 l 271 379 l 271 0 m 319 1141 l 122 1333 l 183 1419 l 386 1282 l 586 1419 l 648 1333 l 453 1141 l 319 1141 z "},"S":{"ha":788,"x_min":74,"x_max":713,"o":"m 386 -11 q 218 17 298 -11 q 74 98 138 45 l 121 234 q 247 157 182 184 q 393 129 313 129 q 501 167 465 129 q 537 268 537 205 q 498 365 537 332 q 352 438 460 398 q 151 559 208 492 q 93 735 93 625 q 172 940 93 862 q 390 1018 250 1018 q 545 989 470 1018 q 674 910 621 960 l 635 780 q 518 852 577 827 q 398 878 458 878 q 302 846 336 878 q 269 753 269 814 q 308 661 269 693 q 460 586 347 629 q 657 465 601 532 q 713 289 713 399 q 624 69 713 149 q 386 -11 535 -11 z "},"":{"ha":788,"x_min":74,"x_max":713,"o":"m 386 -11 q 218 17 298 -11 q 74 98 138 45 l 121 234 q 247 157 182 184 q 393 129 313 129 q 501 167 465 129 q 537 268 537 205 q 498 365 537 332 q 352 438 460 398 q 151 559 208 492 q 93 735 93 625 q 172 940 93 862 q 390 1018 250 1018 q 545 989 470 1018 q 674 910 621 960 l 635 780 q 518 852 577 827 q 398 878 458 878 q 302 846 336 878 q 269 753 269 814 q 308 661 269 693 q 460 586 347 629 q 657 465 601 532 q 713 289 713 399 q 624 69 713 149 q 386 -11 535 -11 z "},"Ś":{"ha":788,"x_min":74,"x_max":713,"o":"m 386 -11 q 218 17 298 -11 q 74 98 138 45 l 121 234 q 247 157 182 184 q 393 129 313 129 q 501 167 465 129 q 537 268 537 205 q 498 365 537 332 q 352 438 460 398 q 151 559 208 492 q 93 735 93 625 q 172 940 93 862 q 390 1018 250 1018 q 545 989 470 1018 q 674 910 621 960 l 635 780 q 518 852 577 827 q 398 878 458 878 q 302 846 336 878 q 269 753 269 814 q 308 661 269 693 q 460 586 347 629 q 657 465 601 532 q 713 289 713 399 q 624 69 713 149 q 386 -11 535 -11 m 258 1136 l 380 1389 l 610 1389 l 383 1136 l 258 1136 z "},"Ŝ":{"ha":788,"x_min":74,"x_max":713,"o":"m 386 -11 q 218 17 298 -11 q 74 98 138 45 l 121 234 q 247 157 182 184 q 393 129 313 129 q 501 167 465 129 q 537 268 537 205 q 498 365 537 332 q 352 438 460 398 q 151 559 208 492 q 93 735 93 625 q 172 940 93 862 q 390 1018 250 1018 q 545 989 470 1018 q 674 910 621 960 l 635 780 q 518 852 577 827 q 398 878 458 878 q 302 846 336 878 q 269 753 269 814 q 308 661 269 693 q 460 586 347 629 q 657 465 601 532 q 713 289 713 399 q 624 69 713 149 q 386 -11 535 -11 m 192 1136 l 130 1222 l 324 1414 l 458 1414 l 655 1222 l 595 1138 l 391 1275 l 192 1136 z "},"Ş":{"ha":788,"x_min":74,"x_max":713,"o":"m 386 -11 q 218 17 298 -11 q 74 98 138 45 l 121 234 q 247 157 182 184 q 393 129 313 129 q 501 167 465 129 q 537 268 537 205 q 498 365 537 332 q 352 438 460 398 q 151 559 208 492 q 93 735 93 625 q 172 940 93 862 q 390 1018 250 1018 q 545 989 470 1018 q 674 910 621 960 l 635 780 q 518 852 577 827 q 398 878 458 878 q 302 846 336 878 q 269 753 269 814 q 308 661 269 693 q 460 586 347 629 q 657 465 601 532 q 713 289 713 399 q 624 69 713 149 q 386 -11 535 -11 m 361 0 l 381 53 q 515 2 467 42 q 563 -114 563 -38 q 504 -237 563 -197 q 359 -277 444 -277 q 209 -241 265 -277 q 148 -130 153 -206 l 298 -117 q 311 -151 299 -141 q 351 -160 323 -160 q 396 -146 381 -160 q 410 -88 410 -131 q 400 -29 410 -48 q 361 0 389 -10 z "},"Š":{"ha":788,"x_min":74,"x_max":713,"o":"m 386 -11 q 218 17 298 -11 q 74 98 138 45 l 121 234 q 247 157 182 184 q 393 129 313 129 q 501 167 465 129 q 537 268 537 205 q 498 365 537 332 q 352 438 460 398 q 151 559 208 492 q 93 735 93 625 q 172 940 93 862 q 390 1018 250 1018 q 545 989 470 1018 q 674 910 621 960 l 635 780 q 518 852 577 827 q 398 878 458 878 q 302 846 336 878 q 269 753 269 814 q 308 661 269 693 q 460 586 347 629 q 657 465 601 532 q 713 289 713 399 q 624 69 713 149 q 386 -11 535 -11 m 327 1141 l 130 1333 l 191 1419 l 394 1282 l 593 1419 l 655 1333 l 461 1141 l 327 1141 z "},"Ș":{"ha":788,"x_min":74,"x_max":713,"o":"m 386 -11 q 218 17 298 -11 q 74 98 138 45 l 121 234 q 247 157 182 184 q 393 129 313 129 q 501 167 465 129 q 537 268 537 205 q 498 365 537 332 q 352 438 460 398 q 151 559 208 492 q 93 735 93 625 q 172 940 93 862 q 390 1018 250 1018 q 545 989 470 1018 q 674 910 621 960 l 635 780 q 518 852 577 827 q 398 878 458 878 q 302 846 336 878 q 269 753 269 814 q 308 661 269 693 q 460 586 347 629 q 657 465 601 532 q 713 289 713 399 q 624 69 713 149 q 386 -11 535 -11 m 211 -379 l 290 -126 l 520 -126 l 336 -379 l 211 -379 z "},"T":{"ha":788,"x_min":62,"x_max":727,"o":"m 306 0 l 306 870 l 62 870 l 62 1010 l 727 1010 l 727 870 l 482 870 l 482 0 l 306 0 z "},"Ţ":{"ha":788,"x_min":62,"x_max":727,"o":"m 306 0 l 306 870 l 62 870 l 62 1010 l 727 1010 l 727 870 l 482 870 l 482 0 l 306 0 m 351 0 l 371 53 q 505 2 457 42 q 553 -114 553 -38 q 494 -237 553 -197 q 348 -277 434 -277 q 199 -241 255 -277 q 138 -130 143 -206 l 288 -117 q 301 -151 289 -141 q 341 -160 313 -160 q 386 -146 371 -160 q 400 -88 400 -131 q 390 -29 400 -48 q 351 0 379 -10 z "},"Ť":{"ha":788,"x_min":62,"x_max":727,"o":"m 306 0 l 306 870 l 62 870 l 62 1010 l 727 1010 l 727 870 l 482 870 l 482 0 l 306 0 m 328 1141 l 131 1333 l 192 1419 l 395 1282 l 595 1419 l 657 1333 l 462 1141 l 328 1141 z "},"Ț":{"ha":788,"x_min":62,"x_max":727,"o":"m 306 0 l 306 870 l 62 870 l 62 1010 l 727 1010 l 727 870 l 482 870 l 482 0 l 306 0 m 217 -379 l 297 -126 l 527 -126 l 342 -379 l 217 -379 z "},"U":{"ha":788,"x_min":95,"x_max":693,"o":"m 394 -13 q 168 74 241 -13 q 95 341 95 160 l 95 1010 l 271 1010 l 271 341 q 299 177 271 223 q 394 131 326 131 q 489 177 462 131 q 516 341 516 223 l 516 1010 l 693 1010 l 693 341 q 620 74 693 160 q 394 -13 547 -13 z "},"Ù":{"ha":788,"x_min":95,"x_max":693,"o":"m 394 -13 q 168 74 241 -13 q 95 341 95 160 l 95 1010 l 271 1010 l 271 341 q 299 177 271 223 q 394 131 326 131 q 489 177 462 131 q 516 341 516 223 l 516 1010 l 693 1010 l 693 341 q 620 74 693 160 q 394 -13 547 -13 m 380 1136 l 154 1389 l 384 1389 l 505 1136 l 380 1136 z "},"Ú":{"ha":788,"x_min":95,"x_max":693,"o":"m 394 -13 q 168 74 241 -13 q 95 341 95 160 l 95 1010 l 271 1010 l 271 341 q 299 177 271 223 q 394 131 326 131 q 489 177 462 131 q 516 341 516 223 l 516 1010 l 693 1010 l 693 341 q 620 74 693 160 q 394 -13 547 -13 m 259 1136 l 381 1389 l 611 1389 l 384 1136 l 259 1136 z "},"Û":{"ha":788,"x_min":95,"x_max":693,"o":"m 394 -13 q 168 74 241 -13 q 95 341 95 160 l 95 1010 l 271 1010 l 271 341 q 299 177 271 223 q 394 131 326 131 q 489 177 462 131 q 516 341 516 223 l 516 1010 l 693 1010 l 693 341 q 620 74 693 160 q 394 -13 547 -13 m 193 1136 l 131 1222 l 326 1414 l 460 1414 l 657 1222 l 596 1138 l 393 1275 l 193 1136 z "},"Ü":{"ha":788,"x_min":95,"x_max":693,"o":"m 394 -13 q 168 74 241 -13 q 95 341 95 160 l 95 1010 l 271 1010 l 271 341 q 299 177 271 223 q 394 131 326 131 q 489 177 462 131 q 516 341 516 223 l 516 1010 l 693 1010 l 693 341 q 620 74 693 160 q 394 -13 547 -13 m 261 1140 q 195 1157 221 1140 q 169 1221 169 1174 l 169 1234 q 195 1299 169 1280 q 261 1317 221 1317 q 328 1299 303 1317 q 354 1234 354 1280 l 354 1221 q 328 1157 354 1174 q 261 1140 302 1140 m 527 1140 q 460 1157 485 1140 q 434 1221 434 1174 l 434 1234 q 460 1299 434 1280 q 527 1317 485 1317 q 593 1299 567 1317 q 619 1234 619 1280 l 619 1221 q 592 1157 619 1174 q 527 1140 566 1140 z "},"Ũ":{"ha":788,"x_min":95,"x_max":693,"o":"m 394 -13 q 168 74 241 -13 q 95 341 95 160 l 95 1010 l 271 1010 l 271 341 q 299 177 271 223 q 394 131 326 131 q 489 177 462 131 q 516 341 516 223 l 516 1010 l 693 1010 l 693 341 q 620 74 693 160 q 394 -13 547 -13 m 489 1149 q 417 1169 444 1149 q 370 1217 390 1189 q 339 1263 354 1242 q 304 1284 324 1284 q 271 1262 284 1284 q 260 1182 259 1240 l 260 1162 l 143 1162 l 143 1181 q 185 1346 143 1282 q 303 1410 227 1410 q 373 1391 346 1410 q 420 1342 400 1371 q 451 1295 437 1317 q 484 1274 466 1274 q 516 1297 504 1274 q 529 1378 529 1319 l 529 1398 l 646 1398 l 646 1379 q 605 1213 646 1277 q 489 1149 563 1149 z "},"Ū":{"ha":788,"x_min":95,"x_max":693,"o":"m 394 -13 q 168 74 241 -13 q 95 341 95 160 l 95 1010 l 271 1010 l 271 341 q 299 177 271 223 q 394 131 326 131 q 489 177 462 131 q 516 341 516 223 l 516 1010 l 693 1010 l 693 341 q 620 74 693 160 q 394 -13 547 -13 m 165 1193 l 165 1332 l 622 1332 l 622 1193 l 165 1193 z "},"Ŭ":{"ha":788,"x_min":95,"x_max":693,"o":"m 394 -13 q 168 74 241 -13 q 95 341 95 160 l 95 1010 l 271 1010 l 271 341 q 299 177 271 223 q 394 131 326 131 q 489 177 462 131 q 516 341 516 223 l 516 1010 l 693 1010 l 693 341 q 620 74 693 160 q 394 -13 547 -13 m 394 1128 q 194 1195 263 1128 q 124 1405 125 1263 l 273 1405 q 302 1280 274 1316 q 394 1245 330 1245 q 486 1280 458 1245 q 515 1405 514 1316 l 664 1405 q 594 1195 663 1263 q 394 1128 525 1128 z "},"Ů":{"ha":788,"x_min":95,"x_max":693,"o":"m 394 -13 q 168 74 241 -13 q 95 341 95 160 l 95 1010 l 271 1010 l 271 341 q 299 177 271 223 q 394 131 326 131 q 489 177 462 131 q 516 341 516 223 l 516 1010 l 693 1010 l 693 341 q 620 74 693 160 q 394 -13 547 -13 m 394 1114 q 246 1159 303 1114 q 189 1301 189 1205 l 189 1341 q 246 1485 189 1438 q 394 1532 303 1532 q 542 1485 486 1532 q 598 1341 598 1438 l 598 1301 q 542 1159 598 1205 q 394 1114 485 1114 m 394 1211 q 453 1232 433 1211 q 473 1301 473 1253 l 473 1341 q 453 1411 473 1388 q 394 1434 433 1434 q 335 1411 355 1434 q 314 1341 314 1388 l 314 1301 q 335 1232 314 1253 q 394 1211 355 1211 z "},"Ű":{"ha":788,"x_min":95,"x_max":698,"o":"m 394 -13 q 168 74 241 -13 q 95 341 95 160 l 95 1010 l 271 1010 l 271 341 q 299 177 271 223 q 394 131 326 131 q 489 177 462 131 q 516 341 516 223 l 516 1010 l 693 1010 l 693 341 q 620 74 693 160 q 394 -13 547 -13 m 463 1136 l 515 1389 l 698 1389 l 559 1136 l 463 1136 m 221 1136 l 273 1389 l 456 1389 l 317 1136 l 221 1136 z "},"Ų":{"ha":788,"x_min":95,"x_max":693,"o":"m 462 -275 q 330 -235 379 -275 q 282 -121 282 -194 q 329 -3 282 -56 q 439 72 376 49 l 467 29 q 423 -23 434 5 q 412 -80 412 -52 q 431 -131 412 -114 q 490 -148 451 -148 q 535 -144 509 -148 q 588 -135 561 -140 l 588 -261 q 523 -271 557 -268 q 462 -275 490 -275 m 394 -13 q 168 74 241 -13 q 95 341 95 160 l 95 1010 l 271 1010 l 271 341 q 299 177 271 223 q 394 131 326 131 q 489 177 462 131 q 516 341 516 223 l 516 1010 l 693 1010 l 693 341 q 620 74 693 160 q 394 -13 547 -13 z "},"V":{"ha":788,"x_min":45,"x_max":744,"o":"m 508 0 l 282 0 l 45 1010 l 223 1010 l 394 177 l 572 1010 l 744 1010 l 508 0 z "},"W":{"ha":788,"x_min":39,"x_max":749,"o":"m 482 0 l 395 525 l 308 0 l 150 0 l 39 1010 l 194 1010 l 246 230 l 328 758 l 460 758 l 545 240 l 596 1010 l 749 1010 l 638 0 l 482 0 z "},"Ŵ":{"ha":788,"x_min":39,"x_max":749,"o":"m 482 0 l 395 525 l 308 0 l 150 0 l 39 1010 l 194 1010 l 246 230 l 328 758 l 460 758 l 545 240 l 596 1010 l 749 1010 l 638 0 l 482 0 m 193 1136 l 131 1222 l 326 1414 l 460 1414 l 657 1222 l 596 1138 l 393 1275 l 193 1136 z "},"Ẁ":{"ha":788,"x_min":39,"x_max":749,"o":"m 482 0 l 395 525 l 308 0 l 150 0 l 39 1010 l 194 1010 l 246 230 l 328 758 l 460 758 l 545 240 l 596 1010 l 749 1010 l 638 0 l 482 0 m 384 1136 l 158 1389 l 388 1389 l 509 1136 l 384 1136 z "},"Ẃ":{"ha":788,"x_min":39,"x_max":749,"o":"m 482 0 l 395 525 l 308 0 l 150 0 l 39 1010 l 194 1010 l 246 230 l 328 758 l 460 758 l 545 240 l 596 1010 l 749 1010 l 638 0 l 482 0 m 263 1136 l 385 1389 l 615 1389 l 388 1136 l 263 1136 z "},"Ẅ":{"ha":788,"x_min":39,"x_max":749,"o":"m 482 0 l 395 525 l 308 0 l 150 0 l 39 1010 l 194 1010 l 246 230 l 328 758 l 460 758 l 545 240 l 596 1010 l 749 1010 l 638 0 l 482 0 m 269 1140 q 203 1157 229 1140 q 177 1221 177 1174 l 177 1234 q 203 1299 177 1280 q 269 1317 229 1317 q 336 1299 311 1317 q 361 1234 361 1280 l 361 1221 q 335 1157 361 1174 q 269 1140 309 1140 m 534 1140 q 467 1157 492 1140 q 442 1221 442 1174 l 442 1234 q 467 1299 442 1280 q 534 1317 492 1317 q 600 1299 574 1317 q 626 1234 626 1280 l 626 1221 q 600 1157 626 1174 q 534 1140 573 1140 z "},"X":{"ha":788,"x_min":49,"x_max":740,"o":"m 559 0 l 391 341 l 226 0 l 49 0 l 311 519 l 76 1010 l 261 1010 l 412 702 l 563 1010 l 740 1010 l 491 520 l 736 0 l 559 0 z "},"Y":{"ha":788,"x_min":34,"x_max":754,"o":"m 482 0 l 306 0 l 306 379 l 34 1010 l 213 1010 l 395 547 l 574 1010 l 754 1010 l 482 379 l 482 0 z "},"Ý":{"ha":788,"x_min":34,"x_max":754,"o":"m 482 0 l 306 0 l 306 379 l 34 1010 l 213 1010 l 395 547 l 574 1010 l 754 1010 l 482 379 l 482 0 m 259 1136 l 381 1389 l 611 1389 l 384 1136 l 259 1136 z "},"Ŷ":{"ha":788,"x_min":34,"x_max":754,"o":"m 482 0 l 306 0 l 306 379 l 34 1010 l 213 1010 l 395 547 l 574 1010 l 754 1010 l 482 379 l 482 0 m 193 1136 l 131 1222 l 326 1414 l 460 1414 l 657 1222 l 596 1138 l 393 1275 l 193 1136 z "},"Ÿ":{"ha":788,"x_min":34,"x_max":754,"o":"m 482 0 l 306 0 l 306 379 l 34 1010 l 213 1010 l 395 547 l 574 1010 l 754 1010 l 482 379 l 482 0 m 261 1140 q 195 1157 221 1140 q 169 1221 169 1174 l 169 1234 q 195 1299 169 1280 q 261 1317 221 1317 q 328 1299 303 1317 q 354 1234 354 1280 l 354 1221 q 328 1157 354 1174 q 261 1140 302 1140 m 527 1140 q 460 1157 485 1140 q 434 1221 434 1174 l 434 1234 q 460 1299 434 1280 q 527 1317 485 1317 q 593 1299 567 1317 q 619 1234 619 1280 l 619 1221 q 592 1157 619 1174 q 527 1140 566 1140 z "},"Ỳ":{"ha":788,"x_min":34,"x_max":754,"o":"m 482 0 l 306 0 l 306 379 l 34 1010 l 213 1010 l 395 547 l 574 1010 l 754 1010 l 482 379 l 482 0 m 380 1136 l 154 1389 l 384 1389 l 505 1136 l 380 1136 z "},"Z":{"ha":788,"x_min":88,"x_max":701,"o":"m 701 0 l 88 0 l 88 140 l 520 870 l 88 870 l 88 1010 l 701 1010 l 701 870 l 277 140 l 701 140 l 701 0 z "},"Ź":{"ha":788,"x_min":88,"x_max":701,"o":"m 701 0 l 88 0 l 88 140 l 520 870 l 88 870 l 88 1010 l 701 1010 l 701 870 l 277 140 l 701 140 l 701 0 m 290 1136 l 413 1389 l 643 1389 l 415 1136 l 290 1136 z "},"Ż":{"ha":788,"x_min":88,"x_max":701,"o":"m 701 0 l 88 0 l 88 140 l 520 870 l 88 870 l 88 1010 l 701 1010 l 701 870 l 277 140 l 701 140 l 701 0 m 394 1140 q 306 1157 340 1140 q 273 1221 273 1174 l 273 1234 q 306 1299 273 1280 q 394 1317 340 1317 q 482 1299 448 1317 q 515 1234 515 1280 l 515 1221 q 481 1157 515 1174 q 394 1140 447 1140 z "},"Ž":{"ha":788,"x_min":88,"x_max":701,"o":"m 701 0 l 88 0 l 88 140 l 520 870 l 88 870 l 88 1010 l 701 1010 l 701 870 l 277 140 l 701 140 l 701 0 m 328 1141 l 131 1333 l 192 1419 l 395 1282 l 595 1419 l 657 1333 l 462 1141 l 328 1141 z "},"Æ":{"ha":788,"x_min":33,"x_max":745,"o":"m 346 883 l 245 395 l 383 395 l 383 883 l 346 883 m 383 269 l 218 269 l 162 0 l 33 0 l 260 1010 l 745 1010 l 745 883 l 535 883 l 535 606 l 727 606 l 727 480 l 535 480 l 535 128 l 745 128 l 745 0 l 383 0 l 383 269 z "},"Ǽ":{"ha":788,"x_min":33,"x_max":745,"o":"m 346 883 l 245 395 l 383 395 l 383 883 l 346 883 m 383 269 l 218 269 l 162 0 l 33 0 l 260 1010 l 745 1010 l 745 883 l 535 883 l 535 606 l 727 606 l 727 480 l 535 480 l 535 128 l 745 128 l 745 0 l 383 0 l 383 269 m 389 1136 l 511 1389 l 741 1389 l 514 1136 l 389 1136 z "},"Ð":{"ha":788,"x_min":16,"x_max":701,"o":"m 95 0 l 95 492 l 16 492 l 16 620 l 95 620 l 95 1010 l 385 1010 q 616 912 532 1010 q 701 652 701 814 l 701 354 q 616 96 701 192 q 384 0 530 0 l 95 0 m 271 140 l 370 140 q 486 193 449 140 q 523 362 523 245 l 523 643 q 486 816 523 763 q 370 870 449 870 l 271 870 l 271 620 l 394 620 l 394 492 l 271 492 l 271 140 z "},"Ø":{"ha":788,"x_min":88,"x_max":701,"o":"m 260 264 l 455 874 q 427 881 442 879 q 394 883 413 883 q 283 833 314 883 q 251 659 251 784 l 251 346 q 253 301 251 321 q 260 264 255 280 m 394 128 q 506 176 473 128 q 538 346 538 225 l 538 640 q 534 696 538 672 q 524 737 530 721 l 328 139 q 358 131 342 134 q 394 128 374 128 m 394 -13 q 340 -9 366 -13 q 292 3 314 -5 l 246 -126 l 112 -126 l 181 64 q 112 177 135 109 q 88 337 88 246 l 88 668 q 167 930 88 837 q 395 1023 246 1023 q 444 1020 420 1023 q 490 1010 468 1016 l 534 1136 l 668 1136 l 605 948 q 676 833 652 904 q 701 668 701 761 l 701 337 q 621 80 701 172 q 394 -13 542 -13 z "},"Ǿ":{"ha":788,"x_min":88,"x_max":701,"o":"m 260 264 l 455 874 q 427 881 442 879 q 394 883 413 883 q 283 833 314 883 q 251 659 251 784 l 251 346 q 253 301 251 321 q 260 264 255 280 m 394 128 q 506 176 473 128 q 538 346 538 225 l 538 640 q 534 696 538 672 q 524 737 530 721 l 328 139 q 358 131 342 134 q 394 128 374 128 m 394 -13 q 340 -9 366 -13 q 292 3 314 -5 l 246 -126 l 112 -126 l 181 64 q 112 177 135 109 q 88 337 88 246 l 88 668 q 167 930 88 837 q 395 1023 246 1023 q 444 1020 420 1023 q 490 1010 468 1016 l 534 1136 l 668 1136 l 605 948 q 676 833 652 904 q 701 668 701 761 l 701 337 q 621 80 701 172 q 394 -13 542 -13 m 294 1136 l 417 1389 l 646 1389 l 419 1136 l 294 1136 z "},"Þ":{"ha":788,"x_min":95,"x_max":705,"o":"m 95 0 l 95 1010 l 271 1010 l 271 850 l 413 850 q 630 780 556 850 q 705 580 705 711 l 705 446 q 630 246 705 314 q 413 177 556 177 l 271 177 l 271 0 l 95 0 m 271 314 l 393 314 q 496 346 466 314 q 527 453 527 378 l 527 576 q 496 681 527 650 q 393 711 466 711 l 271 711 l 271 314 z "},"Đ":{"ha":788,"x_min":16,"x_max":701,"o":"m 95 0 l 95 492 l 16 492 l 16 620 l 95 620 l 95 1010 l 385 1010 q 616 912 532 1010 q 701 652 701 814 l 701 354 q 616 96 701 192 q 384 0 530 0 l 95 0 m 271 140 l 370 140 q 486 193 449 140 q 523 362 523 245 l 523 643 q 486 816 523 763 q 370 870 449 870 l 271 870 l 271 620 l 394 620 l 394 492 l 271 492 l 271 140 z "},"Ħ":{"ha":788,"x_min":0,"x_max":788,"o":"m 274 539 l 514 539 l 514 703 l 274 703 l 274 539 m 274 399 l 274 0 l 97 0 l 97 703 l 0 703 l 0 830 l 97 830 l 97 1010 l 274 1010 l 274 830 l 514 830 l 514 1010 l 692 1010 l 692 830 l 788 830 l 788 703 l 692 703 l 692 0 l 514 0 l 514 399 l 274 399 z "},"Ĳ":{"ha":788,"x_min":74,"x_max":715,"o":"m 216 0 l 74 0 l 74 1010 l 216 1010 l 216 0 m 510 -13 q 347 66 400 -13 q 293 328 294 144 l 434 342 q 450 163 437 207 q 504 119 463 119 q 557 162 542 119 q 573 290 573 206 l 573 880 l 417 880 l 417 1010 l 715 1010 l 715 290 q 664 68 715 149 q 510 -13 614 -13 z "},"Ŀ":{"ha":788,"x_min":148,"x_max":769,"o":"m 148 0 l 148 1010 l 324 1010 l 324 140 l 693 140 l 693 0 l 148 0 m 648 505 q 560 522 593 505 q 527 586 527 539 l 527 598 q 560 664 527 645 q 648 682 593 682 q 735 664 702 682 q 769 598 769 645 l 769 586 q 735 522 769 539 q 648 505 701 505 z "},"Ł":{"ha":788,"x_min":63,"x_max":693,"o":"m 148 0 l 148 434 l 63 404 l 63 521 l 148 552 l 148 1010 l 324 1010 l 324 616 l 574 707 l 574 590 l 324 499 l 324 140 l 693 140 l 693 0 l 148 0 z "},"Ŋ":{"ha":788,"x_min":95,"x_max":693,"o":"m 434 -264 q 360 -254 398 -264 q 283 -227 322 -244 l 304 -92 q 364 -118 336 -109 q 415 -128 391 -128 q 489 -91 462 -128 q 516 33 516 -54 l 516 736 q 493 843 516 808 q 427 879 470 879 q 349 846 386 879 q 271 750 312 813 l 271 0 l 95 0 l 95 1010 l 271 1010 l 271 875 l 303 875 q 383 984 330 946 q 504 1023 436 1023 q 640 960 586 1023 q 693 780 693 896 l 693 14 q 621 -193 693 -121 q 434 -264 549 -264 z "},"Œ":{"ha":788,"x_min":51,"x_max":749,"o":"m 316 0 q 121 93 191 0 q 51 343 51 187 l 51 665 q 121 916 51 822 q 316 1010 191 1010 l 749 1010 l 749 883 l 535 883 l 535 615 l 713 615 l 713 487 l 535 487 l 535 128 l 749 128 l 749 0 l 316 0 m 327 131 l 383 131 l 383 879 l 327 879 q 232 825 261 879 q 202 663 202 771 l 202 346 q 232 185 202 239 q 327 131 261 131 z "},"Ŧ":{"ha":788,"x_min":62,"x_max":727,"o":"m 306 0 l 306 383 l 124 383 l 124 509 l 306 509 l 306 870 l 62 870 l 62 1010 l 727 1010 l 727 870 l 482 870 l 482 509 l 665 509 l 665 383 l 482 383 l 482 0 l 306 0 z "},"Α":{"ha":788,"x_min":45,"x_max":744,"o":"m 490 408 l 398 857 l 299 408 l 490 408 m 573 0 l 518 269 l 269 269 l 210 0 l 45 0 l 289 1010 l 500 1010 l 744 0 l 573 0 z "},"Ά":{"ha":788,"x_min":10,"x_max":744,"o":"m 490 408 l 398 857 l 299 408 l 490 408 m 573 0 l 518 269 l 269 269 l 210 0 l 45 0 l 289 1010 l 500 1010 l 744 0 l 573 0 m 10 884 l 68 1136 l 288 1136 l 124 884 l 10 884 z "},"Β":{"ha":788,"x_min":95,"x_max":701,"o":"m 95 0 l 95 1010 l 404 1010 q 607 951 539 1010 q 676 773 676 891 l 676 721 q 643 608 676 650 q 544 553 610 566 l 544 516 q 660 455 619 508 q 701 321 701 402 l 701 261 q 626 66 701 131 q 404 0 552 0 l 95 0 m 271 590 l 388 590 q 473 618 447 590 q 500 711 500 646 l 500 755 q 473 847 500 818 q 388 875 447 875 l 271 875 l 271 590 m 271 135 l 395 135 q 494 168 463 135 q 524 274 524 201 l 524 323 q 494 428 524 395 q 395 461 463 461 l 271 461 l 271 135 z "},"Γ":{"ha":788,"x_min":130,"x_max":715,"o":"m 130 0 l 130 1010 l 715 1010 l 715 870 l 308 870 l 308 0 l 130 0 z "},"Δ":{"ha":788,"x_min":61,"x_max":729,"o":"m 61 0 l 61 140 l 277 1010 l 516 1010 l 729 140 l 729 0 l 61 0 m 566 140 l 394 869 l 215 140 l 566 140 z "},"Ε":{"ha":788,"x_min":95,"x_max":701,"o":"m 95 0 l 95 1010 l 701 1010 l 701 870 l 271 870 l 271 615 l 648 615 l 648 475 l 271 475 l 271 140 l 701 140 l 701 0 l 95 0 z "},"Έ":{"ha":788,"x_min":-144,"x_max":701,"o":"m 95 0 l 95 1010 l 701 1010 l 701 870 l 271 870 l 271 615 l 648 615 l 648 475 l 271 475 l 271 140 l 701 140 l 701 0 l 95 0 m -144 884 l -86 1136 l 134 1136 l -30 884 l -144 884 z "},"Ζ":{"ha":788,"x_min":88,"x_max":701,"o":"m 701 0 l 88 0 l 88 140 l 520 870 l 88 870 l 88 1010 l 701 1010 l 701 870 l 277 140 l 701 140 l 701 0 z "},"Η":{"ha":788,"x_min":95,"x_max":693,"o":"m 95 0 l 95 1010 l 271 1010 l 271 624 l 516 624 l 516 1010 l 693 1010 l 693 0 l 516 0 l 516 484 l 271 484 l 271 0 l 95 0 z "},"Ή":{"ha":788,"x_min":-162,"x_max":693,"o":"m 95 0 l 95 1010 l 271 1010 l 271 624 l 516 624 l 516 1010 l 693 1010 l 693 0 l 516 0 l 516 484 l 271 484 l 271 0 l 95 0 m -162 884 l -104 1136 l 116 1136 l -48 884 l -162 884 z "},"Θ":{"ha":788,"x_min":81,"x_max":707,"o":"m 394 -13 q 162 78 244 -13 q 81 337 81 169 l 81 668 q 162 930 81 837 q 395 1023 244 1023 q 626 930 545 1023 q 707 668 707 837 l 707 337 q 626 78 707 169 q 394 -13 545 -13 m 394 128 q 512 176 477 128 q 547 346 547 225 l 547 659 q 512 832 547 782 q 394 883 477 883 q 276 832 311 883 q 241 659 241 782 l 241 346 q 276 176 241 225 q 394 128 311 128 m 307 446 l 307 577 l 485 577 l 485 446 l 307 446 z "},"Ι":{"ha":788,"x_min":95,"x_max":693,"o":"m 95 0 l 95 140 l 306 140 l 306 870 l 95 870 l 95 1010 l 693 1010 l 693 870 l 482 870 l 482 140 l 693 140 l 693 0 l 95 0 z "},"Ί":{"ha":788,"x_min":-162,"x_max":693,"o":"m 95 0 l 95 140 l 306 140 l 306 870 l 95 870 l 95 1010 l 693 1010 l 693 870 l 482 870 l 482 140 l 693 140 l 693 0 l 95 0 m -162 884 l -104 1136 l 116 1136 l -48 884 l -162 884 z "},"Ϊ":{"ha":788,"x_min":95,"x_max":693,"o":"m 95 0 l 95 140 l 306 140 l 306 870 l 95 870 l 95 1010 l 693 1010 l 693 870 l 482 870 l 482 140 l 693 140 l 693 0 l 95 0 m 261 1140 q 195 1157 221 1140 q 169 1221 169 1174 l 169 1234 q 195 1299 169 1280 q 261 1317 221 1317 q 328 1299 303 1317 q 354 1234 354 1280 l 354 1221 q 328 1157 354 1174 q 261 1140 302 1140 m 527 1140 q 460 1157 485 1140 q 434 1221 434 1174 l 434 1234 q 460 1299 434 1280 q 527 1317 485 1317 q 593 1299 567 1317 q 619 1234 619 1280 l 619 1221 q 592 1157 619 1174 q 527 1140 566 1140 z "},"Κ":{"ha":788,"x_min":95,"x_max":751,"o":"m 271 460 l 271 0 l 95 0 l 95 1010 l 271 1010 l 271 601 l 312 601 l 552 1010 l 751 1010 l 453 545 l 747 0 l 549 0 l 316 460 l 271 460 z "},"Λ":{"ha":788,"x_min":45,"x_max":744,"o":"m 573 0 l 398 857 l 210 0 l 45 0 l 289 1010 l 500 1010 l 744 0 l 573 0 z "},"Μ":{"ha":788,"x_min":76,"x_max":712,"o":"m 333 274 l 217 740 l 232 0 l 76 0 l 76 1010 l 254 1010 l 398 472 l 539 1010 l 712 1010 l 712 0 l 556 0 l 572 734 l 456 274 l 333 274 z "},"Ν":{"ha":788,"x_min":95,"x_max":693,"o":"m 479 0 l 246 779 l 246 0 l 95 0 l 95 1010 l 297 1010 l 542 215 l 542 1010 l 693 1010 l 693 0 l 479 0 z "},"Ξ":{"ha":788,"x_min":88,"x_max":701,"o":"m 88 870 l 88 1010 l 701 1010 l 701 870 l 88 870 m 114 475 l 114 615 l 674 615 l 674 475 l 114 475 m 88 0 l 88 140 l 701 140 l 701 0 l 88 0 z "},"Ο":{"ha":788,"x_min":88,"x_max":701,"o":"m 394 -13 q 167 76 245 -13 q 88 328 88 165 l 88 677 q 167 932 88 842 q 395 1023 246 1023 q 622 932 543 1023 q 701 677 701 842 l 701 328 q 622 76 701 165 q 394 -13 543 -13 m 394 128 q 494 174 466 128 q 523 337 523 220 l 523 668 q 494 836 523 789 q 394 883 466 883 q 294 836 323 883 q 265 668 265 789 l 265 337 q 294 174 265 220 q 394 128 323 128 z "},"Ό":{"ha":788,"x_min":-47,"x_max":703,"o":"m 396 -13 q 169 76 247 -13 q 91 328 91 165 l 91 677 q 170 932 91 842 q 398 1023 249 1023 q 624 932 545 1023 q 703 677 703 842 l 703 328 q 624 76 703 165 q 396 -13 545 -13 m 396 128 q 497 174 468 128 q 525 337 525 220 l 525 668 q 497 836 525 789 q 396 883 468 883 q 297 836 326 883 q 268 668 268 789 l 268 337 q 297 174 268 220 q 396 128 326 128 m -47 884 l 11 1136 l 231 1136 l 67 884 l -47 884 z "},"Π":{"ha":788,"x_min":95,"x_max":693,"o":"m 95 0 l 95 1010 l 693 1010 l 693 0 l 516 0 l 516 870 l 271 870 l 271 0 l 95 0 z "},"Ρ":{"ha":788,"x_min":95,"x_max":705,"o":"m 95 0 l 95 1010 l 413 1010 q 630 944 556 1010 q 705 740 705 878 l 705 601 q 631 400 705 463 q 413 337 558 337 l 271 337 l 271 0 l 95 0 m 271 473 l 403 473 q 498 504 468 473 q 528 612 528 535 l 528 730 q 498 838 528 807 q 403 870 468 870 l 271 870 l 271 473 z "},"Σ":{"ha":788,"x_min":100,"x_max":679,"o":"m 679 0 l 100 0 l 100 140 l 432 518 l 100 870 l 100 1010 l 679 1010 l 679 870 l 288 870 l 552 583 l 552 467 l 275 140 l 679 140 l 679 0 z "},"Τ":{"ha":788,"x_min":62,"x_max":727,"o":"m 306 0 l 306 870 l 62 870 l 62 1010 l 727 1010 l 727 870 l 482 870 l 482 0 l 306 0 z "},"Υ":{"ha":788,"x_min":34,"x_max":754,"o":"m 482 0 l 306 0 l 306 379 l 34 1010 l 213 1010 l 395 547 l 574 1010 l 754 1010 l 482 379 l 482 0 z "},"Ύ":{"ha":788,"x_min":-172,"x_max":754,"o":"m 482 0 l 306 0 l 306 379 l 34 1010 l 213 1010 l 395 547 l 574 1010 l 754 1010 l 482 379 l 482 0 m -172 884 l -114 1136 l 106 1136 l -58 884 l -172 884 z "},"Ϋ":{"ha":788,"x_min":34,"x_max":754,"o":"m 482 0 l 306 0 l 306 379 l 34 1010 l 213 1010 l 395 547 l 574 1010 l 754 1010 l 482 379 l 482 0 m 261 1140 q 195 1157 221 1140 q 169 1221 169 1174 l 169 1234 q 195 1299 169 1280 q 261 1317 221 1317 q 328 1299 303 1317 q 354 1234 354 1280 l 354 1221 q 328 1157 354 1174 q 261 1140 302 1140 m 527 1140 q 460 1157 485 1140 q 434 1221 434 1174 l 434 1234 q 460 1299 434 1280 q 527 1317 485 1317 q 593 1299 567 1317 q 619 1234 619 1280 l 619 1221 q 592 1157 619 1174 q 527 1140 566 1140 z "},"Φ":{"ha":788,"x_min":64,"x_max":723,"o":"m 486 114 l 467 114 l 467 -13 l 319 -13 l 319 114 l 302 114 q 124 196 184 114 q 64 426 64 279 l 64 580 q 124 812 64 727 q 302 896 184 896 l 319 896 l 319 1023 l 467 1023 l 467 896 l 486 896 q 664 812 604 896 q 723 580 723 727 l 723 426 q 664 196 723 279 q 486 114 604 114 m 489 761 l 462 761 l 462 249 l 489 249 q 553 293 533 249 q 573 426 573 337 l 573 580 q 553 715 573 669 q 489 761 533 761 m 301 249 l 324 249 l 324 761 l 301 761 q 235 715 255 761 q 215 580 215 669 l 215 426 q 235 293 215 337 q 301 249 255 249 z "},"Χ":{"ha":788,"x_min":49,"x_max":740,"o":"m 559 0 l 391 341 l 226 0 l 49 0 l 311 519 l 76 1010 l 261 1010 l 412 702 l 563 1010 l 740 1010 l 491 520 l 736 0 l 559 0 z "},"Ψ":{"ha":788,"x_min":80,"x_max":708,"o":"m 468 0 l 319 0 l 319 241 q 139 347 198 261 q 80 568 80 432 l 80 1010 l 227 1010 l 227 573 q 249 441 227 487 q 321 383 270 395 l 321 1010 l 467 1010 l 467 383 q 539 441 518 394 q 561 573 561 487 l 561 1010 l 708 1010 l 708 568 q 649 347 708 432 q 468 241 590 261 l 468 0 z "},"Ω":{"ha":788,"x_min":77,"x_max":711,"o":"m 356 0 l 77 0 l 77 126 l 201 126 l 201 245 q 106 347 135 279 q 77 510 77 415 l 77 668 q 158 932 77 841 q 394 1023 240 1023 q 629 932 548 1023 q 711 668 711 841 l 711 510 q 682 347 711 415 q 588 245 653 279 l 588 126 l 711 126 l 711 0 l 432 0 l 432 290 q 511 362 489 307 q 533 510 533 418 l 533 670 q 501 832 533 785 q 394 879 470 879 q 287 832 319 879 q 255 670 255 785 l 255 510 q 277 362 255 418 q 356 290 299 307 l 356 0 z "},"Ώ":{"ha":788,"x_min":-85,"x_max":711,"o":"m 356 0 l 77 0 l 77 126 l 201 126 l 201 245 q 106 347 135 279 q 77 510 77 415 l 77 668 q 158 932 77 841 q 394 1023 240 1023 q 629 932 548 1023 q 711 668 711 841 l 711 510 q 682 347 711 415 q 588 245 653 279 l 588 126 l 711 126 l 711 0 l 432 0 l 432 290 q 511 362 489 307 q 533 510 533 418 l 533 670 q 501 832 533 785 q 394 879 470 879 q 287 832 319 879 q 255 670 255 785 l 255 510 q 277 362 255 418 q 356 290 299 307 l 356 0 m -85 884 l -27 1136 l 193 1136 l 29 884 l -85 884 z "},"Ω":{"ha":788,"x_min":77,"x_max":711,"o":"m 356 0 l 77 0 l 77 126 l 201 126 l 201 245 q 106 347 135 279 q 77 510 77 415 l 77 668 q 158 932 77 841 q 394 1023 240 1023 q 629 932 548 1023 q 711 668 711 841 l 711 510 q 682 347 711 415 q 588 245 653 279 l 588 126 l 711 126 l 711 0 l 432 0 l 432 290 q 511 362 489 307 q 533 510 533 418 l 533 670 q 501 832 533 785 q 394 879 470 879 q 287 832 319 879 q 255 670 255 785 l 255 510 q 277 362 255 418 q 356 290 299 307 l 356 0 z "},"Ђ":{"ha":788,"x_min":43,"x_max":715,"o":"m 172 0 l 172 870 l 43 870 l 43 1010 l 540 1010 l 540 870 l 348 870 l 348 657 l 443 657 q 645 586 576 657 q 715 378 715 516 l 715 279 q 645 70 715 140 q 443 0 576 0 l 443 138 q 519 170 494 138 q 544 282 544 202 l 544 375 q 519 487 544 455 q 443 519 494 519 l 348 519 l 348 0 l 172 0 z "},"Є":{"ha":788,"x_min":88,"x_max":726,"o":"m 726 333 q 641 72 718 157 q 410 -13 564 -13 q 170 75 253 -13 q 88 333 88 163 l 88 672 q 170 934 88 845 q 410 1023 253 1023 q 641 938 564 1023 q 726 672 718 854 l 549 659 q 511 836 540 790 q 405 883 481 883 q 296 836 327 883 q 265 663 265 790 l 265 615 l 449 615 l 449 475 l 265 475 l 265 341 q 296 172 265 217 q 407 128 327 128 q 511 173 482 128 q 549 346 540 218 l 726 333 z "},"Ѕ":{"ha":788,"x_min":74,"x_max":713,"o":"m 386 -11 q 218 17 298 -11 q 74 98 138 45 l 121 234 q 247 157 182 184 q 393 129 313 129 q 501 167 465 129 q 537 268 537 205 q 498 365 537 332 q 352 438 460 398 q 151 559 208 492 q 93 735 93 625 q 172 940 93 862 q 390 1018 250 1018 q 545 989 470 1018 q 674 910 621 960 l 635 780 q 518 852 577 827 q 398 878 458 878 q 302 846 336 878 q 269 753 269 814 q 308 661 269 693 q 460 586 347 629 q 657 465 601 532 q 713 289 713 399 q 624 69 713 149 q 386 -11 535 -11 z "},"І":{"ha":788,"x_min":95,"x_max":693,"o":"m 95 0 l 95 140 l 306 140 l 306 870 l 95 870 l 95 1010 l 693 1010 l 693 870 l 482 870 l 482 140 l 693 140 l 693 0 l 95 0 z "},"Ї":{"ha":788,"x_min":95,"x_max":693,"o":"m 95 0 l 95 140 l 306 140 l 306 870 l 95 870 l 95 1010 l 693 1010 l 693 870 l 482 870 l 482 140 l 693 140 l 693 0 l 95 0 m 261 1140 q 195 1157 221 1140 q 169 1221 169 1174 l 169 1234 q 195 1299 169 1280 q 261 1317 221 1317 q 328 1299 303 1317 q 354 1234 354 1280 l 354 1221 q 328 1157 354 1174 q 261 1140 302 1140 m 527 1140 q 460 1157 485 1140 q 434 1221 434 1174 l 434 1234 q 460 1299 434 1280 q 527 1317 485 1317 q 593 1299 567 1317 q 619 1234 619 1280 l 619 1221 q 592 1157 619 1174 q 527 1140 566 1140 z "},"Ј":{"ha":788,"x_min":67,"x_max":679,"o":"m 379 -13 q 146 68 217 -13 q 67 337 74 149 l 244 351 q 280 172 253 216 q 376 128 307 128 q 472 171 441 128 q 503 313 503 215 l 503 870 l 269 870 l 269 1010 l 679 1010 l 679 316 q 605 73 679 159 q 379 -13 530 -13 z "},"Љ":{"ha":788,"x_min":8,"x_max":716,"o":"m 235 194 q 193 43 234 93 q 81 -8 153 -8 q 45 -4 63 -8 q 8 5 27 -1 l 28 141 q 44 136 37 139 q 61 134 52 134 q 87 154 77 134 q 98 226 97 174 l 107 1010 l 472 1010 l 472 673 l 529 673 q 669 610 622 673 q 716 422 716 548 l 716 258 q 669 64 716 129 q 529 0 622 0 l 333 0 l 333 879 l 242 879 l 235 194 m 472 131 l 510 131 q 561 163 544 131 q 577 270 577 194 l 577 408 q 561 513 577 482 q 510 544 544 544 l 472 544 l 472 131 z "},"Њ":{"ha":788,"x_min":73,"x_max":716,"o":"m 472 131 l 509 131 q 561 163 544 131 q 577 270 577 194 l 577 408 q 561 513 577 482 q 509 544 544 544 l 472 544 l 472 131 m 211 484 l 211 0 l 73 0 l 73 1010 l 211 1010 l 211 624 l 333 624 l 333 1010 l 472 1010 l 472 673 l 529 673 q 669 610 622 673 q 716 422 716 548 l 716 258 q 669 64 716 129 q 528 0 622 0 l 333 0 l 333 484 l 211 484 z "},"Ћ":{"ha":788,"x_min":39,"x_max":715,"o":"m 346 0 l 168 0 l 168 870 l 39 870 l 39 1010 l 544 1010 l 544 870 l 346 870 l 346 622 l 451 622 q 649 559 583 622 q 715 365 715 495 l 715 0 l 537 0 l 537 354 q 514 455 537 424 q 443 486 491 486 l 346 486 l 346 0 z "},"Џ":{"ha":788,"x_min":95,"x_max":693,"o":"m 306 -189 l 306 0 l 95 0 l 95 1010 l 271 1010 l 271 140 l 516 140 l 516 1010 l 693 1010 l 693 0 l 482 0 l 482 -189 l 306 -189 z "},"А":{"ha":788,"x_min":45,"x_max":744,"o":"m 490 408 l 398 857 l 299 408 l 490 408 m 573 0 l 518 269 l 269 269 l 210 0 l 45 0 l 289 1010 l 500 1010 l 744 0 l 573 0 z "},"Б":{"ha":788,"x_min":95,"x_max":708,"o":"m 95 0 l 95 1010 l 657 1010 l 657 870 l 271 870 l 271 611 l 429 611 q 636 544 563 611 q 708 351 708 476 l 708 277 q 636 73 708 145 q 431 0 563 0 l 95 0 m 271 140 l 409 140 q 503 173 473 140 q 532 284 532 206 l 532 332 q 503 441 532 409 q 409 473 473 473 l 271 473 l 271 140 z "},"В":{"ha":788,"x_min":95,"x_max":701,"o":"m 95 0 l 95 1010 l 404 1010 q 607 951 539 1010 q 676 773 676 891 l 676 721 q 643 608 676 650 q 544 553 610 566 l 544 516 q 660 455 619 508 q 701 321 701 402 l 701 261 q 626 66 701 131 q 404 0 552 0 l 95 0 m 271 590 l 388 590 q 473 618 447 590 q 500 711 500 646 l 500 755 q 473 847 500 818 q 388 875 447 875 l 271 875 l 271 590 m 271 135 l 395 135 q 494 168 463 135 q 524 274 524 201 l 524 323 q 494 428 524 395 q 395 461 463 461 l 271 461 l 271 135 z "},"Г":{"ha":788,"x_min":130,"x_max":715,"o":"m 130 0 l 130 1010 l 715 1010 l 715 870 l 308 870 l 308 0 l 130 0 z "},"Ѓ":{"ha":788,"x_min":130,"x_max":715,"o":"m 130 0 l 130 1010 l 715 1010 l 715 870 l 308 870 l 308 0 l 130 0 m 299 1136 l 422 1389 l 652 1389 l 424 1136 l 299 1136 z "},"Д":{"ha":788,"x_min":28,"x_max":742,"o":"m 270 169 l 270 140 l 489 140 l 489 870 l 319 870 l 317 384 q 306 254 316 307 q 270 169 295 201 m 192 0 l 192 -189 l 28 -189 l 28 140 l 96 140 q 140 225 125 167 q 155 390 154 283 l 160 1010 l 650 1010 l 650 140 l 742 140 l 742 -189 l 578 -189 l 578 0 l 192 0 z "},"Е":{"ha":788,"x_min":95,"x_max":701,"o":"m 95 0 l 95 1010 l 701 1010 l 701 870 l 271 870 l 271 615 l 648 615 l 648 475 l 271 475 l 271 140 l 701 140 l 701 0 l 95 0 z "},"Ѐ":{"ha":788,"x_min":95,"x_max":701,"o":"m 95 0 l 95 1010 l 701 1010 l 701 870 l 271 870 l 271 615 l 648 615 l 648 475 l 271 475 l 271 140 l 701 140 l 701 0 l 95 0 m 376 1136 l 150 1389 l 380 1389 l 501 1136 l 376 1136 z "},"Ё":{"ha":788,"x_min":95,"x_max":701,"o":"m 95 0 l 95 1010 l 701 1010 l 701 870 l 271 870 l 271 615 l 648 615 l 648 475 l 271 475 l 271 140 l 701 140 l 701 0 l 95 0 m 279 1140 q 213 1157 239 1140 q 187 1221 187 1174 l 187 1234 q 213 1299 187 1280 q 279 1317 239 1317 q 346 1299 321 1317 q 371 1234 371 1280 l 371 1221 q 345 1157 371 1174 q 279 1140 319 1140 m 544 1140 q 477 1157 503 1140 q 452 1221 452 1174 l 452 1234 q 477 1299 452 1280 q 544 1317 503 1317 q 610 1299 585 1317 q 636 1234 636 1280 l 636 1221 q 610 1157 636 1174 q 544 1140 583 1140 z "},"Ж":{"ha":788,"x_min":38,"x_max":751,"o":"m 284 468 l 182 0 l 39 0 l 179 559 l 38 1010 l 181 1010 l 289 591 l 328 591 l 328 1010 l 460 1010 l 460 591 l 500 591 l 607 1010 l 751 1010 l 616 556 l 749 0 l 606 0 l 505 468 l 460 468 l 460 0 l 328 0 l 328 468 l 284 468 z "},"З":{"ha":788,"x_min":77,"x_max":701,"o":"m 393 -13 q 162 59 239 -13 q 77 282 85 131 l 255 294 q 295 160 264 196 q 393 125 326 125 q 494 159 465 125 q 523 269 523 193 l 523 319 q 491 432 523 399 q 386 465 458 465 l 282 465 l 282 604 l 386 604 q 477 627 451 604 q 503 715 503 650 l 503 768 q 476 859 503 832 q 388 885 449 885 q 306 853 330 885 q 275 739 283 821 l 98 751 q 177 956 106 890 q 390 1023 247 1023 q 605 961 532 1023 q 679 777 679 900 l 679 735 q 635 609 679 655 q 521 554 591 563 l 521 518 q 650 451 598 509 q 701 304 701 394 l 701 266 q 626 57 701 128 q 393 -13 551 -13 z "},"И":{"ha":788,"x_min":95,"x_max":693,"o":"m 538 0 l 538 777 l 311 0 l 95 0 l 95 1010 l 250 1010 l 250 216 l 492 1010 l 693 1010 l 693 0 l 538 0 z "},"Ѝ":{"ha":788,"x_min":95,"x_max":693,"o":"m 538 0 l 538 777 l 311 0 l 95 0 l 95 1010 l 250 1010 l 250 216 l 492 1010 l 693 1010 l 693 0 l 538 0 m 362 1136 l 136 1389 l 366 1389 l 487 1136 l 362 1136 z "},"Й":{"ha":788,"x_min":95,"x_max":693,"o":"m 538 0 l 538 777 l 311 0 l 95 0 l 95 1010 l 250 1010 l 250 216 l 492 1010 l 693 1010 l 693 0 l 538 0 m 398 1128 q 211 1191 284 1128 q 138 1393 138 1254 l 294 1405 q 316 1282 293 1318 q 398 1245 338 1245 q 480 1282 457 1245 q 501 1405 503 1318 l 658 1393 q 585 1191 658 1254 q 398 1128 511 1128 z "},"К":{"ha":788,"x_min":95,"x_max":751,"o":"m 271 460 l 271 0 l 95 0 l 95 1010 l 271 1010 l 271 601 l 312 601 l 552 1010 l 751 1010 l 453 545 l 747 0 l 549 0 l 316 460 l 271 460 z "},"Ќ":{"ha":788,"x_min":95,"x_max":751,"o":"m 271 460 l 271 0 l 95 0 l 95 1010 l 271 1010 l 271 601 l 312 601 l 552 1010 l 751 1010 l 453 545 l 747 0 l 549 0 l 316 460 l 271 460 m 332 1136 l 455 1389 l 684 1389 l 457 1136 l 332 1136 z "},"Л":{"ha":788,"x_min":24,"x_max":693,"o":"m 516 0 l 516 870 l 346 870 l 343 298 q 288 64 342 141 q 129 -14 234 -14 q 77 -9 104 -14 q 24 4 51 -5 l 45 143 q 73 134 59 138 q 100 130 87 130 q 151 170 134 130 q 168 314 168 211 l 173 1010 l 693 1010 l 693 0 l 516 0 z "},"М":{"ha":788,"x_min":76,"x_max":712,"o":"m 333 274 l 217 740 l 232 0 l 76 0 l 76 1010 l 254 1010 l 398 472 l 539 1010 l 712 1010 l 712 0 l 556 0 l 572 734 l 456 274 l 333 274 z "},"Н":{"ha":788,"x_min":95,"x_max":693,"o":"m 95 0 l 95 1010 l 271 1010 l 271 624 l 516 624 l 516 1010 l 693 1010 l 693 0 l 516 0 l 516 484 l 271 484 l 271 0 l 95 0 z "},"О":{"ha":788,"x_min":88,"x_max":701,"o":"m 394 -13 q 167 76 245 -13 q 88 328 88 165 l 88 677 q 167 932 88 842 q 395 1023 246 1023 q 622 932 543 1023 q 701 677 701 842 l 701 328 q 622 76 701 165 q 394 -13 543 -13 m 394 128 q 494 174 466 128 q 523 337 523 220 l 523 668 q 494 836 523 789 q 394 883 466 883 q 294 836 323 883 q 265 668 265 789 l 265 337 q 294 174 265 220 q 394 128 323 128 z "},"П":{"ha":788,"x_min":95,"x_max":693,"o":"m 95 0 l 95 1010 l 693 1010 l 693 0 l 516 0 l 516 870 l 271 870 l 271 0 l 95 0 z "},"Р":{"ha":788,"x_min":95,"x_max":705,"o":"m 95 0 l 95 1010 l 413 1010 q 630 944 556 1010 q 705 740 705 878 l 705 601 q 631 400 705 463 q 413 337 558 337 l 271 337 l 271 0 l 95 0 m 271 473 l 403 473 q 498 504 468 473 q 528 612 528 535 l 528 730 q 498 838 528 807 q 403 870 468 870 l 271 870 l 271 473 z "},"С":{"ha":788,"x_min":88,"x_max":726,"o":"m 410 -13 q 169 74 249 -13 q 88 333 88 160 l 88 672 q 169 934 88 846 q 410 1023 250 1023 q 643 939 568 1023 q 726 672 717 855 l 549 659 q 512 836 542 790 q 409 883 482 883 q 297 833 330 883 q 265 663 265 784 l 265 341 q 297 177 265 227 q 409 128 330 128 q 511 172 482 128 q 549 346 540 217 l 726 333 q 643 70 718 153 q 410 -13 568 -13 z "},"Т":{"ha":788,"x_min":62,"x_max":727,"o":"m 306 0 l 306 870 l 62 870 l 62 1010 l 727 1010 l 727 870 l 482 870 l 482 0 l 306 0 z "},"У":{"ha":788,"x_min":57,"x_max":730,"o":"m 211 -4 q 146 1 179 -4 q 81 11 114 5 l 100 152 q 156 140 130 144 q 202 136 182 136 q 287 164 256 136 q 333 251 317 191 l 338 274 l 278 274 l 57 1010 l 231 1010 l 391 462 l 557 1010 l 730 1010 l 481 203 q 378 45 446 93 q 211 -4 309 -4 z "},"Ў":{"ha":788,"x_min":57,"x_max":730,"o":"m 211 -4 q 146 1 179 -4 q 81 11 114 5 l 100 152 q 156 140 130 144 q 202 136 182 136 q 287 164 256 136 q 333 251 317 191 l 338 274 l 278 274 l 57 1010 l 231 1010 l 391 462 l 557 1010 l 730 1010 l 481 203 q 378 45 446 93 q 211 -4 309 -4 m 394 1128 q 207 1191 280 1128 q 134 1393 134 1254 l 290 1405 q 312 1282 289 1318 q 394 1245 335 1245 q 476 1282 453 1245 q 497 1405 499 1318 l 654 1393 q 581 1191 654 1254 q 394 1128 508 1128 z "},"Ф":{"ha":788,"x_min":64,"x_max":723,"o":"m 486 114 l 467 114 l 467 -13 l 319 -13 l 319 114 l 302 114 q 124 196 184 114 q 64 426 64 279 l 64 580 q 124 812 64 727 q 302 896 184 896 l 319 896 l 319 1023 l 467 1023 l 467 896 l 486 896 q 664 812 604 896 q 723 580 723 727 l 723 426 q 664 196 723 279 q 486 114 604 114 m 489 761 l 462 761 l 462 249 l 489 249 q 553 293 533 249 q 573 426 573 337 l 573 580 q 553 715 573 669 q 489 761 533 761 m 301 249 l 324 249 l 324 761 l 301 761 q 235 715 255 761 q 215 580 215 669 l 215 426 q 235 293 215 337 q 301 249 255 249 z "},"Х":{"ha":788,"x_min":49,"x_max":740,"o":"m 559 0 l 391 341 l 226 0 l 49 0 l 311 519 l 76 1010 l 261 1010 l 412 702 l 563 1010 l 740 1010 l 491 520 l 736 0 l 559 0 z "},"Ц":{"ha":788,"x_min":95,"x_max":746,"o":"m 569 -189 l 569 0 l 95 0 l 95 1010 l 271 1010 l 271 140 l 479 140 l 479 1010 l 655 1010 l 655 140 l 746 140 l 746 -189 l 569 -189 z "},"Ч":{"ha":788,"x_min":91,"x_max":689,"o":"m 689 1010 l 689 0 l 513 0 l 513 341 l 390 341 q 164 408 236 341 q 91 620 91 476 l 91 1010 l 268 1010 l 268 622 q 298 512 268 547 q 390 477 328 477 l 513 477 l 513 1010 l 689 1010 z "},"Ш":{"ha":788,"x_min":67,"x_max":721,"o":"m 67 0 l 67 1010 l 216 1010 l 216 133 l 322 133 l 322 1010 l 466 1010 l 466 133 l 572 133 l 572 1010 l 721 1010 l 721 0 l 67 0 z "},"Щ":{"ha":788,"x_min":67,"x_max":766,"o":"m 766 -211 l 612 -211 l 612 0 l 67 0 l 67 1010 l 216 1010 l 216 133 l 322 133 l 322 1010 l 466 1010 l 466 133 l 572 133 l 572 1010 l 721 1010 l 721 133 l 766 133 l 766 -211 z "},"Ъ":{"ha":788,"x_min":28,"x_max":717,"o":"m 456 0 l 186 0 l 186 870 l 28 870 l 28 1010 l 359 1010 l 359 673 l 456 673 q 653 608 588 673 q 717 408 717 543 l 717 270 q 653 66 717 133 q 456 0 588 0 m 359 140 l 436 140 q 519 173 494 140 q 544 283 544 206 l 544 395 q 519 504 544 471 q 436 537 494 537 l 359 537 l 359 140 z "},"Ы":{"ha":788,"x_min":78,"x_max":710,"o":"m 78 0 l 78 1010 l 226 1010 l 226 673 l 263 673 q 430 609 375 673 q 485 413 485 544 l 485 266 q 430 66 485 131 q 263 0 375 0 l 78 0 m 562 0 l 562 1010 l 710 1010 l 710 0 l 562 0 m 226 133 l 260 133 q 321 165 302 133 q 341 278 341 198 l 341 400 q 321 511 341 479 q 260 544 302 544 l 226 544 l 226 133 z "},"Ь":{"ha":788,"x_min":95,"x_max":725,"o":"m 95 0 l 95 1010 l 271 1010 l 271 673 l 436 673 q 653 608 581 673 q 725 410 725 543 l 725 269 q 653 67 725 134 q 434 0 581 0 l 95 0 m 271 140 l 412 140 q 514 172 480 140 q 548 280 548 205 l 548 398 q 514 505 548 473 q 412 537 480 537 l 271 537 l 271 140 z "},"Э":{"ha":788,"x_min":83,"x_max":722,"o":"m 400 -13 q 169 72 247 -13 q 83 333 91 157 l 260 346 q 297 174 269 221 q 403 128 326 128 q 515 179 485 128 q 544 341 544 230 l 544 475 l 342 475 l 342 615 l 544 615 l 544 663 q 513 835 544 788 q 403 883 482 883 q 298 835 327 883 q 260 659 269 787 l 83 672 q 169 936 91 850 q 399 1023 247 1023 q 643 932 563 1023 q 722 672 722 842 l 722 333 q 643 76 722 165 q 400 -13 564 -13 z "},"Ю":{"ha":788,"x_min":67,"x_max":721,"o":"m 509 -13 q 352 65 405 -13 q 299 282 299 143 l 299 479 l 215 479 l 215 0 l 67 0 l 67 1010 l 215 1010 l 215 611 l 299 611 l 299 720 q 353 943 299 864 q 510 1023 407 1023 q 668 943 615 1023 q 721 720 721 864 l 721 282 q 667 65 721 143 q 509 -13 614 -13 m 509 124 q 558 160 544 124 q 572 282 572 196 l 572 720 q 558 847 572 809 q 509 885 544 885 q 459 847 473 885 q 444 720 444 809 l 444 282 q 459 160 444 196 q 509 124 473 124 z "},"Я":{"ha":788,"x_min":61,"x_max":693,"o":"m 378 516 l 516 516 l 516 870 l 378 870 q 284 838 313 870 q 255 735 255 807 l 255 658 q 284 549 255 582 q 378 516 313 516 m 516 379 l 426 379 l 251 0 l 61 0 l 249 396 q 126 485 167 420 q 85 657 85 551 l 85 740 q 152 943 85 875 q 355 1010 220 1010 l 693 1010 l 693 0 l 516 0 l 516 379 z "},"Ґ":{"ha":788,"x_min":130,"x_max":715,"o":"m 130 0 l 130 1010 l 538 1010 l 538 1199 l 715 1199 l 715 870 l 308 870 l 308 0 l 130 0 z "},"a":{"ha":788,"x_min":77,"x_max":739,"o":"m 326 111 q 402 128 369 111 q 463 183 436 145 l 463 314 l 323 314 q 261 292 282 314 q 240 212 240 270 q 260 138 240 164 q 326 111 280 111 m 283 -13 q 134 45 192 -13 q 77 205 77 104 q 138 364 77 307 q 297 420 198 420 l 463 420 l 463 529 q 437 610 463 583 q 357 638 412 638 q 277 612 303 638 q 237 514 251 586 l 92 544 q 179 717 115 663 q 362 770 242 770 q 562 715 490 770 q 634 539 634 659 l 634 211 q 660 138 634 153 q 739 134 687 124 l 739 0 q 600 8 654 -18 q 532 111 547 34 l 504 111 q 414 23 472 59 q 283 -13 355 -13 z "},"à":{"ha":788,"x_min":77,"x_max":739,"o":"m 326 111 q 402 128 369 111 q 463 183 436 145 l 463 314 l 323 314 q 261 292 282 314 q 240 212 240 270 q 260 138 240 164 q 326 111 280 111 m 283 -13 q 134 45 192 -13 q 77 205 77 104 q 138 364 77 307 q 297 420 198 420 l 463 420 l 463 529 q 437 610 463 583 q 357 638 412 638 q 277 612 303 638 q 237 514 251 586 l 92 544 q 179 717 115 663 q 362 770 242 770 q 562 715 490 770 q 634 539 634 659 l 634 211 q 660 138 634 153 q 739 134 687 124 l 739 0 q 600 8 654 -18 q 532 111 547 34 l 504 111 q 414 23 472 59 q 283 -13 355 -13 m 366 884 l 140 1136 l 370 1136 l 491 884 l 366 884 z "},"á":{"ha":788,"x_min":77,"x_max":739,"o":"m 326 111 q 402 128 369 111 q 463 183 436 145 l 463 314 l 323 314 q 261 292 282 314 q 240 212 240 270 q 260 138 240 164 q 326 111 280 111 m 283 -13 q 134 45 192 -13 q 77 205 77 104 q 138 364 77 307 q 297 420 198 420 l 463 420 l 463 529 q 437 610 463 583 q 357 638 412 638 q 277 612 303 638 q 237 514 251 586 l 92 544 q 179 717 115 663 q 362 770 242 770 q 562 715 490 770 q 634 539 634 659 l 634 211 q 660 138 634 153 q 739 134 687 124 l 739 0 q 600 8 654 -18 q 532 111 547 34 l 504 111 q 414 23 472 59 q 283 -13 355 -13 m 245 884 l 367 1136 l 597 1136 l 370 884 l 245 884 z "},"â":{"ha":788,"x_min":77,"x_max":739,"o":"m 326 111 q 402 128 369 111 q 463 183 436 145 l 463 314 l 323 314 q 261 292 282 314 q 240 212 240 270 q 260 138 240 164 q 326 111 280 111 m 283 -13 q 134 45 192 -13 q 77 205 77 104 q 138 364 77 307 q 297 420 198 420 l 463 420 l 463 529 q 437 610 463 583 q 357 638 412 638 q 277 612 303 638 q 237 514 251 586 l 92 544 q 179 717 115 663 q 362 770 242 770 q 562 715 490 770 q 634 539 634 659 l 634 211 q 660 138 634 153 q 739 134 687 124 l 739 0 q 600 8 654 -18 q 532 111 547 34 l 504 111 q 414 23 472 59 q 283 -13 355 -13 m 183 884 l 121 970 l 316 1162 l 449 1162 l 646 970 l 586 885 l 383 1023 l 183 884 z "},"ã":{"ha":788,"x_min":77,"x_max":739,"o":"m 326 111 q 402 128 369 111 q 463 183 436 145 l 463 314 l 323 314 q 261 292 282 314 q 240 212 240 270 q 260 138 240 164 q 326 111 280 111 m 283 -13 q 134 45 192 -13 q 77 205 77 104 q 138 364 77 307 q 297 420 198 420 l 463 420 l 463 529 q 437 610 463 583 q 357 638 412 638 q 277 612 303 638 q 237 514 251 586 l 92 544 q 179 717 115 663 q 362 770 242 770 q 562 715 490 770 q 634 539 634 659 l 634 211 q 660 138 634 153 q 739 134 687 124 l 739 0 q 600 8 654 -18 q 532 111 547 34 l 504 111 q 414 23 472 59 q 283 -13 355 -13 m 475 896 q 403 917 431 896 q 356 965 376 937 q 325 1011 340 990 q 290 1032 311 1032 q 258 1009 270 1032 q 246 929 245 987 l 246 909 l 129 909 l 129 928 q 171 1093 129 1029 q 289 1158 213 1158 q 359 1138 332 1158 q 407 1090 386 1119 q 437 1043 423 1064 q 470 1021 452 1021 q 503 1044 490 1021 q 515 1125 515 1067 l 515 1145 l 633 1145 l 633 1126 q 591 960 633 1024 q 475 896 549 896 z "},"ä":{"ha":788,"x_min":77,"x_max":739,"o":"m 326 111 q 402 128 369 111 q 463 183 436 145 l 463 314 l 323 314 q 261 292 282 314 q 240 212 240 270 q 260 138 240 164 q 326 111 280 111 m 283 -13 q 134 45 192 -13 q 77 205 77 104 q 138 364 77 307 q 297 420 198 420 l 463 420 l 463 529 q 437 610 463 583 q 357 638 412 638 q 277 612 303 638 q 237 514 251 586 l 92 544 q 179 717 115 663 q 362 770 242 770 q 562 715 490 770 q 634 539 634 659 l 634 211 q 660 138 634 153 q 739 134 687 124 l 739 0 q 600 8 654 -18 q 532 111 547 34 l 504 111 q 414 23 472 59 q 283 -13 355 -13 m 247 888 q 181 905 207 888 q 155 968 155 922 l 155 981 q 181 1046 155 1028 q 247 1064 207 1064 q 314 1046 289 1064 q 340 981 340 1028 l 340 968 q 314 905 340 922 q 247 888 288 888 m 513 888 q 446 905 471 888 q 420 968 420 922 l 420 981 q 446 1046 420 1028 q 513 1064 471 1064 q 579 1046 553 1064 q 605 981 605 1028 l 605 968 q 578 905 605 922 q 513 888 552 888 z "},"å":{"ha":788,"x_min":77,"x_max":739,"o":"m 326 111 q 402 128 369 111 q 463 183 436 145 l 463 314 l 323 314 q 261 292 282 314 q 240 212 240 270 q 260 138 240 164 q 326 111 280 111 m 283 -13 q 134 45 192 -13 q 77 205 77 104 q 138 364 77 307 q 297 420 198 420 l 463 420 l 463 529 q 437 610 463 583 q 357 638 412 638 q 277 612 303 638 q 237 514 251 586 l 92 544 q 179 717 115 663 q 362 770 242 770 q 562 715 490 770 q 634 539 634 659 l 634 211 q 660 138 634 153 q 739 134 687 124 l 739 0 q 600 8 654 -18 q 532 111 547 34 l 504 111 q 414 23 472 59 q 283 -13 355 -13 m 374 861 q 226 907 283 861 q 169 1048 169 952 l 169 1088 q 226 1232 169 1186 q 374 1279 283 1279 q 522 1232 466 1279 q 578 1088 578 1186 l 578 1048 q 521 907 578 952 q 374 861 465 861 m 374 958 q 433 979 413 958 q 453 1048 453 1000 l 453 1088 q 433 1158 453 1135 q 374 1182 413 1182 q 314 1158 335 1182 q 294 1088 294 1135 l 294 1048 q 314 979 294 1000 q 374 958 335 958 z "},"ā":{"ha":788,"x_min":77,"x_max":739,"o":"m 326 111 q 402 128 369 111 q 463 183 436 145 l 463 314 l 323 314 q 261 292 282 314 q 240 212 240 270 q 260 138 240 164 q 326 111 280 111 m 283 -13 q 134 45 192 -13 q 77 205 77 104 q 138 364 77 307 q 297 420 198 420 l 463 420 l 463 529 q 437 610 463 583 q 357 638 412 638 q 277 612 303 638 q 237 514 251 586 l 92 544 q 179 717 115 663 q 362 770 242 770 q 562 715 490 770 q 634 539 634 659 l 634 211 q 660 138 634 153 q 739 134 687 124 l 739 0 q 600 8 654 -18 q 532 111 547 34 l 504 111 q 414 23 472 59 q 283 -13 355 -13 m 145 941 l 145 1080 l 602 1080 l 602 941 l 145 941 z "},"ă":{"ha":788,"x_min":77,"x_max":739,"o":"m 326 111 q 402 128 369 111 q 463 183 436 145 l 463 314 l 323 314 q 261 292 282 314 q 240 212 240 270 q 260 138 240 164 q 326 111 280 111 m 283 -13 q 134 45 192 -13 q 77 205 77 104 q 138 364 77 307 q 297 420 198 420 l 463 420 l 463 529 q 437 610 463 583 q 357 638 412 638 q 277 612 303 638 q 237 514 251 586 l 92 544 q 179 717 115 663 q 362 770 242 770 q 562 715 490 770 q 634 539 634 659 l 634 211 q 660 138 634 153 q 739 134 687 124 l 739 0 q 600 8 654 -18 q 532 111 547 34 l 504 111 q 414 23 472 59 q 283 -13 355 -13 m 374 875 q 174 943 242 875 q 104 1153 105 1010 l 253 1153 q 282 1028 254 1063 q 374 992 309 992 q 466 1028 438 992 q 495 1153 494 1063 l 644 1153 q 574 943 643 1010 q 374 875 505 875 z "},"ą":{"ha":788,"x_min":77,"x_max":782,"o":"m 326 111 q 402 128 369 111 q 463 183 436 145 l 463 314 l 323 314 q 261 292 282 314 q 240 212 240 270 q 260 138 240 164 q 326 111 280 111 m 283 -13 q 134 45 192 -13 q 77 205 77 104 q 138 364 77 307 q 297 420 198 420 l 463 420 l 463 529 q 437 610 463 583 q 357 638 412 638 q 277 612 303 638 q 237 514 251 586 l 92 544 q 179 717 115 663 q 362 770 242 770 q 562 715 490 770 q 634 539 634 659 l 634 211 q 660 138 634 153 q 739 134 687 124 l 739 0 q 600 8 654 -18 q 532 111 547 34 l 504 111 q 414 23 472 59 q 283 -13 355 -13 m 655 -275 q 523 -235 572 -275 q 475 -121 475 -194 q 522 -3 475 -56 q 633 72 569 49 l 660 29 q 616 -23 628 5 q 605 -80 605 -52 q 624 -131 605 -114 q 683 -148 644 -148 q 728 -144 702 -148 q 782 -135 754 -140 l 782 -261 q 717 -271 750 -268 q 655 -275 683 -275 z "},"ǻ":{"ha":788,"x_min":77,"x_max":739,"o":"m 326 111 q 402 128 369 111 q 463 183 436 145 l 463 314 l 323 314 q 261 292 282 314 q 240 212 240 270 q 260 138 240 164 q 326 111 280 111 m 283 -13 q 134 45 192 -13 q 77 205 77 104 q 138 364 77 307 q 297 420 198 420 l 463 420 l 463 529 q 437 610 463 583 q 357 638 412 638 q 277 612 303 638 q 237 514 251 586 l 92 544 q 179 717 115 663 q 362 770 242 770 q 562 715 490 770 q 634 539 634 659 l 634 211 q 660 138 634 153 q 739 134 687 124 l 739 0 q 600 8 654 -18 q 532 111 547 34 l 504 111 q 414 23 472 59 q 283 -13 355 -13 m 374 861 q 226 907 283 861 q 169 1048 169 952 l 169 1088 q 226 1232 169 1186 q 374 1279 283 1279 q 522 1232 466 1279 q 578 1088 578 1186 l 578 1048 q 521 907 578 952 q 374 861 465 861 m 374 958 q 433 979 413 958 q 453 1048 453 1000 l 453 1088 q 433 1158 453 1135 q 374 1182 413 1182 q 314 1158 335 1182 q 294 1088 294 1135 l 294 1048 q 314 979 294 1000 q 374 958 335 958 m 294 1263 l 417 1515 l 646 1515 l 419 1263 l 294 1263 z "},"b":{"ha":788,"x_min":102,"x_max":686,"o":"m 386 -11 q 232 11 308 -11 q 102 72 155 34 l 102 1010 l 279 1010 l 279 644 l 311 644 q 380 738 332 706 q 495 770 428 770 q 636 700 587 770 q 686 511 686 630 l 686 260 q 609 59 686 129 q 386 -11 532 -11 m 394 122 q 482 155 455 122 q 509 261 509 187 l 509 494 q 486 595 509 563 q 418 626 463 626 q 345 604 379 626 q 279 534 311 582 l 279 157 q 331 131 304 140 q 394 122 359 122 z "},"":{"ha":788,"x_min":102,"x_max":686,"o":"m 386 -11 q 232 11 308 -11 q 102 72 155 34 l 102 1010 l 279 1010 l 279 644 l 311 644 q 380 738 332 706 q 495 770 428 770 q 636 700 587 770 q 686 511 686 630 l 686 260 q 609 59 686 129 q 386 -11 532 -11 m 394 122 q 482 155 455 122 q 509 261 509 187 l 509 494 q 486 595 509 563 q 418 626 463 626 q 345 604 379 626 q 279 534 311 582 l 279 157 q 331 131 304 140 q 394 122 359 122 z "},"c":{"ha":788,"x_min":102,"x_max":691,"o":"m 405 -13 q 179 59 256 -13 q 102 261 102 130 l 102 495 q 180 698 102 626 q 404 770 258 770 q 609 703 539 770 q 691 501 678 636 l 520 490 q 487 603 515 572 q 399 634 460 634 q 308 601 337 634 q 279 489 279 568 l 279 266 q 308 155 279 188 q 402 122 337 122 q 489 148 462 122 q 520 242 515 174 l 691 231 q 616 47 683 107 q 405 -13 548 -13 z "},"ç":{"ha":788,"x_min":102,"x_max":691,"o":"m 405 -13 q 179 59 256 -13 q 102 261 102 130 l 102 495 q 180 698 102 626 q 404 770 258 770 q 609 703 539 770 q 691 501 678 636 l 520 490 q 487 603 515 572 q 399 634 460 634 q 308 601 337 634 q 279 489 279 568 l 279 266 q 308 155 279 188 q 402 122 337 122 q 489 148 462 122 q 520 242 515 174 l 691 231 q 616 47 683 107 q 405 -13 548 -13 m 394 0 l 414 53 q 548 2 500 42 q 596 -114 596 -38 q 537 -237 596 -197 q 391 -277 477 -277 q 242 -241 298 -277 q 181 -130 186 -206 l 331 -117 q 344 -151 332 -141 q 384 -160 356 -160 q 429 -146 414 -160 q 443 -88 443 -131 q 432 -29 443 -48 q 394 0 422 -10 z "},"ć":{"ha":788,"x_min":102,"x_max":691,"o":"m 405 -13 q 179 59 256 -13 q 102 261 102 130 l 102 495 q 180 698 102 626 q 404 770 258 770 q 609 703 539 770 q 691 501 678 636 l 520 490 q 487 603 515 572 q 399 634 460 634 q 308 601 337 634 q 279 489 279 568 l 279 266 q 308 155 279 188 q 402 122 337 122 q 489 148 462 122 q 520 242 515 174 l 691 231 q 616 47 683 107 q 405 -13 548 -13 m 294 884 l 417 1136 l 646 1136 l 419 884 l 294 884 z "},"ĉ":{"ha":788,"x_min":102,"x_max":691,"o":"m 405 -13 q 179 59 256 -13 q 102 261 102 130 l 102 495 q 180 698 102 626 q 404 770 258 770 q 609 703 539 770 q 691 501 678 636 l 520 490 q 487 603 515 572 q 399 634 460 634 q 308 601 337 634 q 279 489 279 568 l 279 266 q 308 155 279 188 q 402 122 337 122 q 489 148 462 122 q 520 242 515 174 l 691 231 q 616 47 683 107 q 405 -13 548 -13 m 203 884 l 141 970 l 336 1162 l 470 1162 l 667 970 l 606 885 l 403 1023 l 203 884 z "},"ċ":{"ha":788,"x_min":102,"x_max":691,"o":"m 405 -13 q 179 59 256 -13 q 102 261 102 130 l 102 495 q 180 698 102 626 q 404 770 258 770 q 609 703 539 770 q 691 501 678 636 l 520 490 q 487 603 515 572 q 399 634 460 634 q 308 601 337 634 q 279 489 279 568 l 279 266 q 308 155 279 188 q 402 122 337 122 q 489 148 462 122 q 520 242 515 174 l 691 231 q 616 47 683 107 q 405 -13 548 -13 m 400 888 q 313 905 346 888 q 279 968 279 922 l 279 981 q 313 1046 279 1028 q 400 1064 346 1064 q 488 1046 455 1064 q 521 981 521 1028 l 521 968 q 487 905 521 922 q 400 888 453 888 z "},"č":{"ha":788,"x_min":102,"x_max":691,"o":"m 405 -13 q 179 59 256 -13 q 102 261 102 130 l 102 495 q 180 698 102 626 q 404 770 258 770 q 609 703 539 770 q 691 501 678 636 l 520 490 q 487 603 515 572 q 399 634 460 634 q 308 601 337 634 q 279 489 279 568 l 279 266 q 308 155 279 188 q 402 122 337 122 q 489 148 462 122 q 520 242 515 174 l 691 231 q 616 47 683 107 q 405 -13 548 -13 m 335 889 l 138 1081 l 198 1167 l 402 1029 l 601 1167 l 663 1081 l 468 889 l 335 889 z "},"d":{"ha":788,"x_min":102,"x_max":686,"o":"m 370 131 q 444 154 410 131 q 509 223 477 177 l 509 593 q 453 625 481 615 q 394 635 426 635 q 306 602 333 635 q 279 496 279 568 l 279 264 q 302 164 279 196 q 370 131 324 131 m 477 114 q 410 22 457 57 q 297 -13 364 -13 q 152 59 202 -13 q 102 246 102 131 l 102 497 q 172 697 102 625 q 366 769 242 769 q 441 760 404 769 q 509 735 477 751 l 509 1010 l 686 1010 l 686 0 l 509 0 l 509 114 l 477 114 z "},"ď":{"ha":788,"x_min":102,"x_max":1051,"o":"m 370 131 q 444 154 410 131 q 509 223 477 177 l 509 593 q 453 625 481 615 q 394 635 426 635 q 306 602 333 635 q 279 496 279 568 l 279 264 q 302 164 279 196 q 370 131 324 131 m 477 114 q 410 22 457 57 q 297 -13 364 -13 q 152 59 202 -13 q 102 246 102 131 l 102 497 q 172 697 102 625 q 366 769 242 769 q 441 760 404 769 q 509 735 477 751 l 509 1010 l 686 1010 l 686 0 l 509 0 l 509 114 l 477 114 m 759 890 l 823 1263 l 1051 1263 l 864 890 l 759 890 z "},"e":{"ha":788,"x_min":102,"x_max":693,"o":"m 693 170 q 597 30 662 72 q 402 -13 532 -13 q 184 57 265 -13 q 102 259 102 128 l 102 500 q 182 700 102 630 q 395 770 263 770 q 607 698 529 770 q 686 489 686 626 l 686 345 l 279 345 l 279 253 q 309 146 279 181 q 405 112 338 112 q 495 135 463 112 q 543 213 527 158 l 693 170 m 279 509 l 279 451 l 509 451 l 509 500 q 482 614 509 580 q 394 648 456 648 q 306 615 332 648 q 279 509 279 582 z "},"è":{"ha":788,"x_min":102,"x_max":693,"o":"m 693 170 q 597 30 662 72 q 402 -13 532 -13 q 184 57 265 -13 q 102 259 102 128 l 102 500 q 182 700 102 630 q 395 770 263 770 q 607 698 529 770 q 686 489 686 626 l 686 345 l 279 345 l 279 253 q 309 146 279 181 q 405 112 338 112 q 495 135 463 112 q 543 213 527 158 l 693 170 m 279 509 l 279 451 l 509 451 l 509 500 q 482 614 509 580 q 394 648 456 648 q 306 615 332 648 q 279 509 279 582 m 384 884 l 158 1136 l 388 1136 l 509 884 l 384 884 z "},"é":{"ha":788,"x_min":102,"x_max":693,"o":"m 693 170 q 597 30 662 72 q 402 -13 532 -13 q 184 57 265 -13 q 102 259 102 128 l 102 500 q 182 700 102 630 q 395 770 263 770 q 607 698 529 770 q 686 489 686 626 l 686 345 l 279 345 l 279 253 q 309 146 279 181 q 405 112 338 112 q 495 135 463 112 q 543 213 527 158 l 693 170 m 279 509 l 279 451 l 509 451 l 509 500 q 482 614 509 580 q 394 648 456 648 q 306 615 332 648 q 279 509 279 582 m 277 884 l 399 1136 l 629 1136 l 402 884 l 277 884 z "},"ê":{"ha":788,"x_min":102,"x_max":693,"o":"m 693 170 q 597 30 662 72 q 402 -13 532 -13 q 184 57 265 -13 q 102 259 102 128 l 102 500 q 182 700 102 630 q 395 770 263 770 q 607 698 529 770 q 686 489 686 626 l 686 345 l 279 345 l 279 253 q 309 146 279 181 q 405 112 338 112 q 495 135 463 112 q 543 213 527 158 l 693 170 m 279 509 l 279 451 l 509 451 l 509 500 q 482 614 509 580 q 394 648 456 648 q 306 615 332 648 q 279 509 279 582 m 197 884 l 135 970 l 330 1162 l 463 1162 l 660 970 l 600 885 l 396 1023 l 197 884 z "},"ë":{"ha":788,"x_min":102,"x_max":693,"o":"m 693 170 q 597 30 662 72 q 402 -13 532 -13 q 184 57 265 -13 q 102 259 102 128 l 102 500 q 182 700 102 630 q 395 770 263 770 q 607 698 529 770 q 686 489 686 626 l 686 345 l 279 345 l 279 253 q 309 146 279 181 q 405 112 338 112 q 495 135 463 112 q 543 213 527 158 l 693 170 m 279 509 l 279 451 l 509 451 l 509 500 q 482 614 509 580 q 394 648 456 648 q 306 615 332 648 q 279 509 279 582 m 265 888 q 199 905 225 888 q 173 968 173 922 l 173 981 q 199 1046 173 1028 q 265 1064 225 1064 q 332 1046 307 1064 q 357 981 357 1028 l 357 968 q 331 905 357 922 q 265 888 306 888 m 530 888 q 463 905 489 888 q 438 968 438 922 l 438 981 q 463 1046 438 1028 q 530 1064 489 1064 q 597 1046 571 1064 q 622 981 622 1028 l 622 968 q 596 905 622 922 q 530 888 569 888 z "},"ē":{"ha":788,"x_min":102,"x_max":693,"o":"m 693 170 q 597 30 662 72 q 402 -13 532 -13 q 184 57 265 -13 q 102 259 102 128 l 102 500 q 182 700 102 630 q 395 770 263 770 q 607 698 529 770 q 686 489 686 626 l 686 345 l 279 345 l 279 253 q 309 146 279 181 q 405 112 338 112 q 495 135 463 112 q 543 213 527 158 l 693 170 m 279 509 l 279 451 l 509 451 l 509 500 q 482 614 509 580 q 394 648 456 648 q 306 615 332 648 q 279 509 279 582 m 169 941 l 169 1080 l 626 1080 l 626 941 l 169 941 z "},"ĕ":{"ha":788,"x_min":102,"x_max":693,"o":"m 693 170 q 597 30 662 72 q 402 -13 532 -13 q 184 57 265 -13 q 102 259 102 128 l 102 500 q 182 700 102 630 q 395 770 263 770 q 607 698 529 770 q 686 489 686 626 l 686 345 l 279 345 l 279 253 q 309 146 279 181 q 405 112 338 112 q 495 135 463 112 q 543 213 527 158 l 693 170 m 279 509 l 279 451 l 509 451 l 509 500 q 482 614 509 580 q 394 648 456 648 q 306 615 332 648 q 279 509 279 582 m 390 875 q 190 943 259 875 q 120 1153 121 1010 l 269 1153 q 298 1028 270 1063 q 390 992 326 992 q 482 1028 455 992 q 511 1153 510 1063 l 660 1153 q 590 943 659 1010 q 390 875 521 875 z "},"ė":{"ha":788,"x_min":102,"x_max":693,"o":"m 693 170 q 597 30 662 72 q 402 -13 532 -13 q 184 57 265 -13 q 102 259 102 128 l 102 500 q 182 700 102 630 q 395 770 263 770 q 607 698 529 770 q 686 489 686 626 l 686 345 l 279 345 l 279 253 q 309 146 279 181 q 405 112 338 112 q 495 135 463 112 q 543 213 527 158 l 693 170 m 279 509 l 279 451 l 509 451 l 509 500 q 482 614 509 580 q 394 648 456 648 q 306 615 332 648 q 279 509 279 582 m 398 888 q 310 905 343 888 q 277 968 277 922 l 277 981 q 310 1046 277 1028 q 398 1064 343 1064 q 485 1046 452 1064 q 519 981 519 1028 l 519 968 q 485 905 519 922 q 398 888 451 888 z "},"ę":{"ha":788,"x_min":102,"x_max":693,"o":"m 542 -275 q 410 -235 458 -275 q 361 -121 361 -194 q 408 -3 361 -56 q 519 72 456 49 l 547 29 q 503 -23 514 5 q 491 -80 491 -52 q 511 -131 491 -114 q 569 -148 530 -148 q 614 -144 588 -148 q 668 -135 640 -140 l 668 -261 q 603 -271 636 -268 q 542 -275 569 -275 m 693 170 q 597 30 662 72 q 402 -13 532 -13 q 184 57 265 -13 q 102 259 102 128 l 102 500 q 182 700 102 630 q 395 770 263 770 q 607 698 529 770 q 686 489 686 626 l 686 345 l 279 345 l 279 253 q 309 146 279 181 q 405 112 338 112 q 495 135 463 112 q 543 213 527 158 l 693 170 m 279 509 l 279 451 l 509 451 l 509 500 q 482 614 509 580 q 394 648 456 648 q 306 615 332 648 q 279 509 279 582 z "},"ě":{"ha":788,"x_min":102,"x_max":693,"o":"m 693 170 q 597 30 662 72 q 402 -13 532 -13 q 184 57 265 -13 q 102 259 102 128 l 102 500 q 182 700 102 630 q 395 770 263 770 q 607 698 529 770 q 686 489 686 626 l 686 345 l 279 345 l 279 253 q 309 146 279 181 q 405 112 338 112 q 495 135 463 112 q 543 213 527 158 l 693 170 m 279 509 l 279 451 l 509 451 l 509 500 q 482 614 509 580 q 394 648 456 648 q 306 615 332 648 q 279 509 279 582 m 332 889 l 135 1081 l 196 1167 l 399 1029 l 598 1167 l 660 1081 l 466 889 l 332 889 z "},"f":{"ha":788,"x_min":95,"x_max":699,"o":"m 268 0 l 268 622 l 95 622 l 95 758 l 268 758 l 268 804 q 340 973 268 912 q 527 1035 412 1035 q 620 1026 576 1035 q 699 1001 664 1016 l 678 876 q 610 897 643 890 q 545 904 577 904 q 472 879 499 904 q 444 797 444 854 l 444 758 l 686 758 l 686 622 l 444 622 l 444 0 l 268 0 z "},"g":{"ha":788,"x_min":63,"x_max":725,"o":"m 725 -52 q 660 -210 725 -154 q 489 -265 595 -265 l 302 -265 q 124 -218 186 -265 q 63 -83 63 -170 q 95 16 63 -21 q 176 59 126 53 l 176 85 q 112 124 138 95 q 86 213 86 153 q 124 318 86 274 q 223 369 162 361 l 223 391 q 143 451 169 410 q 117 535 117 491 l 117 558 q 187 703 117 649 q 370 758 256 758 l 716 758 l 716 635 l 547 663 l 547 638 q 610 588 586 625 q 635 509 635 551 l 635 486 q 567 344 635 396 q 383 292 499 292 l 287 292 q 235 276 254 292 q 217 222 217 260 q 237 169 217 186 q 294 152 258 152 l 497 152 q 662 103 600 152 q 725 -52 725 54 m 376 394 q 449 420 427 394 q 472 496 472 446 l 472 544 q 449 619 472 595 q 376 644 426 644 q 304 619 327 644 q 280 544 280 595 l 280 496 q 303 420 280 446 q 376 394 326 394 m 316 -152 l 491 -152 q 555 -133 530 -152 q 580 -66 580 -115 q 556 -1 580 -19 q 495 16 532 16 l 232 16 l 232 -59 q 251 -128 232 -105 q 316 -152 270 -152 z "},"ĝ":{"ha":788,"x_min":63,"x_max":725,"o":"m 725 -52 q 660 -210 725 -154 q 489 -265 595 -265 l 302 -265 q 124 -218 186 -265 q 63 -83 63 -170 q 95 16 63 -21 q 176 59 126 53 l 176 85 q 112 124 138 95 q 86 213 86 153 q 124 318 86 274 q 223 369 162 361 l 223 391 q 143 451 169 410 q 117 535 117 491 l 117 558 q 187 703 117 649 q 370 758 256 758 l 716 758 l 716 635 l 547 663 l 547 638 q 610 588 586 625 q 635 509 635 551 l 635 486 q 567 344 635 396 q 383 292 499 292 l 287 292 q 235 276 254 292 q 217 222 217 260 q 237 169 217 186 q 294 152 258 152 l 497 152 q 662 103 600 152 q 725 -52 725 54 m 376 394 q 449 420 427 394 q 472 496 472 446 l 472 544 q 449 619 472 595 q 376 644 426 644 q 304 619 327 644 q 280 544 280 595 l 280 496 q 303 420 280 446 q 376 394 326 394 m 316 -152 l 491 -152 q 555 -133 530 -152 q 580 -66 580 -115 q 556 -1 580 -19 q 495 16 532 16 l 232 16 l 232 -59 q 251 -128 232 -105 q 316 -152 270 -152 m 197 884 l 135 970 l 330 1162 l 463 1162 l 660 970 l 600 885 l 396 1023 l 197 884 z "},"ğ":{"ha":788,"x_min":63,"x_max":725,"o":"m 725 -52 q 660 -210 725 -154 q 489 -265 595 -265 l 302 -265 q 124 -218 186 -265 q 63 -83 63 -170 q 95 16 63 -21 q 176 59 126 53 l 176 85 q 112 124 138 95 q 86 213 86 153 q 124 318 86 274 q 223 369 162 361 l 223 391 q 143 451 169 410 q 117 535 117 491 l 117 558 q 187 703 117 649 q 370 758 256 758 l 716 758 l 716 635 l 547 663 l 547 638 q 610 588 586 625 q 635 509 635 551 l 635 486 q 567 344 635 396 q 383 292 499 292 l 287 292 q 235 276 254 292 q 217 222 217 260 q 237 169 217 186 q 294 152 258 152 l 497 152 q 662 103 600 152 q 725 -52 725 54 m 376 394 q 449 420 427 394 q 472 496 472 446 l 472 544 q 449 619 472 595 q 376 644 426 644 q 304 619 327 644 q 280 544 280 595 l 280 496 q 303 420 280 446 q 376 394 326 394 m 316 -152 l 491 -152 q 555 -133 530 -152 q 580 -66 580 -115 q 556 -1 580 -19 q 495 16 532 16 l 232 16 l 232 -59 q 251 -128 232 -105 q 316 -152 270 -152 m 394 875 q 194 943 263 875 q 124 1153 125 1010 l 273 1153 q 302 1028 274 1063 q 394 992 330 992 q 486 1028 458 992 q 515 1153 514 1063 l 664 1153 q 594 943 663 1010 q 394 875 525 875 z "},"ġ":{"ha":788,"x_min":63,"x_max":725,"o":"m 725 -52 q 660 -210 725 -154 q 489 -265 595 -265 l 302 -265 q 124 -218 186 -265 q 63 -83 63 -170 q 95 16 63 -21 q 176 59 126 53 l 176 85 q 112 124 138 95 q 86 213 86 153 q 124 318 86 274 q 223 369 162 361 l 223 391 q 143 451 169 410 q 117 535 117 491 l 117 558 q 187 703 117 649 q 370 758 256 758 l 716 758 l 716 635 l 547 663 l 547 638 q 610 588 586 625 q 635 509 635 551 l 635 486 q 567 344 635 396 q 383 292 499 292 l 287 292 q 235 276 254 292 q 217 222 217 260 q 237 169 217 186 q 294 152 258 152 l 497 152 q 662 103 600 152 q 725 -52 725 54 m 376 394 q 449 420 427 394 q 472 496 472 446 l 472 544 q 449 619 472 595 q 376 644 426 644 q 304 619 327 644 q 280 544 280 595 l 280 496 q 303 420 280 446 q 376 394 326 394 m 316 -152 l 491 -152 q 555 -133 530 -152 q 580 -66 580 -115 q 556 -1 580 -19 q 495 16 532 16 l 232 16 l 232 -59 q 251 -128 232 -105 q 316 -152 270 -152 m 394 888 q 306 905 340 888 q 273 968 273 922 l 273 981 q 306 1046 273 1028 q 394 1064 340 1064 q 482 1046 448 1064 q 515 981 515 1028 l 515 968 q 481 905 515 922 q 394 888 447 888 z "},"ģ":{"ha":788,"x_min":63,"x_max":725,"o":"m 725 -52 q 660 -210 725 -154 q 489 -265 595 -265 l 302 -265 q 124 -218 186 -265 q 63 -83 63 -170 q 95 16 63 -21 q 176 59 126 53 l 176 85 q 112 124 138 95 q 86 213 86 153 q 124 318 86 274 q 223 369 162 361 l 223 391 q 143 451 169 410 q 117 535 117 491 l 117 558 q 187 703 117 649 q 370 758 256 758 l 716 758 l 716 635 l 547 663 l 547 638 q 610 588 586 625 q 635 509 635 551 l 635 486 q 567 344 635 396 q 383 292 499 292 l 287 292 q 235 276 254 292 q 217 222 217 260 q 237 169 217 186 q 294 152 258 152 l 497 152 q 662 103 600 152 q 725 -52 725 54 m 376 394 q 449 420 427 394 q 472 496 472 446 l 472 544 q 449 619 472 595 q 376 644 426 644 q 304 619 327 644 q 280 544 280 595 l 280 496 q 303 420 280 446 q 376 394 326 394 m 316 -152 l 491 -152 q 555 -133 530 -152 q 580 -66 580 -115 q 556 -1 580 -19 q 495 16 532 16 l 232 16 l 232 -59 q 251 -128 232 -105 q 316 -152 270 -152 m 266 884 l 451 1136 l 576 1136 l 496 884 l 266 884 z "},"h":{"ha":788,"x_min":102,"x_max":686,"o":"m 102 0 l 102 1010 l 279 1010 l 279 644 l 311 644 q 382 736 332 702 q 497 770 432 770 q 635 708 585 770 q 686 539 686 645 l 686 0 l 509 0 l 509 504 q 487 595 509 563 q 423 626 465 626 q 346 600 383 626 q 279 524 309 573 l 279 0 l 102 0 z "},"ĥ":{"ha":788,"x_min":-76,"x_max":686,"o":"m 102 0 l 102 1010 l 279 1010 l 279 644 l 311 644 q 382 736 332 702 q 497 770 432 770 q 635 708 585 770 q 686 539 686 645 l 686 0 l 509 0 l 509 504 q 487 595 509 563 q 423 626 465 626 q 346 600 383 626 q 279 524 309 573 l 279 0 l 102 0 m -14 1136 l -76 1222 l 119 1414 l 253 1414 l 449 1222 l 389 1138 l 186 1275 l -14 1136 z "},"i":{"ha":788,"x_min":109,"x_max":679,"o":"m 109 0 l 109 135 l 306 135 l 306 622 l 109 622 l 109 758 l 482 758 l 482 135 l 679 135 l 679 0 l 109 0 m 402 888 q 314 905 347 888 q 280 968 280 922 l 280 981 q 314 1046 280 1028 q 402 1064 347 1064 q 489 1046 456 1064 q 523 981 523 1028 l 523 968 q 489 905 523 922 q 402 888 455 888 z "},"ì":{"ha":788,"x_min":109,"x_max":679,"o":"m 109 0 l 109 135 l 306 135 l 306 622 l 109 622 l 109 758 l 482 758 l 482 135 l 679 135 l 679 0 l 109 0 m 395 884 l 169 1136 l 399 1136 l 520 884 l 395 884 z "},"í":{"ha":788,"x_min":109,"x_max":679,"o":"m 109 0 l 109 135 l 306 135 l 306 622 l 109 622 l 109 758 l 482 758 l 482 135 l 679 135 l 679 0 l 109 0 m 259 884 l 381 1136 l 611 1136 l 384 884 l 259 884 z "},"î":{"ha":788,"x_min":109,"x_max":679,"o":"m 109 0 l 109 135 l 306 135 l 306 622 l 109 622 l 109 758 l 482 758 l 482 135 l 679 135 l 679 0 l 109 0 m 193 884 l 131 970 l 326 1162 l 460 1162 l 657 970 l 596 885 l 393 1023 l 193 884 z "},"ï":{"ha":788,"x_min":109,"x_max":679,"o":"m 109 0 l 109 135 l 306 135 l 306 622 l 109 622 l 109 758 l 482 758 l 482 135 l 679 135 l 679 0 l 109 0 m 261 888 q 195 905 221 888 q 169 968 169 922 l 169 981 q 195 1046 169 1028 q 261 1064 221 1064 q 328 1046 303 1064 q 354 981 354 1028 l 354 968 q 328 905 354 922 q 261 888 302 888 m 527 888 q 460 905 485 888 q 434 968 434 922 l 434 981 q 460 1046 434 1028 q 527 1064 485 1064 q 593 1046 567 1064 q 619 981 619 1028 l 619 968 q 592 905 619 922 q 527 888 566 888 z "},"ĩ":{"ha":788,"x_min":109,"x_max":679,"o":"m 109 0 l 109 135 l 306 135 l 306 622 l 109 622 l 109 758 l 482 758 l 482 135 l 679 135 l 679 0 l 109 0 m 489 896 q 417 917 444 896 q 370 965 390 937 q 339 1011 354 990 q 304 1032 324 1032 q 271 1009 284 1032 q 260 929 259 987 l 260 909 l 143 909 l 143 928 q 185 1093 143 1029 q 303 1158 227 1158 q 373 1138 346 1158 q 420 1090 400 1119 q 451 1043 437 1064 q 484 1021 466 1021 q 516 1044 504 1021 q 529 1125 529 1067 l 529 1145 l 646 1145 l 646 1126 q 605 960 646 1024 q 489 896 563 896 z "},"ī":{"ha":788,"x_min":109,"x_max":679,"o":"m 109 0 l 109 135 l 306 135 l 306 622 l 109 622 l 109 758 l 482 758 l 482 135 l 679 135 l 679 0 l 109 0 m 165 941 l 165 1080 l 622 1080 l 622 941 l 165 941 z "},"ĭ":{"ha":788,"x_min":109,"x_max":679,"o":"m 109 0 l 109 135 l 306 135 l 306 622 l 109 622 l 109 758 l 482 758 l 482 135 l 679 135 l 679 0 l 109 0 m 394 875 q 194 943 263 875 q 124 1153 125 1010 l 273 1153 q 302 1028 274 1063 q 394 992 330 992 q 486 1028 458 992 q 515 1153 514 1063 l 664 1153 q 594 943 663 1010 q 394 875 525 875 z "},"į":{"ha":788,"x_min":109,"x_max":679,"o":"m 402 888 q 314 905 347 888 q 280 968 280 922 l 280 981 q 314 1046 280 1028 q 402 1064 347 1064 q 489 1046 456 1064 q 523 981 523 1028 l 523 968 q 489 905 523 922 q 402 888 455 888 m 109 0 l 109 135 l 306 135 l 306 622 l 109 622 l 109 758 l 482 758 l 482 135 l 679 135 l 679 0 l 109 0 m 468 -275 q 336 -235 385 -275 q 288 -121 288 -194 q 335 -3 288 -56 q 446 72 383 49 l 473 29 q 429 -23 441 5 q 418 -80 418 -52 q 437 -131 418 -114 q 496 -148 457 -148 q 541 -144 515 -148 q 595 -135 567 -140 l 595 -261 q 530 -271 563 -268 q 468 -275 496 -275 z "},"j":{"ha":788,"x_min":96,"x_max":605,"o":"m 283 -264 q 189 -258 236 -264 q 96 -236 143 -253 l 116 -101 q 194 -122 158 -117 q 263 -128 231 -128 q 366 -95 328 -128 q 404 13 404 -63 l 404 622 l 131 622 l 131 758 l 581 758 l 581 -6 q 497 -197 581 -130 q 283 -264 414 -264 m 484 888 q 396 905 429 888 q 362 968 362 922 l 362 981 q 396 1046 362 1028 q 484 1064 429 1064 q 571 1046 538 1064 q 605 981 605 1028 l 605 968 q 571 905 605 922 q 484 888 537 888 z "},"ĵ":{"ha":788,"x_min":96,"x_max":718,"o":"m 283 -264 q 189 -258 236 -264 q 96 -236 143 -253 l 116 -101 q 194 -122 158 -117 q 263 -128 231 -128 q 366 -95 328 -128 q 404 13 404 -63 l 404 622 l 131 622 l 131 758 l 581 758 l 581 -6 q 497 -197 581 -130 q 283 -264 414 -264 m 255 884 l 193 970 l 388 1162 l 521 1162 l 718 970 l 658 885 l 455 1023 l 255 884 z "},"k":{"ha":788,"x_min":126,"x_max":710,"o":"m 303 332 l 303 0 l 126 0 l 126 1010 l 303 1010 l 303 458 l 347 458 l 521 758 l 710 758 l 490 410 l 706 0 l 515 0 l 347 332 l 303 332 z "},"ķ":{"ha":788,"x_min":126,"x_max":710,"o":"m 303 332 l 303 0 l 126 0 l 126 1010 l 303 1010 l 303 458 l 347 458 l 521 758 l 710 758 l 490 410 l 706 0 l 515 0 l 347 332 l 303 332 m 245 -379 l 324 -126 l 554 -126 l 370 -379 l 245 -379 z "},"l":{"ha":788,"x_min":116,"x_max":693,"o":"m 116 0 l 116 135 l 319 135 l 319 875 l 116 875 l 116 1010 l 497 1010 l 497 135 l 693 135 l 693 0 l 116 0 z "},"ĺ":{"ha":788,"x_min":116,"x_max":693,"o":"m 116 0 l 116 135 l 319 135 l 319 875 l 116 875 l 116 1010 l 497 1010 l 497 135 l 693 135 l 693 0 l 116 0 m 260 1136 l 383 1389 l 612 1389 l 385 1136 l 260 1136 z "},"ļ":{"ha":788,"x_min":116,"x_max":693,"o":"m 116 0 l 116 135 l 319 135 l 319 875 l 116 875 l 116 1010 l 497 1010 l 497 135 l 693 135 l 693 0 l 116 0 m 212 -379 l 292 -126 l 521 -126 l 337 -379 l 212 -379 z "},"ľ":{"ha":788,"x_min":116,"x_max":875,"o":"m 116 0 l 116 135 l 319 135 l 319 875 l 116 875 l 116 1010 l 497 1010 l 497 135 l 693 135 l 693 0 l 116 0 m 583 890 l 648 1263 l 875 1263 l 688 890 l 583 890 z "},"m":{"ha":788,"x_min":66,"x_max":722,"o":"m 212 553 l 212 0 l 66 0 l 66 758 l 211 758 l 211 660 l 240 660 q 288 741 258 715 q 357 768 318 768 q 422 741 396 768 q 458 660 448 715 l 486 660 q 535 741 504 715 q 611 768 567 768 q 694 722 665 768 q 722 588 722 676 l 722 0 l 576 0 l 576 564 q 567 626 576 605 q 540 648 558 648 q 502 622 521 648 q 465 553 482 596 l 465 0 l 323 0 l 323 564 q 315 627 323 606 q 288 648 307 648 q 250 623 269 648 q 212 553 231 598 z "},"n":{"ha":788,"x_min":102,"x_max":686,"o":"m 102 0 l 102 758 l 279 758 l 279 644 l 311 644 q 385 737 335 703 q 500 770 436 770 q 636 709 587 770 q 686 539 686 648 l 686 0 l 509 0 l 509 506 q 487 595 509 564 q 423 626 465 626 q 345 601 383 626 q 279 528 308 576 l 279 0 l 102 0 z "},"ñ":{"ha":788,"x_min":102,"x_max":686,"o":"m 102 0 l 102 758 l 279 758 l 279 644 l 311 644 q 385 737 335 703 q 500 770 436 770 q 636 709 587 770 q 686 539 686 648 l 686 0 l 509 0 l 509 506 q 487 595 509 564 q 423 626 465 626 q 345 601 383 626 q 279 528 308 576 l 279 0 l 102 0 m 510 896 q 439 917 466 896 q 391 965 412 937 q 360 1011 375 990 q 326 1032 346 1032 q 293 1009 306 1032 q 282 929 280 987 l 282 909 l 164 909 l 164 928 q 206 1093 164 1029 q 324 1158 249 1158 q 395 1138 367 1158 q 442 1090 422 1119 q 473 1043 458 1064 q 505 1021 487 1021 q 538 1044 525 1021 q 551 1125 551 1067 l 551 1145 l 668 1145 l 668 1126 q 626 960 668 1024 q 510 896 585 896 z "},"ń":{"ha":788,"x_min":102,"x_max":686,"o":"m 102 0 l 102 758 l 279 758 l 279 644 l 311 644 q 385 737 335 703 q 500 770 436 770 q 636 709 587 770 q 686 539 686 648 l 686 0 l 509 0 l 509 506 q 487 595 509 564 q 423 626 465 626 q 345 601 383 626 q 279 528 308 576 l 279 0 l 102 0 m 280 884 l 403 1136 l 633 1136 l 405 884 l 280 884 z "},"ņ":{"ha":788,"x_min":102,"x_max":686,"o":"m 231 -379 l 311 -126 l 540 -126 l 356 -379 l 231 -379 m 102 0 l 102 758 l 279 758 l 279 644 l 311 644 q 385 737 335 703 q 500 770 436 770 q 636 709 587 770 q 686 539 686 648 l 686 0 l 509 0 l 509 506 q 487 595 509 564 q 423 626 465 626 q 345 601 383 626 q 279 528 308 576 l 279 0 l 102 0 z "},"ň":{"ha":788,"x_min":102,"x_max":686,"o":"m 102 0 l 102 758 l 279 758 l 279 644 l 311 644 q 385 737 335 703 q 500 770 436 770 q 636 709 587 770 q 686 539 686 648 l 686 0 l 509 0 l 509 506 q 487 595 509 564 q 423 626 465 626 q 345 601 383 626 q 279 528 308 576 l 279 0 l 102 0 m 350 889 l 153 1081 l 213 1167 l 417 1029 l 616 1167 l 678 1081 l 484 889 l 350 889 z "},"o":{"ha":788,"x_min":104,"x_max":688,"o":"m 396 -13 q 181 59 258 -13 q 104 258 104 130 l 104 495 q 181 698 104 625 q 396 770 259 770 q 610 697 533 770 q 688 494 688 624 l 688 255 q 610 58 688 129 q 396 -13 533 -13 m 396 122 q 484 155 456 122 q 511 261 511 188 l 511 491 q 484 601 511 567 q 396 635 456 635 q 309 601 337 635 q 280 492 280 567 l 280 264 q 309 156 280 189 q 396 122 337 122 z "},"ò":{"ha":788,"x_min":104,"x_max":688,"o":"m 396 -13 q 181 59 258 -13 q 104 258 104 130 l 104 495 q 181 698 104 625 q 396 770 259 770 q 610 697 533 770 q 688 494 688 624 l 688 255 q 610 58 688 129 q 396 -13 533 -13 m 396 122 q 484 155 456 122 q 511 261 511 188 l 511 491 q 484 601 511 567 q 396 635 456 635 q 309 601 337 635 q 280 492 280 567 l 280 264 q 309 156 280 189 q 396 122 337 122 m 380 884 l 154 1136 l 384 1136 l 505 884 l 380 884 z "},"ó":{"ha":788,"x_min":104,"x_max":688,"o":"m 396 -13 q 181 59 258 -13 q 104 258 104 130 l 104 495 q 181 698 104 625 q 396 770 259 770 q 610 697 533 770 q 688 494 688 624 l 688 255 q 610 58 688 129 q 396 -13 533 -13 m 396 122 q 484 155 456 122 q 511 261 511 188 l 511 491 q 484 601 511 567 q 396 635 456 635 q 309 601 337 635 q 280 492 280 567 l 280 264 q 309 156 280 189 q 396 122 337 122 m 259 884 l 381 1136 l 611 1136 l 384 884 l 259 884 z "},"ô":{"ha":788,"x_min":104,"x_max":688,"o":"m 396 -13 q 181 59 258 -13 q 104 258 104 130 l 104 495 q 181 698 104 625 q 396 770 259 770 q 610 697 533 770 q 688 494 688 624 l 688 255 q 610 58 688 129 q 396 -13 533 -13 m 396 122 q 484 155 456 122 q 511 261 511 188 l 511 491 q 484 601 511 567 q 396 635 456 635 q 309 601 337 635 q 280 492 280 567 l 280 264 q 309 156 280 189 q 396 122 337 122 m 193 884 l 131 970 l 326 1162 l 460 1162 l 657 970 l 596 885 l 393 1023 l 193 884 z "},"õ":{"ha":788,"x_min":104,"x_max":688,"o":"m 396 -13 q 181 59 258 -13 q 104 258 104 130 l 104 495 q 181 698 104 625 q 396 770 259 770 q 610 697 533 770 q 688 494 688 624 l 688 255 q 610 58 688 129 q 396 -13 533 -13 m 396 122 q 484 155 456 122 q 511 261 511 188 l 511 491 q 484 601 511 567 q 396 635 456 635 q 309 601 337 635 q 280 492 280 567 l 280 264 q 309 156 280 189 q 396 122 337 122 m 489 896 q 417 917 444 896 q 370 965 390 937 q 339 1011 354 990 q 304 1032 324 1032 q 271 1009 284 1032 q 260 929 259 987 l 260 909 l 143 909 l 143 928 q 185 1093 143 1029 q 303 1158 227 1158 q 373 1138 346 1158 q 420 1090 400 1119 q 451 1043 437 1064 q 484 1021 466 1021 q 516 1044 504 1021 q 529 1125 529 1067 l 529 1145 l 646 1145 l 646 1126 q 605 960 646 1024 q 489 896 563 896 z "},"ö":{"ha":788,"x_min":104,"x_max":688,"o":"m 396 -13 q 181 59 258 -13 q 104 258 104 130 l 104 495 q 181 698 104 625 q 396 770 259 770 q 610 697 533 770 q 688 494 688 624 l 688 255 q 610 58 688 129 q 396 -13 533 -13 m 396 122 q 484 155 456 122 q 511 261 511 188 l 511 491 q 484 601 511 567 q 396 635 456 635 q 309 601 337 635 q 280 492 280 567 l 280 264 q 309 156 280 189 q 396 122 337 122 m 261 888 q 195 905 221 888 q 169 968 169 922 l 169 981 q 195 1046 169 1028 q 261 1064 221 1064 q 328 1046 303 1064 q 354 981 354 1028 l 354 968 q 328 905 354 922 q 261 888 302 888 m 527 888 q 460 905 485 888 q 434 968 434 922 l 434 981 q 460 1046 434 1028 q 527 1064 485 1064 q 593 1046 567 1064 q 619 981 619 1028 l 619 968 q 592 905 619 922 q 527 888 566 888 z "},"ō":{"ha":788,"x_min":104,"x_max":688,"o":"m 396 -13 q 181 59 258 -13 q 104 258 104 130 l 104 495 q 181 698 104 625 q 396 770 259 770 q 610 697 533 770 q 688 494 688 624 l 688 255 q 610 58 688 129 q 396 -13 533 -13 m 396 122 q 484 155 456 122 q 511 261 511 188 l 511 491 q 484 601 511 567 q 396 635 456 635 q 309 601 337 635 q 280 492 280 567 l 280 264 q 309 156 280 189 q 396 122 337 122 m 165 941 l 165 1080 l 622 1080 l 622 941 l 165 941 z "},"ŏ":{"ha":788,"x_min":104,"x_max":688,"o":"m 396 -13 q 181 59 258 -13 q 104 258 104 130 l 104 495 q 181 698 104 625 q 396 770 259 770 q 610 697 533 770 q 688 494 688 624 l 688 255 q 610 58 688 129 q 396 -13 533 -13 m 396 122 q 484 155 456 122 q 511 261 511 188 l 511 491 q 484 601 511 567 q 396 635 456 635 q 309 601 337 635 q 280 492 280 567 l 280 264 q 309 156 280 189 q 396 122 337 122 m 402 875 q 201 943 270 875 q 131 1153 133 1010 l 280 1153 q 309 1028 282 1063 q 402 992 337 992 q 494 1028 466 992 q 523 1153 521 1063 l 672 1153 q 602 943 670 1010 q 402 875 533 875 z "},"ő":{"ha":788,"x_min":104,"x_max":688,"o":"m 396 -13 q 181 59 258 -13 q 104 258 104 130 l 104 495 q 181 698 104 625 q 396 770 259 770 q 610 697 533 770 q 688 494 688 624 l 688 255 q 610 58 688 129 q 396 -13 533 -13 m 396 122 q 484 155 456 122 q 511 261 511 188 l 511 491 q 484 601 511 567 q 396 635 456 635 q 309 601 337 635 q 280 492 280 567 l 280 264 q 309 156 280 189 q 396 122 337 122 m 446 884 l 497 1136 l 681 1136 l 542 884 l 446 884 m 203 884 l 255 1136 l 438 1136 l 299 884 l 203 884 z "},"p":{"ha":788,"x_min":102,"x_max":686,"o":"m 395 122 q 481 156 453 122 q 509 261 509 189 l 509 504 q 485 597 509 567 q 418 626 462 626 q 345 604 380 626 q 279 534 311 581 l 279 165 q 336 133 308 144 q 395 122 364 122 m 422 -11 q 348 -3 385 -11 q 279 23 311 6 l 279 -253 l 102 -253 l 102 758 l 279 758 l 279 644 l 311 644 q 379 737 331 703 q 495 770 428 770 q 636 704 586 770 q 686 520 686 638 l 686 260 q 615 62 686 135 q 422 -11 544 -11 z "},"q":{"ha":788,"x_min":102,"x_max":686,"o":"m 509 -253 l 509 114 l 477 114 q 407 21 456 56 q 293 -13 359 -13 q 152 57 202 -13 q 102 246 102 128 l 102 497 q 181 698 102 628 q 402 769 260 769 q 552 750 473 769 q 686 696 631 731 l 686 -253 l 509 -253 m 370 131 q 443 154 408 131 q 509 223 477 177 l 509 601 q 457 626 485 617 q 394 635 429 635 q 309 602 338 635 q 279 496 279 568 l 279 271 q 302 165 279 199 q 370 131 326 131 z "},"r":{"ha":788,"x_min":133,"x_max":696,"o":"m 133 0 l 133 758 l 311 758 l 311 631 l 342 631 q 413 737 364 703 q 529 770 462 770 q 652 715 609 770 q 696 559 696 660 l 696 433 l 534 433 l 534 505 q 515 598 534 569 q 448 626 495 626 q 371 601 408 626 q 311 521 335 576 l 311 0 l 133 0 z "},"ŕ":{"ha":788,"x_min":133,"x_max":696,"o":"m 133 0 l 133 758 l 311 758 l 311 631 l 342 631 q 413 737 364 703 q 529 770 462 770 q 652 715 609 770 q 696 559 696 660 l 696 433 l 534 433 l 534 505 q 515 598 534 569 q 448 626 495 626 q 371 601 408 626 q 311 521 335 576 l 311 0 l 133 0 m 290 884 l 413 1136 l 643 1136 l 415 884 l 290 884 z "},"ŗ":{"ha":788,"x_min":66,"x_max":696,"o":"m 133 0 l 133 758 l 311 758 l 311 631 l 342 631 q 413 737 364 703 q 529 770 462 770 q 652 715 609 770 q 696 559 696 660 l 696 433 l 534 433 l 534 505 q 515 598 534 569 q 448 626 495 626 q 371 601 408 626 q 311 521 335 576 l 311 0 l 133 0 m 66 -379 l 145 -126 l 375 -126 l 191 -379 l 66 -379 z "},"ř":{"ha":788,"x_min":133,"x_max":696,"o":"m 133 0 l 133 758 l 311 758 l 311 631 l 342 631 q 413 737 364 703 q 529 770 462 770 q 652 715 609 770 q 696 559 696 660 l 696 433 l 534 433 l 534 505 q 515 598 534 569 q 448 626 495 626 q 371 601 408 626 q 311 521 335 576 l 311 0 l 133 0 m 360 889 l 163 1081 l 223 1167 l 427 1029 l 626 1167 l 688 1081 l 494 889 l 360 889 z "},"s":{"ha":788,"x_min":92,"x_max":692,"o":"m 391 -11 q 229 14 308 -11 q 92 81 149 39 l 139 198 q 263 138 196 162 q 391 115 331 115 q 482 135 449 115 q 515 202 515 155 q 484 271 515 251 q 362 314 453 292 q 172 396 231 346 q 112 543 112 446 q 187 710 112 649 q 383 770 261 770 q 530 746 458 770 q 657 683 602 722 l 616 568 q 506 622 563 601 q 394 644 448 644 q 317 624 345 644 q 289 561 289 605 q 324 494 289 514 q 462 446 360 473 q 639 365 586 417 q 692 218 692 313 q 610 51 692 112 q 391 -11 529 -11 z "},"":{"ha":788,"x_min":92,"x_max":692,"o":"m 391 -11 q 229 14 308 -11 q 92 81 149 39 l 139 198 q 263 138 196 162 q 391 115 331 115 q 482 135 449 115 q 515 202 515 155 q 484 271 515 251 q 362 314 453 292 q 172 396 231 346 q 112 543 112 446 q 187 710 112 649 q 383 770 261 770 q 530 746 458 770 q 657 683 602 722 l 616 568 q 506 622 563 601 q 394 644 448 644 q 317 624 345 644 q 289 561 289 605 q 324 494 289 514 q 462 446 360 473 q 639 365 586 417 q 692 218 692 313 q 610 51 692 112 q 391 -11 529 -11 z "},"ś":{"ha":788,"x_min":92,"x_max":692,"o":"m 391 -11 q 229 14 308 -11 q 92 81 149 39 l 139 198 q 263 138 196 162 q 391 115 331 115 q 482 135 449 115 q 515 202 515 155 q 484 271 515 251 q 362 314 453 292 q 172 396 231 346 q 112 543 112 446 q 187 710 112 649 q 383 770 261 770 q 530 746 458 770 q 657 683 602 722 l 616 568 q 506 622 563 601 q 394 644 448 644 q 317 624 345 644 q 289 561 289 605 q 324 494 289 514 q 462 446 360 473 q 639 365 586 417 q 692 218 692 313 q 610 51 692 112 q 391 -11 529 -11 m 264 884 l 386 1136 l 616 1136 l 389 884 l 264 884 z "},"ŝ":{"ha":788,"x_min":92,"x_max":692,"o":"m 391 -11 q 229 14 308 -11 q 92 81 149 39 l 139 198 q 263 138 196 162 q 391 115 331 115 q 482 135 449 115 q 515 202 515 155 q 484 271 515 251 q 362 314 453 292 q 172 396 231 346 q 112 543 112 446 q 187 710 112 649 q 383 770 261 770 q 530 746 458 770 q 657 683 602 722 l 616 568 q 506 622 563 601 q 394 644 448 644 q 317 624 345 644 q 289 561 289 605 q 324 494 289 514 q 462 446 360 473 q 639 365 586 417 q 692 218 692 313 q 610 51 692 112 q 391 -11 529 -11 m 191 884 l 129 970 l 323 1162 l 457 1162 l 654 970 l 593 885 l 390 1023 l 191 884 z "},"ş":{"ha":788,"x_min":92,"x_max":692,"o":"m 391 -11 q 229 14 308 -11 q 92 81 149 39 l 139 198 q 263 138 196 162 q 391 115 331 115 q 482 135 449 115 q 515 202 515 155 q 484 271 515 251 q 362 314 453 292 q 172 396 231 346 q 112 543 112 446 q 187 710 112 649 q 383 770 261 770 q 530 746 458 770 q 657 683 602 722 l 616 568 q 506 622 563 601 q 394 644 448 644 q 317 624 345 644 q 289 561 289 605 q 324 494 289 514 q 462 446 360 473 q 639 365 586 417 q 692 218 692 313 q 610 51 692 112 q 391 -11 529 -11 m 354 0 l 374 53 q 508 2 460 42 q 556 -114 556 -38 q 496 -237 556 -197 q 351 -277 437 -277 q 201 -241 258 -277 q 140 -130 145 -206 l 290 -117 q 304 -151 292 -141 q 343 -160 316 -160 q 388 -146 374 -160 q 403 -88 403 -131 q 392 -29 403 -48 q 354 0 381 -10 z "},"š":{"ha":788,"x_min":92,"x_max":692,"o":"m 391 -11 q 229 14 308 -11 q 92 81 149 39 l 139 198 q 263 138 196 162 q 391 115 331 115 q 482 135 449 115 q 515 202 515 155 q 484 271 515 251 q 362 314 453 292 q 172 396 231 346 q 112 543 112 446 q 187 710 112 649 q 383 770 261 770 q 530 746 458 770 q 657 683 602 722 l 616 568 q 506 622 563 601 q 394 644 448 644 q 317 624 345 644 q 289 561 289 605 q 324 494 289 514 q 462 446 360 473 q 639 365 586 417 q 692 218 692 313 q 610 51 692 112 q 391 -11 529 -11 m 326 889 l 129 1081 l 189 1167 l 393 1029 l 592 1167 l 654 1081 l 460 889 l 326 889 z "},"ș":{"ha":788,"x_min":92,"x_max":692,"o":"m 391 -11 q 229 14 308 -11 q 92 81 149 39 l 139 198 q 263 138 196 162 q 391 115 331 115 q 482 135 449 115 q 515 202 515 155 q 484 271 515 251 q 362 314 453 292 q 172 396 231 346 q 112 543 112 446 q 187 710 112 649 q 383 770 261 770 q 530 746 458 770 q 657 683 602 722 l 616 568 q 506 622 563 601 q 394 644 448 644 q 317 624 345 644 q 289 561 289 605 q 324 494 289 514 q 462 446 360 473 q 639 365 586 417 q 692 218 692 313 q 610 51 692 112 q 391 -11 529 -11 m 217 -379 l 297 -126 l 527 -126 l 342 -379 l 217 -379 z "},"t":{"ha":788,"x_min":93,"x_max":683,"o":"m 511 -13 q 319 54 388 -13 q 251 241 251 121 l 251 622 l 93 622 l 93 758 l 251 758 l 251 1010 l 428 1010 l 428 758 l 673 758 l 673 622 l 428 622 l 428 258 q 455 160 428 193 q 534 128 482 128 q 602 135 569 128 q 662 153 635 143 l 683 18 q 610 -4 657 5 q 511 -13 563 -13 z "},"ţ":{"ha":788,"x_min":93,"x_max":683,"o":"m 511 -13 q 319 54 388 -13 q 251 241 251 121 l 251 622 l 93 622 l 93 758 l 251 758 l 251 1010 l 428 1010 l 428 758 l 673 758 l 673 622 l 428 622 l 428 258 q 455 160 428 193 q 534 128 482 128 q 602 135 569 128 q 662 153 635 143 l 683 18 q 610 -4 657 5 q 511 -13 563 -13 m 415 0 l 436 53 q 569 2 521 42 q 617 -114 617 -38 q 558 -237 617 -197 q 413 -277 499 -277 q 263 -241 319 -277 q 202 -130 207 -206 l 352 -117 q 366 -151 354 -141 q 405 -160 378 -160 q 450 -146 436 -160 q 465 -88 465 -131 q 454 -29 465 -48 q 415 0 443 -10 z "},"ť":{"ha":788,"x_min":93,"x_max":819,"o":"m 511 -13 q 319 54 388 -13 q 251 241 251 121 l 251 622 l 93 622 l 93 758 l 251 758 l 251 1010 l 428 1010 l 428 758 l 673 758 l 673 622 l 428 622 l 428 258 q 455 160 428 193 q 534 128 482 128 q 602 135 569 128 q 662 153 635 143 l 683 18 q 610 -4 657 5 q 511 -13 563 -13 m 528 890 l 592 1263 l 819 1263 l 633 890 l 528 890 z "},"ț":{"ha":788,"x_min":93,"x_max":683,"o":"m 511 -13 q 319 54 388 -13 q 251 241 251 121 l 251 622 l 93 622 l 93 758 l 251 758 l 251 1010 l 428 1010 l 428 758 l 673 758 l 673 622 l 428 622 l 428 258 q 455 160 428 193 q 534 128 482 128 q 602 135 569 128 q 662 153 635 143 l 683 18 q 610 -4 657 5 q 511 -13 563 -13 m 253 -379 l 332 -126 l 562 -126 l 378 -379 l 253 -379 z "},"u":{"ha":788,"x_min":102,"x_max":686,"o":"m 287 -13 q 153 50 205 -13 q 102 218 102 112 l 102 758 l 279 758 l 279 260 q 300 164 279 196 q 364 131 321 131 q 440 158 403 131 q 509 239 477 186 l 509 758 l 686 758 l 686 0 l 509 0 l 509 114 l 477 114 q 404 21 457 54 q 287 -13 351 -13 z "},"ù":{"ha":788,"x_min":102,"x_max":686,"o":"m 287 -13 q 153 50 205 -13 q 102 218 102 112 l 102 758 l 279 758 l 279 260 q 300 164 279 196 q 364 131 321 131 q 440 158 403 131 q 509 239 477 186 l 509 758 l 686 758 l 686 0 l 509 0 l 509 114 l 477 114 q 404 21 457 54 q 287 -13 351 -13 m 378 884 l 152 1136 l 381 1136 l 503 884 l 378 884 z "},"ú":{"ha":788,"x_min":102,"x_max":686,"o":"m 287 -13 q 153 50 205 -13 q 102 218 102 112 l 102 758 l 279 758 l 279 260 q 300 164 279 196 q 364 131 321 131 q 440 158 403 131 q 509 239 477 186 l 509 758 l 686 758 l 686 0 l 509 0 l 509 114 l 477 114 q 404 21 457 54 q 287 -13 351 -13 m 308 884 l 431 1136 l 660 1136 l 433 884 l 308 884 z "},"û":{"ha":788,"x_min":102,"x_max":686,"o":"m 287 -13 q 153 50 205 -13 q 102 218 102 112 l 102 758 l 279 758 l 279 260 q 300 164 279 196 q 364 131 321 131 q 440 158 403 131 q 509 239 477 186 l 509 758 l 686 758 l 686 0 l 509 0 l 509 114 l 477 114 q 404 21 457 54 q 287 -13 351 -13 m 201 884 l 139 970 l 333 1162 l 467 1162 l 664 970 l 604 885 l 400 1023 l 201 884 z "},"ü":{"ha":788,"x_min":102,"x_max":686,"o":"m 287 -13 q 153 50 205 -13 q 102 218 102 112 l 102 758 l 279 758 l 279 260 q 300 164 279 196 q 364 131 321 131 q 440 158 403 131 q 509 239 477 186 l 509 758 l 686 758 l 686 0 l 509 0 l 509 114 l 477 114 q 404 21 457 54 q 287 -13 351 -13 m 269 888 q 203 905 229 888 q 177 968 177 922 l 177 981 q 203 1046 177 1028 q 269 1064 229 1064 q 336 1046 311 1064 q 361 981 361 1028 l 361 968 q 335 905 361 922 q 269 888 309 888 m 534 888 q 467 905 492 888 q 442 968 442 922 l 442 981 q 467 1046 442 1028 q 534 1064 492 1064 q 600 1046 574 1064 q 626 981 626 1028 l 626 968 q 600 905 626 922 q 534 888 573 888 z "},"ũ":{"ha":788,"x_min":102,"x_max":686,"o":"m 287 -13 q 153 50 205 -13 q 102 218 102 112 l 102 758 l 279 758 l 279 260 q 300 164 279 196 q 364 131 321 131 q 440 158 403 131 q 509 239 477 186 l 509 758 l 686 758 l 686 0 l 509 0 l 509 114 l 477 114 q 404 21 457 54 q 287 -13 351 -13 m 489 896 q 417 917 444 896 q 370 965 390 937 q 339 1011 354 990 q 304 1032 324 1032 q 271 1009 284 1032 q 260 929 259 987 l 260 909 l 143 909 l 143 928 q 185 1093 143 1029 q 303 1158 227 1158 q 373 1138 346 1158 q 420 1090 400 1119 q 451 1043 437 1064 q 484 1021 466 1021 q 516 1044 504 1021 q 529 1125 529 1067 l 529 1145 l 646 1145 l 646 1126 q 605 960 646 1024 q 489 896 563 896 z "},"ū":{"ha":788,"x_min":102,"x_max":686,"o":"m 287 -13 q 153 50 205 -13 q 102 218 102 112 l 102 758 l 279 758 l 279 260 q 300 164 279 196 q 364 131 321 131 q 440 158 403 131 q 509 239 477 186 l 509 758 l 686 758 l 686 0 l 509 0 l 509 114 l 477 114 q 404 21 457 54 q 287 -13 351 -13 m 165 941 l 165 1080 l 622 1080 l 622 941 l 165 941 z "},"ŭ":{"ha":788,"x_min":102,"x_max":686,"o":"m 287 -13 q 153 50 205 -13 q 102 218 102 112 l 102 758 l 279 758 l 279 260 q 300 164 279 196 q 364 131 321 131 q 440 158 403 131 q 509 239 477 186 l 509 758 l 686 758 l 686 0 l 509 0 l 509 114 l 477 114 q 404 21 457 54 q 287 -13 351 -13 m 402 875 q 201 943 270 875 q 131 1153 133 1010 l 280 1153 q 309 1028 282 1063 q 402 992 337 992 q 494 1028 466 992 q 523 1153 521 1063 l 672 1153 q 602 943 670 1010 q 402 875 533 875 z "},"ů":{"ha":788,"x_min":102,"x_max":686,"o":"m 287 -13 q 153 50 205 -13 q 102 218 102 112 l 102 758 l 279 758 l 279 260 q 300 164 279 196 q 364 131 321 131 q 440 158 403 131 q 509 239 477 186 l 509 758 l 686 758 l 686 0 l 509 0 l 509 114 l 477 114 q 404 21 457 54 q 287 -13 351 -13 m 402 861 q 254 907 311 861 q 197 1048 197 952 l 197 1088 q 254 1232 197 1186 q 402 1279 311 1279 q 550 1232 494 1279 q 606 1088 606 1186 l 606 1048 q 549 907 606 952 q 402 861 492 861 m 402 958 q 461 979 441 958 q 481 1048 481 1000 l 481 1088 q 461 1158 481 1135 q 402 1182 441 1182 q 342 1158 362 1182 q 322 1088 322 1135 l 322 1048 q 342 979 322 1000 q 402 958 362 958 z "},"ű":{"ha":788,"x_min":102,"x_max":688,"o":"m 287 -13 q 153 50 205 -13 q 102 218 102 112 l 102 758 l 279 758 l 279 260 q 300 164 279 196 q 364 131 321 131 q 440 158 403 131 q 509 239 477 186 l 509 758 l 686 758 l 686 0 l 509 0 l 509 114 l 477 114 q 404 21 457 54 q 287 -13 351 -13 m 453 884 l 505 1136 l 688 1136 l 549 884 l 453 884 m 211 884 l 263 1136 l 446 1136 l 307 884 l 211 884 z "},"ų":{"ha":788,"x_min":102,"x_max":753,"o":"m 626 -275 q 494 -235 543 -275 q 446 -121 446 -194 q 493 -3 446 -56 q 604 72 540 49 l 631 29 q 587 -23 598 5 q 576 -80 576 -52 q 595 -131 576 -114 q 654 -148 615 -148 q 699 -144 673 -148 q 753 -135 725 -140 l 753 -261 q 688 -271 721 -268 q 626 -275 654 -275 m 287 -13 q 153 50 205 -13 q 102 218 102 112 l 102 758 l 279 758 l 279 260 q 300 164 279 196 q 364 131 321 131 q 440 158 403 131 q 509 239 477 186 l 509 758 l 686 758 l 686 0 l 509 0 l 509 114 l 477 114 q 404 21 457 54 q 287 -13 351 -13 z "},"v":{"ha":788,"x_min":82,"x_max":705,"o":"m 510 0 l 278 0 l 82 758 l 254 758 l 396 149 l 540 758 l 705 758 l 510 0 z "},"w":{"ha":788,"x_min":45,"x_max":744,"o":"m 480 0 l 394 426 l 313 0 l 149 0 l 45 758 l 198 758 l 258 203 l 331 628 l 452 628 l 534 210 l 590 758 l 744 758 l 639 0 l 480 0 z "},"":{"ha":788,"x_min":45,"x_max":744,"o":"m 480 0 l 394 426 l 313 0 l 149 0 l 45 758 l 198 758 l 258 203 l 331 628 l 452 628 l 534 210 l 590 758 l 744 758 l 639 0 l 480 0 z "},"ŵ":{"ha":788,"x_min":45,"x_max":744,"o":"m 480 0 l 394 426 l 313 0 l 149 0 l 45 758 l 198 758 l 258 203 l 331 628 l 452 628 l 534 210 l 590 758 l 744 758 l 639 0 l 480 0 m 201 884 l 139 970 l 333 1162 l 467 1162 l 664 970 l 604 885 l 400 1023 l 201 884 z "},"ẁ":{"ha":788,"x_min":45,"x_max":744,"o":"m 480 0 l 394 426 l 313 0 l 149 0 l 45 758 l 198 758 l 258 203 l 331 628 l 452 628 l 534 210 l 590 758 l 744 758 l 639 0 l 480 0 m 380 884 l 154 1136 l 384 1136 l 505 884 l 380 884 z "},"ẃ":{"ha":788,"x_min":45,"x_max":744,"o":"m 480 0 l 394 426 l 313 0 l 149 0 l 45 758 l 198 758 l 258 203 l 331 628 l 452 628 l 534 210 l 590 758 l 744 758 l 639 0 l 480 0 m 294 884 l 417 1136 l 646 1136 l 419 884 l 294 884 z "},"ẅ":{"ha":788,"x_min":45,"x_max":744,"o":"m 480 0 l 394 426 l 313 0 l 149 0 l 45 758 l 198 758 l 258 203 l 331 628 l 452 628 l 534 210 l 590 758 l 744 758 l 639 0 l 480 0 m 269 888 q 203 905 229 888 q 177 968 177 922 l 177 981 q 203 1046 177 1028 q 269 1064 229 1064 q 336 1046 311 1064 q 361 981 361 1028 l 361 968 q 335 905 361 922 q 269 888 309 888 m 534 888 q 467 905 492 888 q 442 968 442 922 l 442 981 q 467 1046 442 1028 q 534 1064 492 1064 q 600 1046 574 1064 q 626 981 626 1028 l 626 968 q 600 905 626 922 q 534 888 573 888 z "},"x":{"ha":788,"x_min":80,"x_max":706,"o":"m 524 0 l 385 242 l 259 0 l 80 0 l 306 384 l 93 758 l 274 758 l 399 539 l 515 758 l 694 758 l 482 393 l 706 0 l 524 0 z "},"y":{"ha":788,"x_min":67,"x_max":720,"o":"m 226 -263 q 156 -259 193 -263 q 77 -249 119 -255 l 91 -114 q 159 -126 129 -122 q 213 -130 189 -130 q 309 -99 275 -130 q 361 4 342 -68 l 364 18 l 256 18 l 67 758 l 249 758 l 395 146 l 544 758 l 720 758 l 516 -10 q 410 -205 481 -146 q 226 -263 338 -263 z "},"":{"ha":788,"x_min":67,"x_max":720,"o":"m 226 -263 q 156 -259 193 -263 q 77 -249 119 -255 l 91 -114 q 159 -126 129 -122 q 213 -130 189 -130 q 309 -99 275 -130 q 361 4 342 -68 l 364 18 l 256 18 l 67 758 l 249 758 l 395 146 l 544 758 l 720 758 l 516 -10 q 410 -205 481 -146 q 226 -263 338 -263 z "},"ý":{"ha":788,"x_min":67,"x_max":720,"o":"m 226 -263 q 156 -259 193 -263 q 77 -249 119 -255 l 91 -114 q 159 -126 129 -122 q 213 -130 189 -130 q 309 -99 275 -130 q 361 4 342 -68 l 364 18 l 256 18 l 67 758 l 249 758 l 395 146 l 544 758 l 720 758 l 516 -10 q 410 -205 481 -146 q 226 -263 338 -263 m 268 884 l 390 1136 l 620 1136 l 393 884 l 268 884 z "},"ÿ":{"ha":788,"x_min":67,"x_max":720,"o":"m 226 -263 q 156 -259 193 -263 q 77 -249 119 -255 l 91 -114 q 159 -126 129 -122 q 213 -130 189 -130 q 309 -99 275 -130 q 361 4 342 -68 l 364 18 l 256 18 l 67 758 l 249 758 l 395 146 l 544 758 l 720 758 l 516 -10 q 410 -205 481 -146 q 226 -263 338 -263 m 261 888 q 195 905 221 888 q 169 968 169 922 l 169 981 q 195 1046 169 1028 q 261 1064 221 1064 q 328 1046 303 1064 q 354 981 354 1028 l 354 968 q 328 905 354 922 q 261 888 302 888 m 527 888 q 460 905 485 888 q 434 968 434 922 l 434 981 q 460 1046 434 1028 q 527 1064 485 1064 q 593 1046 567 1064 q 619 981 619 1028 l 619 968 q 592 905 619 922 q 527 888 566 888 z "},"ŷ":{"ha":788,"x_min":67,"x_max":720,"o":"m 226 -263 q 156 -259 193 -263 q 77 -249 119 -255 l 91 -114 q 159 -126 129 -122 q 213 -130 189 -130 q 309 -99 275 -130 q 361 4 342 -68 l 364 18 l 256 18 l 67 758 l 249 758 l 395 146 l 544 758 l 720 758 l 516 -10 q 410 -205 481 -146 q 226 -263 338 -263 m 193 884 l 131 970 l 326 1162 l 460 1162 l 657 970 l 596 885 l 393 1023 l 193 884 z "},"ỳ":{"ha":788,"x_min":67,"x_max":720,"o":"m 226 -263 q 156 -259 193 -263 q 77 -249 119 -255 l 91 -114 q 159 -126 129 -122 q 213 -130 189 -130 q 309 -99 275 -130 q 361 4 342 -68 l 364 18 l 256 18 l 67 758 l 249 758 l 395 146 l 544 758 l 720 758 l 516 -10 q 410 -205 481 -146 q 226 -263 338 -263 m 380 884 l 154 1136 l 384 1136 l 505 884 l 380 884 z "},"z":{"ha":788,"x_min":116,"x_max":673,"o":"m 673 0 l 116 0 l 116 135 l 484 622 l 116 622 l 116 758 l 673 758 l 673 622 l 317 135 l 673 135 l 673 0 z "},"ź":{"ha":788,"x_min":116,"x_max":673,"o":"m 673 0 l 116 0 l 116 135 l 484 622 l 116 622 l 116 758 l 673 758 l 673 622 l 317 135 l 673 135 l 673 0 m 287 884 l 409 1136 l 639 1136 l 412 884 l 287 884 z "},"ż":{"ha":788,"x_min":116,"x_max":673,"o":"m 673 0 l 116 0 l 116 135 l 484 622 l 116 622 l 116 758 l 673 758 l 673 622 l 317 135 l 673 135 l 673 0 m 396 888 q 309 905 342 888 q 275 968 275 922 l 275 981 q 309 1046 275 1028 q 396 1064 342 1064 q 484 1046 451 1064 q 518 981 518 1028 l 518 968 q 484 905 518 922 q 396 888 449 888 z "},"ž":{"ha":788,"x_min":116,"x_max":673,"o":"m 673 0 l 116 0 l 116 135 l 484 622 l 116 622 l 116 758 l 673 758 l 673 622 l 317 135 l 673 135 l 673 0 m 324 889 l 128 1081 l 188 1167 l 391 1029 l 591 1167 l 653 1081 l 458 889 l 324 889 z "},"ª":{"ha":788,"x_min":109,"x_max":712,"o":"m 330 495 q 398 509 365 495 q 456 559 431 524 l 456 645 l 324 645 q 272 629 290 645 q 254 569 254 614 q 271 514 254 533 q 330 495 289 495 m 297 389 q 164 434 218 389 q 109 561 109 480 q 163 691 109 645 q 307 737 217 737 l 456 737 l 456 806 q 433 884 456 857 q 364 912 410 912 q 295 893 319 912 q 256 812 271 874 l 121 840 q 196 978 139 933 q 367 1023 254 1023 q 543 973 479 1023 q 607 814 607 924 l 607 587 q 631 520 607 534 q 712 514 654 505 l 712 399 q 585 407 633 386 q 520 496 537 428 l 496 496 q 416 419 471 449 q 297 389 361 389 z "},"º":{"ha":788,"x_min":139,"x_max":649,"o":"m 394 389 q 208 449 277 389 q 139 621 139 509 l 139 784 q 208 961 139 899 q 395 1023 278 1023 q 580 961 511 1023 q 649 784 649 899 l 649 621 q 580 449 649 509 q 394 389 511 389 m 394 504 q 474 533 451 504 q 497 628 497 562 l 497 783 q 474 876 497 845 q 394 907 451 907 q 314 876 338 907 q 289 782 289 845 l 289 628 q 314 533 289 562 q 394 504 338 504 z "},"ß":{"ha":788,"x_min":71,"x_max":735,"o":"m 511 -8 q 396 16 452 -8 q 301 82 340 40 l 348 196 q 422 139 384 163 q 499 115 460 115 q 559 136 538 115 q 580 203 580 157 q 554 270 580 247 q 463 319 529 293 q 347 398 384 351 q 309 523 309 444 q 357 667 309 611 q 484 736 404 723 q 447 850 479 816 q 361 885 415 885 q 274 846 307 885 q 241 720 241 807 l 241 0 l 71 0 l 71 736 q 153 949 71 879 q 359 1020 235 1020 q 571 935 494 1020 q 648 717 648 850 l 648 645 q 510 618 556 644 q 465 542 465 592 q 494 477 465 499 q 588 429 524 456 q 699 348 664 396 q 735 220 735 299 q 672 52 735 111 q 511 -8 610 -8 z "},"æ":{"ha":788,"x_min":49,"x_max":739,"o":"m 739 186 q 671 36 720 85 q 543 -13 622 -13 q 449 13 489 -13 q 388 92 409 39 l 360 92 q 304 18 341 48 q 212 -13 268 -13 q 97 41 144 -13 q 49 201 49 95 q 100 364 49 307 q 235 420 152 420 l 337 420 l 337 521 q 321 614 337 583 q 270 645 304 645 q 224 622 239 645 q 192 530 210 600 l 64 561 q 131 720 85 669 q 260 770 178 770 q 343 749 308 770 q 399 683 379 729 q 463 749 424 727 q 548 770 501 770 q 687 705 635 770 q 739 509 739 640 l 739 345 l 472 345 l 472 221 q 487 134 472 164 q 537 104 501 104 q 585 126 568 104 q 610 203 601 148 l 739 186 m 472 524 l 472 443 l 607 443 l 607 518 q 592 622 607 590 q 542 655 576 655 q 490 624 508 655 q 472 524 472 592 m 337 167 l 337 322 l 270 322 q 215 298 235 322 q 194 212 194 274 q 208 131 194 159 q 251 102 222 102 q 296 119 275 102 q 337 167 317 136 z "},"ǽ":{"ha":788,"x_min":49,"x_max":739,"o":"m 739 186 q 671 36 720 85 q 543 -13 622 -13 q 449 13 489 -13 q 388 92 409 39 l 360 92 q 304 18 341 48 q 212 -13 268 -13 q 97 41 144 -13 q 49 201 49 95 q 100 364 49 307 q 235 420 152 420 l 337 420 l 337 521 q 321 614 337 583 q 270 645 304 645 q 224 622 239 645 q 192 530 210 600 l 64 561 q 131 720 85 669 q 260 770 178 770 q 343 749 308 770 q 399 683 379 729 q 463 749 424 727 q 548 770 501 770 q 687 705 635 770 q 739 509 739 640 l 739 345 l 472 345 l 472 221 q 487 134 472 164 q 537 104 501 104 q 585 126 568 104 q 610 203 601 148 l 739 186 m 472 524 l 472 443 l 607 443 l 607 518 q 592 622 607 590 q 542 655 576 655 q 490 624 508 655 q 472 524 472 592 m 337 167 l 337 322 l 270 322 q 215 298 235 322 q 194 212 194 274 q 208 131 194 159 q 251 102 222 102 q 296 119 275 102 q 337 167 317 136 m 341 884 l 463 1136 l 693 1136 l 466 884 l 341 884 z "},"ð":{"ha":788,"x_min":95,"x_max":693,"o":"m 394 -13 q 177 59 260 -13 q 95 278 95 131 l 95 369 q 162 561 95 490 q 335 631 229 631 q 444 604 402 631 q 503 538 486 576 l 525 538 q 498 675 520 616 q 437 777 476 734 l 253 678 l 253 787 l 355 842 q 277 886 321 866 q 181 923 234 907 l 280 1037 q 407 987 350 1014 q 508 924 463 960 l 674 1014 l 674 905 l 582 855 q 667 691 640 785 q 693 472 693 597 l 693 285 q 611 59 693 130 q 394 -13 529 -13 m 395 122 q 489 160 461 122 q 516 271 516 197 l 516 359 q 489 461 516 427 q 395 495 461 495 q 301 461 328 495 q 274 359 274 427 l 274 271 q 301 160 274 197 q 395 122 328 122 z "},"ø":{"ha":788,"x_min":95,"x_max":693,"o":"m 258 273 q 261 220 258 242 q 274 182 265 198 l 455 630 q 427 636 442 634 q 394 639 412 639 q 290 602 322 639 q 258 484 258 564 l 258 273 m 394 119 q 498 154 466 119 q 530 273 530 189 l 530 485 q 527 535 530 513 q 515 573 524 557 l 336 126 q 363 121 348 122 q 394 119 378 119 m 394 -13 q 345 -9 370 -13 q 298 -1 321 -6 l 244 -126 l 124 -126 l 197 43 q 122 134 149 76 q 95 265 95 193 l 95 487 q 177 697 95 624 q 395 770 259 770 q 444 767 419 770 q 492 759 470 764 l 545 884 l 665 884 l 592 713 q 666 621 639 679 q 693 487 693 562 l 693 265 q 612 59 693 130 q 394 -13 530 -13 z "},"ǿ":{"ha":788,"x_min":95,"x_max":693,"o":"m 258 273 q 261 220 258 242 q 274 182 265 198 l 455 630 q 427 636 442 634 q 394 639 412 639 q 290 602 322 639 q 258 484 258 564 l 258 273 m 394 119 q 498 154 466 119 q 530 273 530 189 l 530 485 q 527 535 530 513 q 515 573 524 557 l 336 126 q 363 121 348 122 q 394 119 378 119 m 394 -13 q 345 -9 370 -13 q 298 -1 321 -6 l 244 -126 l 124 -126 l 197 43 q 122 134 149 76 q 95 265 95 193 l 95 487 q 177 697 95 624 q 395 770 259 770 q 444 767 419 770 q 492 759 470 764 l 545 884 l 665 884 l 592 713 q 666 621 639 679 q 693 487 693 562 l 693 265 q 612 59 693 130 q 394 -13 530 -13 m 294 884 l 417 1136 l 646 1136 l 419 884 l 294 884 z "},"þ":{"ha":788,"x_min":102,"x_max":686,"o":"m 394 122 q 481 155 453 122 q 509 261 509 188 l 509 504 q 486 597 509 568 q 418 626 463 626 q 345 604 379 626 q 279 534 311 582 l 279 165 q 335 133 308 143 q 394 122 362 122 m 422 -11 q 347 -3 384 -11 q 279 23 311 6 l 279 -253 l 102 -253 l 102 1010 l 279 1010 l 279 644 l 311 644 q 379 737 331 703 q 495 770 428 770 q 636 705 586 770 q 686 520 686 639 l 686 260 q 616 61 686 133 q 422 -11 547 -11 z "},"đ":{"ha":788,"x_min":102,"x_max":792,"o":"m 370 131 q 443 154 408 131 q 509 223 477 177 l 509 524 q 451 554 481 544 q 390 563 422 563 q 307 530 335 563 q 279 424 279 496 l 279 269 q 302 166 279 201 q 370 131 326 131 m 477 114 q 408 21 457 56 q 290 -13 360 -13 q 151 56 199 -13 q 102 246 102 125 l 102 426 q 170 626 102 554 q 359 697 237 697 q 439 686 402 697 q 509 659 477 676 l 509 783 l 327 783 l 327 893 l 509 893 l 509 1010 l 686 1010 l 686 893 l 792 893 l 792 783 l 686 783 l 686 0 l 509 0 l 509 114 l 477 114 z "},"ħ":{"ha":788,"x_min":-4,"x_max":686,"o":"m 279 442 l 279 0 l 102 0 l 102 783 l -4 783 l -4 893 l 102 893 l 102 1010 l 279 1010 l 279 893 l 461 893 l 461 783 l 279 783 l 279 568 l 311 568 q 384 664 333 630 q 500 698 434 698 q 636 640 587 698 q 686 481 686 582 l 686 0 l 509 0 l 509 437 q 489 525 509 495 q 426 554 468 554 q 350 526 386 554 q 279 442 313 497 z "},"ı":{"ha":788,"x_min":109,"x_max":679,"o":"m 109 0 l 109 135 l 306 135 l 306 622 l 109 622 l 109 758 l 482 758 l 482 135 l 679 135 l 679 0 l 109 0 z "},"ĳ":{"ha":788,"x_min":76,"x_max":715,"o":"m 189 888 q 107 905 139 888 q 76 968 76 922 l 76 981 q 107 1046 76 1028 q 189 1064 139 1064 q 271 1046 240 1064 q 302 981 302 1028 l 302 968 q 270 905 302 922 q 189 888 239 888 m 601 888 q 519 905 551 888 q 487 968 487 922 l 487 981 q 519 1046 487 1028 q 601 1064 551 1064 q 683 1046 652 1064 q 715 981 715 1028 l 715 968 q 683 905 715 922 q 601 888 652 888 m 277 0 l 114 0 l 114 758 l 277 758 l 277 0 m 434 -264 q 355 -258 395 -264 q 277 -236 316 -251 l 298 -101 q 360 -121 331 -115 q 415 -128 389 -128 q 497 -95 467 -128 q 528 13 528 -63 l 528 622 l 391 622 l 391 758 l 691 758 l 691 -6 q 616 -200 691 -136 q 434 -264 540 -264 z "},"ĸ":{"ha":788,"x_min":126,"x_max":710,"o":"m 303 332 l 303 0 l 126 0 l 126 758 l 303 758 l 303 458 l 347 458 l 521 758 l 710 758 l 490 410 l 706 0 l 515 0 l 347 332 l 303 332 z "},"ŀ":{"ha":788,"x_min":116,"x_max":878,"o":"m 116 0 l 116 135 l 319 135 l 319 875 l 116 875 l 116 1010 l 497 1010 l 497 135 l 693 135 l 693 0 l 116 0 m 756 400 q 669 417 702 400 q 635 481 635 434 l 635 494 q 669 559 635 540 q 756 577 702 577 q 844 559 811 577 q 878 494 878 540 l 878 481 q 843 417 878 434 q 756 400 809 400 z "},"ł":{"ha":788,"x_min":116,"x_max":693,"o":"m 116 0 l 116 135 l 319 135 l 319 431 l 154 379 l 154 496 l 319 548 l 319 875 l 116 875 l 116 1010 l 497 1010 l 497 604 l 612 640 l 612 521 l 497 486 l 497 135 l 693 135 l 693 0 l 116 0 z "},"ŉ":{"ha":788,"x_min":-5,"x_max":686,"o":"m 102 0 l 102 758 l 279 758 l 279 644 l 311 644 q 385 737 335 703 q 500 770 436 770 q 636 709 587 770 q 686 539 686 648 l 686 0 l 509 0 l 509 506 q 487 595 509 564 q 423 626 465 626 q 345 601 383 626 q 279 528 308 576 l 279 0 l 102 0 m -5 884 l 117 1136 l 347 1136 l 120 884 l -5 884 z "},"ŋ":{"ha":788,"x_min":102,"x_max":687,"o":"m 444 -264 q 374 -256 409 -264 q 303 -236 338 -249 l 324 -101 q 378 -121 352 -114 q 424 -128 403 -128 q 486 -97 463 -128 q 509 4 509 -67 l 509 511 q 487 597 509 568 q 423 626 466 626 q 345 601 383 626 q 279 528 308 576 l 279 0 l 102 0 l 102 758 l 279 758 l 279 644 l 311 644 q 388 737 336 705 q 501 770 439 770 q 636 710 587 770 q 686 543 686 650 l 687 -14 q 614 -203 687 -143 q 444 -264 542 -264 z "},"œ":{"ha":788,"x_min":62,"x_max":732,"o":"m 732 177 q 671 31 717 74 q 543 -13 625 -13 q 451 9 491 -13 q 386 74 410 32 q 328 9 364 32 q 247 -13 292 -13 q 115 52 168 -13 q 62 247 62 116 l 62 505 q 116 705 62 640 q 249 770 169 770 q 328 748 292 770 q 385 683 364 726 q 449 748 409 726 q 537 770 489 770 q 673 711 620 770 q 726 527 726 652 l 726 345 l 460 345 l 460 206 q 476 128 460 153 q 529 104 492 104 q 583 122 564 104 q 610 194 602 140 l 732 177 m 460 547 l 460 443 l 583 443 l 583 539 q 569 624 583 597 q 521 652 556 652 q 475 626 490 652 q 460 547 460 601 m 265 115 q 313 145 298 115 q 327 246 327 176 l 327 511 q 313 610 327 578 q 265 643 298 643 q 219 610 234 643 q 205 510 205 577 l 205 246 q 219 145 205 176 q 265 115 234 115 z "},"ŧ":{"ha":788,"x_min":93,"x_max":683,"o":"m 511 -13 q 319 54 388 -13 q 251 241 251 121 l 251 341 l 120 341 l 120 467 l 251 467 l 251 622 l 93 622 l 93 758 l 251 758 l 251 1010 l 428 1010 l 428 758 l 673 758 l 673 622 l 428 622 l 428 467 l 648 467 l 648 341 l 428 341 l 428 258 q 455 160 428 193 q 534 128 482 128 q 602 135 569 128 q 662 153 635 143 l 683 18 q 610 -4 657 5 q 511 -13 563 -13 z "},"ſ":{"ha":788,"x_min":179,"x_max":703,"o":"m 306 0 l 306 622 l 179 622 l 179 758 l 306 758 l 306 804 q 377 976 306 917 q 554 1035 448 1035 q 629 1027 590 1035 q 703 1004 668 1018 l 682 880 q 625 898 652 891 q 577 904 598 904 q 508 878 533 904 q 482 797 482 852 l 482 0 l 306 0 z "},"ȷ":{"ha":788,"x_min":96,"x_max":581,"o":"m 283 -264 q 189 -258 236 -264 q 96 -236 143 -253 l 116 -101 q 194 -122 158 -117 q 263 -128 231 -128 q 366 -95 328 -128 q 404 13 404 -63 l 404 622 l 131 622 l 131 758 l 581 758 l 581 -6 q 497 -197 581 -130 q 283 -264 414 -264 z "},"":{"ha":788,"x_min":96,"x_max":581,"o":"m 283 -264 q 189 -258 236 -264 q 96 -236 143 -253 l 116 -101 q 194 -122 158 -117 q 263 -128 231 -128 q 366 -95 328 -128 q 404 13 404 -63 l 404 622 l 131 622 l 131 758 l 581 758 l 581 -6 q 497 -197 581 -130 q 283 -264 414 -264 z "},"α":{"ha":788,"x_min":98,"x_max":732,"o":"m 354 131 q 416 152 388 131 q 470 216 444 173 l 470 543 q 415 606 443 586 q 352 626 386 626 q 296 595 316 626 q 277 495 277 563 l 277 260 q 296 163 277 194 q 354 131 316 131 m 528 131 l 496 131 q 413 25 467 63 q 289 -13 359 -13 q 150 53 202 -13 q 98 239 98 119 l 98 511 q 148 702 98 633 q 279 771 197 771 q 377 741 336 771 q 439 653 418 711 l 470 653 l 470 758 l 648 758 l 648 216 q 668 141 648 158 q 732 134 688 125 l 732 0 q 592 15 643 -18 q 528 131 540 47 z "},"ά":{"ha":788,"x_min":98,"x_max":732,"o":"m 354 131 q 416 152 388 131 q 470 216 444 173 l 470 543 q 415 606 443 586 q 352 626 386 626 q 296 595 316 626 q 277 495 277 563 l 277 260 q 296 163 277 194 q 354 131 316 131 m 528 131 l 496 131 q 413 25 467 63 q 289 -13 359 -13 q 150 53 202 -13 q 98 239 98 119 l 98 511 q 148 702 98 633 q 279 771 197 771 q 377 741 336 771 q 439 653 418 711 l 470 653 l 470 758 l 648 758 l 648 216 q 668 141 648 158 q 732 134 688 125 l 732 0 q 592 15 643 -18 q 528 131 540 47 m 348 884 l 407 1136 l 626 1136 l 462 884 l 348 884 z "},"β":{"ha":788,"x_min":102,"x_max":686,"o":"m 391 125 q 476 160 444 125 q 508 279 508 196 l 508 341 q 477 447 508 415 q 384 479 447 479 l 340 479 l 340 597 l 379 597 q 453 624 429 597 q 477 711 477 652 l 477 759 q 453 854 477 824 q 378 883 429 883 q 302 850 324 883 q 279 744 279 817 l 279 165 q 330 135 303 145 q 391 125 357 125 m 422 -13 q 347 -4 383 -13 q 279 19 311 4 l 279 -253 l 102 -253 l 102 740 q 176 950 102 878 q 378 1023 249 1023 q 577 961 501 1023 q 653 787 653 899 l 653 741 q 617 627 653 673 q 503 566 581 581 l 503 529 q 638 468 591 520 q 686 336 686 417 l 686 264 q 612 60 686 133 q 422 -13 539 -13 z "},"γ":{"ha":788,"x_min":67,"x_max":720,"o":"m 500 -253 l 288 -253 l 306 25 l 67 758 l 247 758 l 394 210 l 542 758 l 720 758 l 482 25 l 500 -253 z "},"δ":{"ha":788,"x_min":101,"x_max":687,"o":"m 394 -13 q 181 56 261 -13 q 101 261 101 124 l 101 393 q 141 523 101 470 q 255 611 181 577 q 161 686 189 644 q 133 793 133 727 q 200 955 133 899 q 390 1010 268 1010 l 600 1010 l 600 875 l 403 875 q 327 859 352 875 q 302 797 302 842 q 341 731 302 754 q 471 674 380 708 q 635 573 583 630 q 687 407 687 516 l 687 261 q 607 56 687 124 q 394 -13 527 -13 m 394 122 q 481 155 452 122 q 510 261 510 187 l 510 407 q 475 503 510 468 q 361 564 441 537 q 301 504 323 543 q 278 403 278 466 l 278 261 q 307 155 278 187 q 394 122 336 122 z "},"ε":{"ha":788,"x_min":95,"x_max":706,"o":"m 405 -13 q 172 42 249 -13 q 95 206 95 96 l 95 222 q 136 331 95 285 q 260 384 177 378 l 260 412 q 153 451 192 417 q 114 548 114 486 l 114 569 q 188 721 114 672 q 405 770 261 770 q 609 715 540 770 q 687 534 678 659 l 525 524 q 492 620 519 592 q 405 648 466 648 q 318 627 343 648 q 292 558 292 606 l 292 540 q 317 475 292 494 q 403 457 342 457 l 462 457 l 462 347 l 403 347 q 299 322 326 347 q 273 240 273 297 l 273 227 q 302 141 273 168 q 405 115 331 115 q 507 145 477 115 q 544 247 537 174 l 706 239 q 633 48 697 109 q 405 -13 568 -13 z "},"έ":{"ha":788,"x_min":95,"x_max":706,"o":"m 405 -13 q 172 42 249 -13 q 95 206 95 96 l 95 222 q 136 331 95 285 q 260 384 177 378 l 260 412 q 153 451 192 417 q 114 548 114 486 l 114 569 q 188 721 114 672 q 405 770 261 770 q 609 715 540 770 q 687 534 678 659 l 525 524 q 492 620 519 592 q 405 648 466 648 q 318 627 343 648 q 292 558 292 606 l 292 540 q 317 475 292 494 q 403 457 342 457 l 462 457 l 462 347 l 403 347 q 299 322 326 347 q 273 240 273 297 l 273 227 q 302 141 273 168 q 405 115 331 115 q 507 145 477 115 q 544 247 537 174 l 706 239 q 633 48 697 109 q 405 -13 568 -13 m 317 884 l 375 1136 l 595 1136 l 431 884 l 317 884 z "},"ζ":{"ha":788,"x_min":63,"x_max":706,"o":"m 449 -253 l 312 -253 l 312 -121 l 451 -121 q 508 -106 486 -121 q 529 -44 529 -91 q 508 20 529 4 q 451 37 486 37 l 376 37 q 170 106 241 37 q 98 297 98 176 q 133 464 98 390 q 232 624 167 538 l 360 794 l 352 811 q 169 853 240 798 q 63 1011 97 908 l 172 1057 q 277 936 207 962 q 465 938 347 909 l 665 1042 l 706 872 l 511 821 l 360 577 q 299 448 321 505 q 277 328 277 390 q 306 208 277 249 q 393 168 335 168 l 489 168 q 634 117 581 168 q 687 -40 687 67 q 623 -199 687 -145 q 449 -253 559 -253 z "},"η":{"ha":788,"x_min":102,"x_max":686,"o":"m 509 -253 l 509 511 q 487 597 509 568 q 423 626 466 626 q 345 601 383 626 q 279 528 308 576 l 279 0 l 102 0 l 102 758 l 279 758 l 279 644 l 311 644 q 386 736 335 702 q 501 770 437 770 q 637 710 588 770 q 686 543 686 649 l 686 -253 l 509 -253 z "},"ή":{"ha":788,"x_min":102,"x_max":686,"o":"m 509 -253 l 509 511 q 487 597 509 568 q 423 626 466 626 q 345 601 383 626 q 279 528 308 576 l 279 0 l 102 0 l 102 758 l 279 758 l 279 644 l 311 644 q 386 736 335 702 q 501 770 437 770 q 637 710 588 770 q 686 543 686 649 l 686 -253 l 509 -253 m 331 884 l 389 1136 l 609 1136 l 444 884 l 331 884 z "},"θ":{"ha":788,"x_min":102,"x_max":686,"o":"m 394 -13 q 180 62 258 -13 q 102 274 102 136 l 102 731 q 181 946 102 870 q 395 1023 259 1023 q 608 946 530 1023 q 686 731 686 870 l 686 274 q 608 62 686 136 q 394 -13 530 -13 m 271 727 l 271 576 l 516 576 l 516 730 q 488 848 516 809 q 394 888 460 888 q 301 848 330 888 q 271 727 271 808 m 394 122 q 488 160 460 122 q 516 282 516 198 l 516 448 l 271 448 l 271 282 q 301 160 271 198 q 394 122 330 122 z "},"ι":{"ha":788,"x_min":102,"x_max":699,"o":"m 539 -8 q 359 59 426 -8 q 292 239 292 126 l 292 622 l 102 622 l 102 758 l 468 758 l 468 255 q 494 163 468 193 q 567 133 520 133 q 623 140 596 133 q 670 158 650 146 l 699 25 q 619 1 659 9 q 539 -8 578 -8 z "},"ΐ":{"ha":788,"x_min":82,"x_max":699,"o":"m 539 -8 q 359 59 426 -8 q 292 239 292 126 l 292 622 l 102 622 l 102 758 l 468 758 l 468 255 q 494 163 468 193 q 567 133 520 133 q 623 140 596 133 q 670 158 650 146 l 699 25 q 619 1 659 9 q 539 -8 578 -8 m 298 884 l 347 1136 l 509 1136 l 399 884 l 298 884 m 163 880 q 105 897 128 880 q 82 960 82 914 l 82 972 q 105 1037 82 1019 q 163 1056 128 1056 q 222 1037 199 1056 q 245 972 245 1019 l 245 960 q 222 897 245 914 q 163 880 198 880 m 605 880 q 545 897 568 880 q 523 960 523 914 l 523 972 q 545 1037 523 1019 q 605 1056 568 1056 q 664 1037 641 1056 q 686 972 686 1019 l 686 960 q 663 897 686 914 q 605 880 640 880 z "},"ί":{"ha":788,"x_min":102,"x_max":699,"o":"m 539 -8 q 359 59 426 -8 q 292 239 292 126 l 292 622 l 102 622 l 102 758 l 468 758 l 468 255 q 494 163 468 193 q 567 133 520 133 q 623 140 596 133 q 670 158 650 146 l 699 25 q 619 1 659 9 q 539 -8 578 -8 m 303 884 l 361 1136 l 581 1136 l 417 884 l 303 884 z "},"ϊ":{"ha":788,"x_min":102,"x_max":699,"o":"m 539 -8 q 359 59 426 -8 q 292 239 292 126 l 292 622 l 102 622 l 102 758 l 468 758 l 468 255 q 494 163 468 193 q 567 133 520 133 q 623 140 596 133 q 670 158 650 146 l 699 25 q 619 1 659 9 q 539 -8 578 -8 m 256 888 q 190 905 216 888 q 164 968 164 922 l 164 981 q 190 1046 164 1028 q 256 1064 216 1064 q 323 1046 298 1064 q 348 981 348 1028 l 348 968 q 323 905 348 922 q 256 888 297 888 m 521 888 q 455 905 480 888 q 429 968 429 922 l 429 981 q 455 1046 429 1028 q 521 1064 480 1064 q 588 1046 562 1064 q 614 981 614 1028 l 614 968 q 587 905 614 922 q 521 888 561 888 z "},"κ":{"ha":788,"x_min":126,"x_max":710,"o":"m 303 332 l 303 0 l 126 0 l 126 758 l 303 758 l 303 458 l 347 458 l 521 758 l 710 758 l 490 410 l 706 0 l 515 0 l 347 332 l 303 332 z "},"λ":{"ha":788,"x_min":67,"x_max":720,"o":"m 540 0 l 389 625 l 245 0 l 67 0 l 242 718 l 366 718 l 360 746 q 308 852 341 821 q 211 883 275 883 q 166 879 191 883 q 112 871 141 876 l 92 1006 q 158 1015 126 1011 q 221 1018 191 1018 q 406 967 337 1018 q 505 804 475 917 l 720 0 l 540 0 z "},"μ":{"ha":788,"x_min":98,"x_max":729,"o":"m 287 25 l 297 -253 l 98 -253 l 109 25 l 109 758 l 287 758 l 287 253 q 310 161 287 188 q 367 134 333 134 q 427 153 402 134 q 475 207 452 172 l 475 758 l 652 758 l 652 216 q 669 141 652 157 q 729 134 687 125 l 729 0 q 609 10 652 -16 q 549 109 566 37 l 521 109 q 463 21 497 53 q 379 -10 429 -10 q 327 3 351 -10 q 287 39 303 15 l 287 25 z "},"ν":{"ha":788,"x_min":67,"x_max":720,"o":"m 485 0 l 302 0 l 67 758 l 246 758 l 414 160 q 503 464 471 308 q 544 758 535 620 l 720 758 q 636 354 699 544 q 485 0 572 163 z "},"ξ":{"ha":788,"x_min":38,"x_max":693,"o":"m 693 -40 q 628 -199 693 -145 q 449 -253 563 -253 l 327 -253 l 327 -121 l 451 -121 q 513 -106 490 -121 q 535 -44 535 -91 q 513 20 535 4 q 451 37 490 37 l 362 37 q 177 99 245 37 q 109 270 109 162 l 109 299 q 155 432 109 375 q 295 499 202 490 l 295 528 q 203 565 235 528 q 172 657 172 602 q 199 741 172 703 q 288 794 227 778 l 288 823 q 129 874 191 824 q 38 1011 68 923 l 139 1057 q 246 951 179 977 q 424 944 313 924 l 643 1042 l 674 872 l 444 817 l 409 789 q 364 730 378 761 q 350 664 350 699 q 369 597 350 617 q 419 577 389 577 l 598 577 l 598 446 l 414 446 q 316 409 346 446 q 287 318 287 372 l 287 289 q 315 201 287 235 q 405 168 343 168 l 471 168 q 635 117 577 168 q 693 -40 693 67 z "},"ο":{"ha":788,"x_min":104,"x_max":688,"o":"m 396 -13 q 181 59 258 -13 q 104 258 104 130 l 104 495 q 181 698 104 625 q 396 770 259 770 q 610 697 533 770 q 688 494 688 624 l 688 255 q 610 58 688 129 q 396 -13 533 -13 m 396 122 q 484 155 456 122 q 511 261 511 188 l 511 491 q 484 601 511 567 q 396 635 456 635 q 309 601 337 635 q 280 492 280 567 l 280 264 q 309 156 280 189 q 396 122 337 122 z "},"ό":{"ha":788,"x_min":104,"x_max":688,"o":"m 396 -13 q 181 59 258 -13 q 104 258 104 130 l 104 495 q 181 698 104 625 q 396 770 259 770 q 610 697 533 770 q 688 494 688 624 l 688 255 q 610 58 688 129 q 396 -13 533 -13 m 396 122 q 484 155 456 122 q 511 261 511 188 l 511 491 q 484 601 511 567 q 396 635 456 635 q 309 601 337 635 q 280 492 280 567 l 280 264 q 309 156 280 189 q 396 122 337 122 m 302 884 l 360 1136 l 580 1136 l 415 884 l 302 884 z "},"π":{"ha":788,"x_min":45,"x_max":718,"o":"m 705 758 l 705 622 l 606 622 l 606 223 q 630 143 606 162 q 718 134 654 124 l 718 0 q 512 23 581 -21 q 443 177 443 67 l 443 622 l 293 622 l 293 0 l 130 0 l 130 622 l 45 622 l 45 758 l 705 758 z "},"ρ":{"ha":788,"x_min":102,"x_max":686,"o":"m 418 131 q 487 165 465 131 q 509 271 509 199 l 509 496 q 480 600 509 568 q 395 633 451 633 q 309 600 338 633 q 279 496 279 568 l 279 223 q 346 154 311 177 q 418 131 381 131 m 102 -253 l 102 496 q 177 699 102 629 q 391 769 253 769 q 609 699 532 769 q 686 496 686 629 l 686 250 q 631 58 686 129 q 477 -13 576 -13 q 369 21 413 -13 q 311 114 326 54 l 279 114 l 279 -253 l 102 -253 z "},"ς":{"ha":788,"x_min":102,"x_max":688,"o":"m 307 -253 l 307 -117 l 446 -117 q 502 -103 481 -117 q 523 -42 523 -88 q 502 21 523 5 q 446 37 481 37 l 355 37 q 165 110 229 37 q 102 319 102 183 l 102 492 q 177 698 102 626 q 398 770 251 770 q 597 702 532 770 q 677 494 663 634 l 508 481 q 478 601 503 568 q 393 634 453 634 q 304 601 330 634 q 279 491 279 568 l 279 316 q 306 205 279 239 q 399 172 332 172 l 487 172 q 635 121 582 172 q 688 -37 688 71 q 617 -197 688 -141 q 423 -253 545 -253 l 307 -253 z "},"σ":{"ha":788,"x_min":102,"x_max":763,"o":"m 374 122 q 446 155 424 122 q 467 263 467 188 l 467 471 q 446 588 467 551 q 374 626 424 626 q 301 592 323 626 q 279 486 279 557 l 279 263 q 301 155 279 188 q 374 122 323 122 m 374 -13 q 176 57 250 -13 q 102 258 102 126 l 102 487 q 176 686 102 615 q 374 758 250 758 l 763 758 l 763 610 l 581 626 q 628 551 611 596 q 644 448 644 506 l 644 258 q 570 57 644 126 q 374 -13 496 -13 z "},"τ":{"ha":788,"x_min":95,"x_max":703,"o":"m 610 0 q 382 21 458 -23 q 306 177 306 66 l 306 617 l 95 617 l 95 758 l 703 758 l 703 617 l 482 617 l 482 216 q 510 142 482 160 q 610 134 538 124 l 610 0 z "},"υ":{"ha":788,"x_min":102,"x_max":686,"o":"m 395 -13 q 179 60 256 -13 q 102 264 102 133 l 102 758 l 279 758 l 279 265 q 306 160 279 193 q 394 128 332 128 q 482 160 456 128 q 509 264 509 192 l 509 758 l 686 758 l 686 264 q 609 60 686 133 q 395 -13 533 -13 z "},"ΰ":{"ha":788,"x_min":92,"x_max":696,"o":"m 395 -13 q 179 60 256 -13 q 102 264 102 133 l 102 758 l 279 758 l 279 265 q 306 160 279 193 q 394 128 332 128 q 482 160 456 128 q 509 264 509 192 l 509 758 l 686 758 l 686 264 q 609 60 686 133 q 395 -13 533 -13 m 308 884 l 357 1136 l 519 1136 l 409 884 l 308 884 m 173 880 q 115 897 138 880 q 92 960 92 914 l 92 972 q 115 1037 92 1019 q 173 1056 138 1056 q 232 1037 210 1056 q 255 972 255 1019 l 255 960 q 232 897 255 914 q 173 880 208 880 m 615 880 q 556 897 578 880 q 533 960 533 914 l 533 972 q 556 1037 533 1019 q 615 1056 578 1056 q 674 1037 652 1056 q 696 972 696 1019 l 696 960 q 673 897 696 914 q 615 880 650 880 z "},"ϋ":{"ha":788,"x_min":102,"x_max":686,"o":"m 395 -13 q 179 60 256 -13 q 102 264 102 133 l 102 758 l 279 758 l 279 265 q 306 160 279 193 q 394 128 332 128 q 482 160 456 128 q 509 264 509 192 l 509 758 l 686 758 l 686 264 q 609 60 686 133 q 395 -13 533 -13 m 261 888 q 195 905 221 888 q 169 968 169 922 l 169 981 q 195 1046 169 1028 q 261 1064 221 1064 q 328 1046 303 1064 q 354 981 354 1028 l 354 968 q 328 905 354 922 q 261 888 302 888 m 527 888 q 460 905 485 888 q 434 968 434 922 l 434 981 q 460 1046 434 1028 q 527 1064 485 1064 q 593 1046 567 1064 q 619 981 619 1028 l 619 968 q 592 905 619 922 q 527 888 566 888 z "},"ύ":{"ha":788,"x_min":102,"x_max":686,"o":"m 395 -13 q 179 60 256 -13 q 102 264 102 133 l 102 758 l 279 758 l 279 265 q 306 160 279 193 q 394 128 332 128 q 482 160 456 128 q 509 264 509 192 l 509 758 l 686 758 l 686 264 q 609 60 686 133 q 395 -13 533 -13 m 294 884 l 352 1136 l 572 1136 l 408 884 l 294 884 z "},"φ":{"ha":788,"x_min":72,"x_max":716,"o":"m 467 -253 l 330 -253 l 330 -8 q 139 100 206 10 q 72 343 72 189 l 72 462 q 85 638 72 558 q 126 775 98 717 l 268 735 q 233 615 247 684 q 218 462 218 545 l 218 343 q 246 192 218 246 q 336 121 273 138 l 336 758 l 434 758 q 640 669 563 758 q 716 412 716 581 l 716 321 q 648 97 716 181 q 467 -6 581 13 l 467 -253 m 461 630 l 461 121 q 555 184 527 135 q 583 321 583 234 l 583 412 q 554 578 583 525 q 461 630 524 630 z "},"χ":{"ha":788,"x_min":80,"x_max":708,"o":"m 506 -253 l 383 52 l 254 -253 l 80 -253 l 304 247 l 97 758 l 274 758 l 402 447 l 534 758 l 708 758 l 479 253 l 686 -253 l 506 -253 z "},"ψ":{"ha":788,"x_min":72,"x_max":716,"o":"m 467 -253 l 321 -253 l 321 -11 q 133 84 194 5 q 72 292 72 163 l 72 758 l 220 758 l 220 292 q 244 174 220 216 q 328 124 269 133 l 328 758 l 460 758 l 460 124 q 544 174 519 133 q 568 292 568 216 l 568 758 l 716 758 l 716 292 q 655 84 716 163 q 467 -13 593 5 l 467 -253 z "},"ω":{"ha":788,"x_min":72,"x_max":716,"o":"m 232 -13 q 116 65 159 -13 q 72 292 72 143 l 72 449 q 87 640 72 552 q 122 779 102 729 l 265 739 q 235 612 250 692 q 220 449 220 533 l 220 279 q 234 165 220 203 q 273 128 247 128 q 314 156 301 128 q 328 249 328 184 l 328 572 l 460 572 l 460 249 q 473 156 460 184 q 515 128 487 128 q 556 165 543 128 q 568 279 568 203 l 568 449 q 553 612 568 533 q 523 739 538 692 l 665 779 q 701 640 686 729 q 716 449 716 552 l 716 292 q 672 65 716 143 q 554 -13 629 -13 q 463 24 501 -13 q 405 144 426 61 l 380 144 q 327 24 365 61 q 232 -13 289 -13 z "},"ώ":{"ha":788,"x_min":72,"x_max":716,"o":"m 232 -13 q 116 65 159 -13 q 72 292 72 143 l 72 449 q 87 640 72 552 q 122 779 102 729 l 265 739 q 235 612 250 692 q 220 449 220 533 l 220 279 q 234 165 220 203 q 273 128 247 128 q 314 156 301 128 q 328 249 328 184 l 328 572 l 460 572 l 460 249 q 473 156 460 184 q 515 128 487 128 q 556 165 543 128 q 568 279 568 203 l 568 449 q 553 612 568 533 q 523 739 538 692 l 665 779 q 701 640 686 729 q 716 449 716 552 l 716 292 q 672 65 716 143 q 554 -13 629 -13 q 463 24 501 -13 q 405 144 426 61 l 380 144 q 327 24 365 61 q 232 -13 289 -13 m 309 884 l 367 1136 l 587 1136 l 423 884 l 309 884 z "},"а":{"ha":788,"x_min":77,"x_max":739,"o":"m 326 111 q 402 128 369 111 q 463 183 436 145 l 463 314 l 323 314 q 261 292 282 314 q 240 212 240 270 q 260 138 240 164 q 326 111 280 111 m 283 -13 q 134 45 192 -13 q 77 205 77 104 q 138 364 77 307 q 297 420 198 420 l 463 420 l 463 529 q 437 610 463 583 q 357 638 412 638 q 277 612 303 638 q 237 514 251 586 l 92 544 q 179 717 115 663 q 362 770 242 770 q 562 715 490 770 q 634 539 634 659 l 634 211 q 660 138 634 153 q 739 134 687 124 l 739 0 q 600 8 654 -18 q 532 111 547 34 l 504 111 q 414 23 472 59 q 283 -13 355 -13 z "},"б":{"ha":788,"x_min":101,"x_max":688,"o":"m 394 -13 q 181 59 260 -13 q 101 285 101 131 l 101 624 q 174 879 101 792 q 391 989 246 966 l 635 1029 l 652 890 l 418 850 q 306 787 342 836 q 269 639 269 737 l 268 583 l 293 583 q 359 655 316 628 q 467 682 403 682 q 628 616 567 682 q 688 436 688 549 l 688 269 q 609 57 688 128 q 394 -13 529 -13 m 394 122 q 482 158 456 122 q 509 263 509 193 l 509 418 q 482 513 509 481 q 394 545 456 545 q 305 513 331 545 q 279 418 279 481 l 279 263 q 305 158 279 193 q 394 122 331 122 z "},"в":{"ha":788,"x_min":102,"x_max":706,"o":"m 102 0 l 102 758 l 391 758 q 610 712 534 758 q 687 566 687 667 l 687 544 q 648 448 687 482 q 540 408 609 413 l 540 380 q 665 329 624 374 q 706 222 706 284 l 706 206 q 632 52 706 104 q 391 0 558 0 l 102 0 m 271 449 l 399 449 q 491 466 465 449 q 516 530 516 482 l 516 548 q 492 616 516 597 q 399 635 467 635 l 271 635 l 271 449 m 271 128 l 399 128 q 505 152 475 128 q 535 230 535 176 l 535 242 q 506 317 535 294 q 399 340 477 340 l 271 340 l 271 128 z "},"г":{"ha":788,"x_min":148,"x_max":676,"o":"m 148 0 l 148 758 l 676 758 l 676 617 l 324 617 l 324 0 l 148 0 z "},"ѓ":{"ha":788,"x_min":148,"x_max":676,"o":"m 148 0 l 148 758 l 676 758 l 676 617 l 324 617 l 324 0 l 148 0 m 288 884 l 410 1136 l 640 1136 l 413 884 l 288 884 z "},"д":{"ha":788,"x_min":53,"x_max":735,"o":"m 287 170 l 287 140 l 481 140 l 481 617 l 333 617 l 330 342 q 318 245 328 287 q 287 170 307 203 m 216 0 l 216 -189 l 53 -189 l 53 140 l 117 140 q 156 211 143 164 q 170 348 169 259 l 176 758 l 644 758 l 644 140 l 735 140 l 735 -189 l 572 -189 l 572 0 l 216 0 z "},"е":{"ha":788,"x_min":102,"x_max":693,"o":"m 693 170 q 597 30 662 72 q 402 -13 532 -13 q 184 57 265 -13 q 102 259 102 128 l 102 500 q 182 700 102 630 q 395 770 263 770 q 607 698 529 770 q 686 489 686 626 l 686 345 l 279 345 l 279 253 q 309 146 279 181 q 405 112 338 112 q 495 135 463 112 q 543 213 527 158 l 693 170 m 279 509 l 279 451 l 509 451 l 509 500 q 482 614 509 580 q 394 648 456 648 q 306 615 332 648 q 279 509 279 582 z "},"ѐ":{"ha":788,"x_min":102,"x_max":693,"o":"m 693 170 q 597 30 662 72 q 402 -13 532 -13 q 184 57 265 -13 q 102 259 102 128 l 102 500 q 182 700 102 630 q 395 770 263 770 q 607 698 529 770 q 686 489 686 626 l 686 345 l 279 345 l 279 253 q 309 146 279 181 q 405 112 338 112 q 495 135 463 112 q 543 213 527 158 l 693 170 m 279 509 l 279 451 l 509 451 l 509 500 q 482 614 509 580 q 394 648 456 648 q 306 615 332 648 q 279 509 279 582 m 384 884 l 158 1136 l 388 1136 l 509 884 l 384 884 z "},"ё":{"ha":788,"x_min":102,"x_max":693,"o":"m 693 170 q 597 30 662 72 q 402 -13 532 -13 q 184 57 265 -13 q 102 259 102 128 l 102 500 q 182 700 102 630 q 395 770 263 770 q 607 698 529 770 q 686 489 686 626 l 686 345 l 279 345 l 279 253 q 309 146 279 181 q 405 112 338 112 q 495 135 463 112 q 543 213 527 158 l 693 170 m 279 509 l 279 451 l 509 451 l 509 500 q 482 614 509 580 q 394 648 456 648 q 306 615 332 648 q 279 509 279 582 m 261 888 q 195 905 221 888 q 169 968 169 922 l 169 981 q 195 1046 169 1028 q 261 1064 221 1064 q 328 1046 303 1064 q 354 981 354 1028 l 354 968 q 328 905 354 922 q 261 888 302 888 m 527 888 q 460 905 485 888 q 434 968 434 922 l 434 981 q 460 1046 434 1028 q 527 1064 485 1064 q 593 1046 567 1064 q 619 981 619 1028 l 619 968 q 592 905 619 922 q 527 888 566 888 z "},"ж":{"ha":788,"x_min":32,"x_max":755,"o":"m 288 345 l 182 0 l 35 0 l 182 417 l 32 758 l 181 758 l 297 463 l 328 463 l 328 758 l 460 758 l 460 463 l 490 463 l 602 758 l 755 758 l 605 417 l 754 0 l 602 0 l 499 345 l 460 345 l 460 0 l 328 0 l 328 345 l 288 345 z "},"з":{"ha":788,"x_min":95,"x_max":706,"o":"m 396 -13 q 172 46 242 -13 q 95 239 102 105 l 256 247 q 295 137 265 164 q 396 110 324 110 q 500 138 472 110 q 528 227 528 167 l 528 240 q 501 323 528 298 q 398 347 475 347 l 345 347 l 345 457 l 398 457 q 484 475 458 457 q 509 540 509 492 l 509 558 q 484 628 509 609 q 396 648 460 648 q 308 623 333 648 q 275 524 283 598 l 114 534 q 190 715 122 659 q 396 770 258 770 q 616 723 544 770 q 687 569 687 676 l 687 548 q 648 451 687 486 q 540 412 609 417 l 540 384 q 665 331 624 378 q 706 222 706 285 l 706 206 q 632 40 706 93 q 396 -13 558 -13 z "},"и":{"ha":788,"x_min":102,"x_max":686,"o":"m 533 0 l 533 538 l 292 0 l 102 0 l 102 758 l 256 758 l 256 194 l 510 758 l 686 758 l 686 0 l 533 0 z "},"й":{"ha":788,"x_min":102,"x_max":686,"o":"m 533 0 l 533 538 l 292 0 l 102 0 l 102 758 l 256 758 l 256 194 l 510 758 l 686 758 l 686 0 l 533 0 m 394 875 q 207 938 280 875 q 134 1140 134 1001 l 290 1153 q 312 1029 289 1066 q 394 992 335 992 q 476 1029 453 992 q 497 1153 499 1066 l 654 1140 q 581 938 654 1001 q 394 875 508 875 z "},"ѝ":{"ha":788,"x_min":102,"x_max":686,"o":"m 533 0 l 533 538 l 292 0 l 102 0 l 102 758 l 256 758 l 256 194 l 510 758 l 686 758 l 686 0 l 533 0 m 395 884 l 169 1136 l 399 1136 l 520 884 l 395 884 z "},"к":{"ha":788,"x_min":126,"x_max":710,"o":"m 303 332 l 303 0 l 126 0 l 126 758 l 303 758 l 303 458 l 347 458 l 521 758 l 710 758 l 490 410 l 706 0 l 515 0 l 347 332 l 303 332 z "},"ќ":{"ha":788,"x_min":126,"x_max":710,"o":"m 303 332 l 303 0 l 126 0 l 126 758 l 303 758 l 303 458 l 347 458 l 521 758 l 710 758 l 490 410 l 706 0 l 515 0 l 347 332 l 303 332 m 326 884 l 448 1136 l 678 1136 l 451 884 l 326 884 z "},"л":{"ha":788,"x_min":35,"x_max":693,"o":"m 516 0 l 516 622 l 345 622 l 342 293 q 290 61 341 136 q 136 -14 239 -14 q 86 -9 111 -14 q 35 4 61 -4 l 54 138 q 82 129 69 133 q 106 125 95 125 q 158 167 141 125 q 176 309 174 210 l 179 758 l 693 758 l 693 0 l 516 0 z "},"м":{"ha":788,"x_min":91,"x_max":697,"o":"m 331 189 l 229 556 l 244 0 l 91 0 l 91 758 l 277 758 l 398 355 l 518 758 l 697 758 l 697 0 l 544 0 l 559 549 l 458 189 l 331 189 z "},"н":{"ha":788,"x_min":102,"x_max":686,"o":"m 102 0 l 102 758 l 279 758 l 279 496 l 509 496 l 509 758 l 686 758 l 686 0 l 509 0 l 509 357 l 279 357 l 279 0 l 102 0 z "},"о":{"ha":788,"x_min":104,"x_max":688,"o":"m 396 -13 q 181 59 258 -13 q 104 258 104 130 l 104 495 q 181 698 104 625 q 396 770 259 770 q 610 697 533 770 q 688 494 688 624 l 688 255 q 610 58 688 129 q 396 -13 533 -13 m 396 122 q 484 155 456 122 q 511 261 511 188 l 511 491 q 484 601 511 567 q 396 635 456 635 q 309 601 337 635 q 280 492 280 567 l 280 264 q 309 156 280 189 q 396 122 337 122 z "},"п":{"ha":788,"x_min":102,"x_max":686,"o":"m 102 0 l 102 758 l 686 758 l 686 0 l 509 0 l 509 617 l 279 617 l 279 0 l 102 0 z "},"р":{"ha":788,"x_min":102,"x_max":686,"o":"m 395 122 q 481 156 453 122 q 509 261 509 189 l 509 504 q 485 597 509 567 q 418 626 462 626 q 345 604 380 626 q 279 534 311 581 l 279 165 q 336 133 308 144 q 395 122 364 122 m 422 -11 q 348 -3 385 -11 q 279 23 311 6 l 279 -253 l 102 -253 l 102 758 l 279 758 l 279 644 l 311 644 q 379 737 331 703 q 495 770 428 770 q 636 704 586 770 q 686 520 686 638 l 686 260 q 615 62 686 135 q 422 -11 544 -11 z "},"с":{"ha":788,"x_min":102,"x_max":691,"o":"m 405 -13 q 179 59 256 -13 q 102 261 102 130 l 102 495 q 180 698 102 626 q 404 770 258 770 q 609 703 539 770 q 691 501 678 636 l 520 490 q 487 603 515 572 q 399 634 460 634 q 308 601 337 634 q 279 489 279 568 l 279 266 q 308 155 279 188 q 402 122 337 122 q 489 148 462 122 q 520 242 515 174 l 691 231 q 616 47 683 107 q 405 -13 548 -13 z "},"т":{"ha":788,"x_min":85,"x_max":705,"o":"m 306 0 l 306 617 l 85 617 l 85 758 l 705 758 l 705 617 l 482 617 l 482 0 l 306 0 z "},"у":{"ha":788,"x_min":67,"x_max":720,"o":"m 226 -263 q 156 -259 193 -263 q 77 -249 119 -255 l 91 -114 q 159 -126 129 -122 q 213 -130 189 -130 q 309 -99 275 -130 q 361 4 342 -68 l 364 18 l 256 18 l 67 758 l 249 758 l 395 146 l 544 758 l 720 758 l 516 -10 q 410 -205 481 -146 q 226 -263 338 -263 z "},"ў":{"ha":788,"x_min":67,"x_max":720,"o":"m 226 -263 q 156 -259 193 -263 q 77 -249 119 -255 l 91 -114 q 159 -126 129 -122 q 213 -130 189 -130 q 309 -99 275 -130 q 361 4 342 -68 l 364 18 l 256 18 l 67 758 l 249 758 l 395 146 l 544 758 l 720 758 l 516 -10 q 410 -205 481 -146 q 226 -263 338 -263 m 394 875 q 207 938 280 875 q 134 1140 134 1001 l 290 1153 q 312 1029 289 1066 q 394 992 335 992 q 476 1029 453 992 q 497 1153 499 1066 l 654 1140 q 581 938 654 1001 q 394 875 508 875 z "},"ф":{"ha":788,"x_min":72,"x_max":716,"o":"m 500 0 l 467 0 l 467 -253 l 321 -253 l 321 0 l 288 0 q 129 73 186 0 q 72 277 72 146 l 72 482 q 129 685 72 612 q 288 758 186 758 l 321 758 l 321 1010 l 467 1010 l 467 758 l 500 758 q 659 685 602 758 q 716 482 716 612 l 716 275 q 659 73 716 146 q 500 0 602 0 m 309 122 l 333 122 l 333 635 l 309 635 q 241 596 265 635 q 216 477 216 557 l 216 278 q 241 161 216 199 q 309 122 265 122 m 479 635 l 455 635 l 455 122 l 479 122 q 547 161 523 122 q 572 278 572 199 l 572 477 q 547 596 572 557 q 479 635 523 635 z "},"х":{"ha":788,"x_min":80,"x_max":706,"o":"m 524 0 l 385 242 l 259 0 l 80 0 l 306 384 l 93 758 l 274 758 l 399 539 l 515 758 l 694 758 l 482 393 l 706 0 l 524 0 z "},"ц":{"ha":788,"x_min":102,"x_max":742,"o":"m 574 -189 l 574 0 l 102 0 l 102 758 l 279 758 l 279 140 l 481 140 l 481 758 l 659 758 l 659 140 l 742 140 l 742 -189 l 574 -189 z "},"ч":{"ha":788,"x_min":88,"x_max":663,"o":"m 663 758 l 663 0 l 485 0 l 485 249 q 430 236 462 241 q 357 231 398 231 q 156 301 223 231 q 88 506 88 370 l 88 758 l 265 758 l 265 509 q 295 401 265 433 q 384 369 324 369 q 437 374 410 367 q 485 389 465 380 l 485 758 l 663 758 z "},"ш":{"ha":788,"x_min":72,"x_max":716,"o":"m 72 0 l 72 758 l 216 758 l 216 129 l 322 129 l 322 758 l 466 758 l 466 129 l 572 129 l 572 758 l 716 758 l 716 0 l 72 0 z "},"щ":{"ha":788,"x_min":72,"x_max":761,"o":"m 761 -189 l 617 -189 l 617 0 l 72 0 l 72 758 l 216 758 l 216 129 l 322 129 l 322 758 l 466 758 l 466 129 l 572 129 l 572 758 l 716 758 l 716 135 l 761 135 l 761 -189 z "},"ъ":{"ha":788,"x_min":25,"x_max":725,"o":"m 476 0 l 183 0 l 183 617 l 25 617 l 25 758 l 360 758 l 360 521 l 477 521 q 660 461 595 521 q 725 294 725 402 l 725 229 q 659 61 725 121 q 476 0 593 0 m 360 135 l 451 135 q 525 158 501 135 q 548 236 548 182 l 548 293 q 525 367 548 345 q 451 389 501 389 l 360 389 l 360 135 z "},"ы":{"ha":788,"x_min":78,"x_max":710,"o":"m 78 0 l 78 758 l 226 758 l 226 530 l 277 530 q 432 474 376 530 q 489 316 489 418 l 489 225 q 433 59 489 119 q 277 0 378 0 l 78 0 m 562 0 l 562 758 l 710 758 l 710 0 l 562 0 m 226 128 l 268 128 q 331 152 311 128 q 351 234 351 176 l 351 304 q 331 382 351 359 q 268 405 311 405 l 226 405 l 226 128 z "},"ь":{"ha":788,"x_min":98,"x_max":708,"o":"m 98 0 l 98 758 l 277 758 l 277 521 l 446 521 q 640 460 571 521 q 708 289 708 399 l 708 232 q 640 61 708 122 q 446 0 571 0 l 98 0 m 277 135 l 415 135 q 503 158 476 135 q 530 237 530 182 l 530 287 q 503 365 530 341 q 415 389 476 389 l 277 389 l 277 135 z "},"э":{"ha":788,"x_min":90,"x_max":686,"o":"m 384 -13 q 168 47 239 -13 q 90 235 97 107 l 261 247 q 290 145 265 173 q 383 116 314 116 q 480 150 452 116 q 509 260 509 183 l 509 335 l 319 335 l 319 449 l 509 449 l 509 500 q 481 609 509 576 q 385 641 453 641 q 293 612 321 641 q 261 506 265 583 l 90 519 q 174 709 102 648 q 385 770 245 770 q 609 699 532 770 q 686 494 686 629 l 686 268 q 610 60 686 133 q 384 -13 534 -13 z "},"ю":{"ha":788,"x_min":67,"x_max":721,"o":"m 509 -13 q 352 52 405 -13 q 299 232 299 116 l 299 354 l 217 354 l 217 0 l 67 0 l 67 758 l 217 758 l 217 484 l 299 484 l 299 520 q 353 704 299 638 q 510 770 407 770 q 669 703 616 770 q 721 520 721 635 l 721 232 q 668 53 721 119 q 509 -13 615 -13 m 509 119 q 559 145 544 119 q 573 232 573 170 l 573 520 q 559 612 573 585 q 509 639 544 639 q 459 612 473 639 q 444 520 444 585 l 444 232 q 459 145 444 170 q 509 119 473 119 z "},"я":{"ha":788,"x_min":92,"x_max":686,"o":"m 374 381 l 509 381 l 509 626 l 374 626 q 313 603 332 626 q 293 521 293 580 l 293 494 q 313 407 293 432 q 374 381 332 381 m 509 253 l 438 253 l 285 0 l 92 0 l 255 269 q 152 343 187 288 q 116 490 116 399 l 116 521 q 173 698 116 638 q 337 758 230 758 l 686 758 l 686 0 l 509 0 l 509 253 z "},"ђ":{"ha":788,"x_min":-4,"x_max":686,"o":"m 437 -264 q 367 -256 403 -264 q 297 -236 332 -249 l 317 -101 q 371 -121 346 -114 q 418 -128 396 -128 q 484 -97 460 -128 q 509 4 509 -67 l 509 446 q 486 527 509 500 q 424 554 463 554 q 347 527 385 554 q 279 451 309 500 l 279 0 l 102 0 l 102 783 l -4 783 l -4 893 l 102 893 l 102 1010 l 279 1010 l 279 893 l 461 893 l 461 783 l 279 783 l 279 572 l 311 572 q 384 665 335 633 q 500 698 434 698 q 634 641 583 698 q 686 486 686 585 l 686 -14 q 614 -201 686 -138 q 437 -264 543 -264 z "},"є":{"ha":788,"x_min":102,"x_max":698,"o":"m 698 235 q 621 47 691 107 q 409 -13 551 -13 q 181 60 259 -13 q 102 268 102 133 l 102 494 q 182 699 102 628 q 408 770 261 770 q 615 709 544 770 q 698 519 686 648 l 527 506 q 494 612 521 582 q 403 641 467 641 q 309 609 338 641 q 279 500 279 576 l 279 446 l 485 446 l 485 337 l 279 337 l 279 260 q 309 150 279 183 q 405 116 340 116 q 496 146 470 116 q 527 247 523 176 l 698 235 z "},"ѕ":{"ha":788,"x_min":92,"x_max":692,"o":"m 391 -11 q 229 14 308 -11 q 92 81 149 39 l 139 198 q 263 138 196 162 q 391 115 331 115 q 482 135 449 115 q 515 202 515 155 q 484 271 515 251 q 362 314 453 292 q 172 396 231 346 q 112 543 112 446 q 187 710 112 649 q 383 770 261 770 q 530 746 458 770 q 657 683 602 722 l 616 568 q 506 622 563 601 q 394 644 448 644 q 317 624 345 644 q 289 561 289 605 q 324 494 289 514 q 462 446 360 473 q 639 365 586 417 q 692 218 692 313 q 610 51 692 112 q 391 -11 529 -11 z "},"і":{"ha":788,"x_min":109,"x_max":679,"o":"m 109 0 l 109 135 l 306 135 l 306 622 l 109 622 l 109 758 l 482 758 l 482 135 l 679 135 l 679 0 l 109 0 m 402 888 q 314 905 347 888 q 280 968 280 922 l 280 981 q 314 1046 280 1028 q 402 1064 347 1064 q 489 1046 456 1064 q 523 981 523 1028 l 523 968 q 489 905 523 922 q 402 888 455 888 z "},"ї":{"ha":788,"x_min":109,"x_max":679,"o":"m 109 0 l 109 135 l 306 135 l 306 622 l 109 622 l 109 758 l 482 758 l 482 135 l 679 135 l 679 0 l 109 0 m 261 888 q 195 905 221 888 q 169 968 169 922 l 169 981 q 195 1046 169 1028 q 261 1064 221 1064 q 328 1046 303 1064 q 354 981 354 1028 l 354 968 q 328 905 354 922 q 261 888 302 888 m 527 888 q 460 905 485 888 q 434 968 434 922 l 434 981 q 460 1046 434 1028 q 527 1064 485 1064 q 593 1046 567 1064 q 619 981 619 1028 l 619 968 q 592 905 619 922 q 527 888 566 888 z "},"ј":{"ha":788,"x_min":96,"x_max":605,"o":"m 283 -264 q 189 -258 236 -264 q 96 -236 143 -253 l 116 -101 q 194 -122 158 -117 q 263 -128 231 -128 q 366 -95 328 -128 q 404 13 404 -63 l 404 622 l 131 622 l 131 758 l 581 758 l 581 -6 q 497 -197 581 -130 q 283 -264 414 -264 m 484 888 q 396 905 429 888 q 362 968 362 922 l 362 981 q 396 1046 362 1028 q 484 1064 429 1064 q 571 1046 538 1064 q 605 981 605 1028 l 605 968 q 571 905 605 922 q 484 888 537 888 z "},"љ":{"ha":788,"x_min":10,"x_max":720,"o":"m 249 631 l 245 169 q 201 37 244 82 q 88 -9 159 -9 q 50 -5 69 -9 q 10 5 30 -1 l 32 141 q 49 135 40 138 q 67 133 58 133 q 95 148 85 133 q 107 201 106 163 l 115 758 l 476 758 l 476 521 l 544 521 q 674 466 628 521 q 720 311 720 410 l 720 217 q 673 57 720 115 q 543 0 626 0 l 337 0 l 337 631 l 249 631 m 476 124 l 518 124 q 566 149 551 125 q 581 230 581 173 l 581 303 q 566 378 581 356 q 518 400 551 400 l 476 400 l 476 124 z "},"њ":{"ha":788,"x_min":73,"x_max":716,"o":"m 472 124 l 514 124 q 562 146 547 124 q 577 221 577 169 l 577 308 q 562 386 577 362 q 514 409 547 409 l 472 409 l 472 124 m 211 374 l 211 0 l 73 0 l 73 758 l 211 758 l 211 501 l 333 501 l 333 758 l 472 758 l 472 530 l 543 530 q 670 475 625 530 q 716 319 716 419 l 716 212 q 670 56 716 111 q 542 0 625 0 l 333 0 l 333 374 l 211 374 z "},"ћ":{"ha":788,"x_min":-4,"x_max":686,"o":"m 279 442 l 279 0 l 102 0 l 102 783 l -4 783 l -4 893 l 102 893 l 102 1010 l 279 1010 l 279 893 l 461 893 l 461 783 l 279 783 l 279 568 l 311 568 q 384 664 333 630 q 500 698 434 698 q 636 640 587 698 q 686 481 686 582 l 686 0 l 509 0 l 509 437 q 489 525 509 495 q 426 554 468 554 q 350 526 386 554 q 279 442 313 497 z "},"џ":{"ha":788,"x_min":102,"x_max":686,"o":"m 309 -189 l 309 0 l 102 0 l 102 758 l 279 758 l 279 140 l 509 140 l 509 758 l 686 758 l 686 0 l 479 0 l 479 -189 l 309 -189 z "},"ґ":{"ha":788,"x_min":148,"x_max":676,"o":"m 148 0 l 148 758 l 508 758 l 508 947 l 676 947 l 676 617 l 324 617 l 324 0 l 148 0 z "},"ⁿ":{"ha":788,"x_min":148,"x_max":641,"o":"m 148 381 l 148 1011 l 298 1011 l 298 920 l 327 920 q 353 967 337 947 q 390 999 369 986 q 433 1017 410 1011 q 480 1023 456 1023 q 545 1008 515 1023 q 597 966 576 994 q 630 898 619 938 q 641 807 641 857 l 641 381 l 491 381 l 491 790 q 486 839 491 818 q 472 874 481 860 q 451 893 463 886 q 422 900 438 900 q 389 894 405 900 q 356 875 372 888 q 326 847 341 864 q 298 808 312 830 l 298 381 l 148 381 z "},"̀":{"ha":0,"x_min":-240,"x_max":111,"o":"m -14 884 l -240 1136 l -10 1136 l 111 884 l -14 884 z "},"́":{"ha":0,"x_min":-135,"x_max":217,"o":"m -135 884 l -13 1136 l 217 1136 l -10 884 l -135 884 z "},"̂":{"ha":0,"x_min":-263,"x_max":263,"o":"m -201 884 l -263 970 l -68 1162 l 66 1162 l 263 970 l 202 885 l -1 1023 l -201 884 z "},"̃":{"ha":0,"x_min":-251,"x_max":253,"o":"m 95 896 q 23 917 51 896 q -24 965 -4 937 q -55 1011 -40 990 q -90 1032 -69 1032 q -122 1009 -110 1032 q -134 929 -135 987 l -134 909 l -251 909 l -251 928 q -209 1093 -251 1029 q -91 1158 -167 1158 q -21 1138 -48 1158 q 27 1090 6 1119 q 57 1043 43 1064 q 90 1021 72 1021 q 122 1044 110 1021 q 135 1125 135 1067 l 135 1145 l 253 1145 l 253 1126 q 211 960 253 1024 q 95 896 169 896 z "},"̄":{"ha":0,"x_min":-229,"x_max":229,"o":"m -229 941 l -229 1080 l 229 1080 l 229 941 l -229 941 z "},"̆":{"ha":0,"x_min":-270,"x_max":270,"o":"m 0 875 q -200 943 -131 875 q -270 1153 -269 1010 l -121 1153 q -92 1028 -120 1063 q 0 992 -64 992 q 92 1028 64 992 q 121 1153 120 1063 l 270 1153 q 200 943 269 1010 q 0 875 131 875 z "},"̇":{"ha":0,"x_min":-121,"x_max":121,"o":"m 0 888 q -88 905 -54 888 q -121 968 -121 922 l -121 981 q -88 1046 -121 1028 q 0 1064 -54 1064 q 88 1046 54 1064 q 121 981 121 1028 l 121 968 q 87 905 121 922 q 0 888 53 888 z "},"̈":{"ha":0,"x_min":-225,"x_max":225,"o":"m -133 888 q -199 905 -173 888 q -225 968 -225 922 l -225 981 q -199 1046 -225 1028 q -133 1064 -173 1064 q -66 1046 -91 1064 q -40 981 -40 1028 l -40 968 q -66 905 -40 922 q -133 888 -92 888 m 133 888 q 66 905 91 888 q 40 968 40 922 l 40 981 q 66 1046 40 1028 q 133 1064 91 1064 q 199 1046 173 1064 q 225 981 225 1028 l 225 968 q 198 905 225 922 q 133 888 172 888 z "},"̊":{"ha":0,"x_min":-205,"x_max":205,"o":"m 0 861 q -148 907 -91 861 q -205 1048 -205 952 l -205 1088 q -148 1232 -205 1186 q 0 1279 -91 1279 q 148 1232 92 1279 q 205 1088 205 1186 l 205 1048 q 148 907 205 952 q 0 861 91 861 m 0 958 q 59 979 39 958 q 80 1048 80 1000 l 80 1088 q 59 1158 80 1135 q 0 1182 39 1182 q -59 1158 -39 1182 q -80 1088 -80 1135 l -80 1048 q -59 979 -80 1000 q 0 958 -39 958 z "},"̋":{"ha":0,"x_min":-191,"x_max":287,"o":"m 52 884 l 104 1136 l 287 1136 l 148 884 l 52 884 m -191 884 l -139 1136 l 44 1136 l -95 884 l -191 884 z "},"̌":{"ha":0,"x_min":-263,"x_max":263,"o":"m -66 889 l -263 1081 l -202 1167 l 1 1029 l 201 1167 l 263 1081 l 68 889 l -66 889 z "},"̒":{"ha":0,"x_min":-155,"x_max":154,"o":"m -155 884 l 29 1136 l 154 1136 l 74 884 l -155 884 z "},"̦":{"ha":0,"x_min":-163,"x_max":146,"o":"m -163 -379 l -83 -126 l 146 -126 l -38 -379 l -163 -379 z "},"̧":{"ha":0,"x_min":-245,"x_max":170,"o":"m -32 0 l -11 53 q 122 2 74 42 q 170 -114 170 -38 q 111 -237 170 -197 q -34 -277 52 -277 q -184 -241 -128 -277 q -245 -130 -240 -206 l -95 -117 q -81 -151 -93 -141 q -42 -160 -69 -160 q 3 -146 -11 -160 q 18 -88 18 -131 q 7 -29 18 -48 q -32 0 -4 -10 z "},"̨":{"ha":0,"x_min":-150,"x_max":157,"o":"m 30 -275 q -102 -235 -53 -275 q -150 -121 -150 -194 q -103 -3 -150 -56 q 8 72 -56 49 l 35 29 q -9 -23 3 5 q -20 -80 -20 -52 q -1 -131 -20 -114 q 58 -148 19 -148 q 103 -144 77 -148 q 157 -135 129 -140 l 157 -261 q 92 -271 125 -268 q 30 -275 58 -275 z "},"¼":{"ha":788,"x_min":25,"x_max":763,"o":"m 198 519 l 198 617 l 342 617 l 342 881 l 322 881 q 304 835 317 856 q 274 798 292 813 q 235 775 256 783 q 191 765 213 766 l 186 874 q 235 886 211 876 q 282 915 260 896 q 319 960 303 933 q 345 1019 336 986 l 481 1019 l 481 617 l 612 617 l 612 519 l 198 519 m 25 313 l 25 452 l 361 427 l 361 338 l 25 313 m 442 338 l 442 427 l 763 452 l 763 313 l 442 338 m 655 -144 l 557 -144 l 557 -265 l 418 -265 l 418 -144 l 150 -144 l 150 -42 l 389 273 l 557 273 l 557 -42 l 655 -42 l 655 -144 m 260 -42 l 418 -42 l 418 164 l 260 -42 z "},"½":{"ha":788,"x_min":25,"x_max":763,"o":"m 198 519 l 198 617 l 342 617 l 342 881 l 322 881 q 304 835 317 856 q 274 798 292 813 q 235 775 256 783 q 191 765 213 766 l 186 874 q 234 886 210 876 q 279 914 258 895 q 319 958 302 932 q 345 1019 336 985 l 481 1019 l 481 617 l 612 617 l 612 519 l 198 519 m 25 313 l 25 452 l 361 427 l 361 338 l 25 313 m 442 338 l 442 427 l 763 452 l 763 313 l 442 338 m 162 -265 l 162 -153 q 169 -95 162 -121 q 189 -49 176 -69 q 228 -14 205 -29 q 284 9 251 1 l 413 40 q 446 51 433 45 q 466 62 458 56 q 477 77 473 68 q 481 100 481 86 l 481 116 q 475 140 481 130 q 457 158 468 150 q 429 167 446 164 q 393 170 413 170 q 356 167 371 170 q 331 154 341 163 q 314 130 319 145 q 307 92 308 115 l 167 101 q 183 175 169 144 q 223 226 197 206 q 292 258 250 247 q 393 268 333 268 q 495 258 452 268 q 566 229 538 247 q 607 182 593 210 q 620 117 620 154 l 620 82 q 611 30 620 53 q 587 -8 602 8 q 549 -35 571 -24 q 499 -53 527 -47 l 370 -85 q 336 -95 348 -90 q 317 -107 324 -100 q 304 -127 308 -115 q 301 -158 301 -139 l 628 -158 l 628 -265 l 162 -265 z "},"¾":{"ha":788,"x_min":25,"x_max":763,"o":"m 396 510 q 292 520 336 510 q 217 551 247 530 q 172 601 188 571 q 154 672 157 631 l 293 679 q 302 644 295 658 q 319 622 308 630 q 349 611 331 615 q 396 607 367 607 q 439 610 422 607 q 467 619 457 614 q 483 634 479 625 q 487 655 487 643 l 487 676 q 482 699 487 689 q 466 715 477 708 q 436 723 455 720 q 393 726 418 726 l 295 726 l 295 823 l 393 823 q 431 826 415 823 q 456 833 446 828 q 470 848 466 838 q 475 871 475 857 l 475 891 q 469 910 475 903 q 453 920 463 917 q 426 926 442 924 q 388 928 410 928 q 350 926 365 928 q 327 917 336 923 q 313 900 317 910 q 307 875 308 890 l 167 883 q 185 948 169 920 q 229 992 201 976 q 295 1018 256 1010 q 388 1025 335 1025 q 482 1019 441 1025 q 552 1000 523 1013 q 598 963 582 986 q 614 907 614 939 l 614 889 q 606 850 614 867 q 586 819 598 832 q 555 799 572 807 q 519 789 538 792 l 519 766 q 558 756 539 764 q 593 735 577 749 q 618 705 609 722 q 628 665 628 687 l 628 652 q 612 587 628 614 q 567 543 597 561 q 494 518 537 527 q 396 510 452 510 m 25 313 l 25 452 l 361 427 l 361 338 l 25 313 m 442 338 l 442 427 l 763 452 l 763 313 l 442 338 m 659 -144 l 561 -144 l 561 -265 l 423 -265 l 423 -144 l 154 -144 l 154 -42 l 393 273 l 561 273 l 561 -42 l 659 -42 l 659 -144 m 264 -42 l 423 -42 l 423 164 l 264 -42 z "},"⅛":{"ha":788,"x_min":25,"x_max":763,"o":"m 194 519 l 194 617 l 337 617 l 337 881 l 318 881 q 301 835 313 856 q 270 798 288 813 q 231 775 253 783 q 187 765 210 766 l 181 874 q 229 886 205 876 q 275 913 254 895 q 314 958 297 932 q 340 1019 331 985 l 477 1019 l 477 617 l 607 617 l 607 519 l 194 519 m 25 313 l 25 452 l 361 427 l 361 338 l 25 313 m 442 338 l 442 427 l 763 452 l 763 313 l 442 338 m 402 -271 q 291 -261 336 -271 q 220 -232 246 -251 q 181 -185 193 -212 q 169 -121 169 -158 l 169 -104 q 177 -62 169 -81 q 198 -29 184 -43 q 232 -6 212 -15 q 279 5 253 3 l 279 28 q 240 37 258 30 q 210 54 222 44 q 189 81 196 66 q 182 114 182 96 l 182 139 q 196 198 182 173 q 239 239 211 223 q 307 263 266 255 q 402 270 347 270 q 496 263 456 270 q 564 240 537 255 q 607 199 592 225 q 621 139 621 174 l 621 114 q 614 81 621 96 q 593 54 607 66 q 563 37 581 44 q 525 28 545 30 l 525 5 q 571 -6 551 3 q 606 -30 591 -15 q 628 -63 620 -44 q 635 -104 635 -82 l 635 -121 q 623 -186 635 -159 q 585 -232 611 -213 q 513 -261 558 -251 q 402 -271 467 -271 m 402 57 q 436 59 422 57 q 462 67 451 62 q 477 81 472 72 q 482 104 482 91 l 482 125 q 477 147 482 138 q 462 162 472 157 q 436 170 451 168 q 402 173 422 173 q 367 170 383 173 q 342 162 352 168 q 326 147 332 157 q 321 125 321 138 l 321 104 q 326 81 321 91 q 342 67 332 72 q 367 59 352 62 q 402 57 381 57 m 402 -174 q 449 -170 431 -174 q 477 -158 467 -167 q 491 -140 487 -150 q 495 -114 495 -129 l 495 -98 q 491 -72 495 -83 q 477 -53 487 -61 q 449 -41 467 -45 q 402 -37 431 -37 q 355 -41 374 -37 q 326 -53 337 -45 q 312 -72 316 -61 q 308 -98 308 -83 l 308 -114 q 312 -140 308 -129 q 326 -158 316 -150 q 355 -170 336 -167 q 402 -174 374 -174 z "},"⅜":{"ha":788,"x_min":25,"x_max":763,"o":"m 396 510 q 292 520 337 510 q 218 551 247 530 q 172 601 188 571 q 154 672 157 631 l 293 679 q 302 644 295 658 q 319 622 308 630 q 349 611 331 615 q 396 607 367 607 q 439 610 422 607 q 467 619 457 614 q 483 634 479 625 q 487 655 487 643 l 487 676 q 482 699 487 689 q 466 715 477 708 q 436 723 455 720 q 393 726 418 726 l 295 726 l 295 823 l 393 823 q 431 825 415 823 q 456 832 446 827 q 470 847 466 838 q 475 871 475 856 l 475 891 q 469 910 475 903 q 453 920 463 917 q 426 926 442 924 q 388 928 410 928 q 350 926 365 928 q 326 917 335 923 q 313 900 317 910 q 307 875 308 890 l 167 883 q 185 949 169 922 q 229 994 201 977 q 296 1018 256 1010 q 388 1025 336 1025 q 480 1020 439 1025 q 551 1000 521 1014 q 597 964 581 987 q 614 907 614 941 l 614 889 q 606 850 614 867 q 586 819 598 832 q 555 799 572 807 q 519 789 538 792 l 519 766 q 558 756 539 764 q 593 735 577 749 q 618 705 609 722 q 628 665 628 687 l 628 652 q 612 585 628 612 q 566 542 596 558 q 493 518 535 525 q 396 510 451 510 m 25 313 l 25 452 l 361 427 l 361 338 l 25 313 m 442 338 l 442 427 l 763 452 l 763 313 l 442 338 m 402 -271 q 291 -261 336 -271 q 220 -232 246 -251 q 181 -185 193 -212 q 169 -121 169 -158 l 169 -104 q 177 -62 169 -81 q 198 -29 184 -43 q 232 -6 212 -15 q 279 5 253 3 l 279 28 q 240 37 258 30 q 210 54 222 44 q 189 81 196 66 q 182 114 182 96 l 182 139 q 196 198 182 173 q 239 239 211 223 q 307 263 266 255 q 402 270 347 270 q 496 263 456 270 q 564 240 537 255 q 607 199 592 225 q 621 139 621 174 l 621 114 q 614 81 621 96 q 593 54 607 66 q 563 37 581 44 q 525 28 545 30 l 525 5 q 571 -6 551 3 q 606 -30 591 -15 q 628 -63 620 -44 q 635 -104 635 -82 l 635 -121 q 623 -186 635 -159 q 585 -232 611 -213 q 513 -261 558 -251 q 402 -271 467 -271 m 402 57 q 436 59 422 57 q 462 67 451 62 q 477 81 472 72 q 482 104 482 91 l 482 125 q 477 147 482 138 q 462 162 472 157 q 436 170 451 168 q 402 173 422 173 q 367 170 383 173 q 342 162 352 168 q 326 147 332 157 q 321 125 321 138 l 321 104 q 326 81 321 91 q 342 67 332 72 q 367 59 352 62 q 402 57 381 57 m 402 -174 q 449 -170 431 -174 q 477 -158 467 -167 q 491 -140 487 -150 q 495 -114 495 -129 l 495 -98 q 491 -72 495 -83 q 477 -53 487 -61 q 449 -41 467 -45 q 402 -37 431 -37 q 355 -41 374 -37 q 326 -53 337 -45 q 312 -72 316 -61 q 308 -98 308 -83 l 308 -114 q 312 -140 308 -129 q 326 -158 316 -150 q 355 -170 336 -167 q 402 -174 374 -174 z "},"⅝":{"ha":788,"x_min":25,"x_max":763,"o":"m 398 506 q 287 515 332 506 q 215 542 242 523 q 171 590 186 559 q 154 668 157 621 l 293 676 q 301 640 295 654 q 319 619 307 626 q 350 607 331 610 q 400 604 370 604 q 445 607 428 604 q 471 617 462 610 q 484 636 481 625 q 487 664 487 646 l 487 689 q 483 715 487 705 q 466 731 479 725 q 431 741 455 737 q 371 744 408 744 l 174 744 l 174 1019 l 607 1019 l 607 922 l 312 922 l 312 843 l 424 843 q 513 835 475 843 q 576 808 551 826 q 615 763 602 790 q 628 699 628 736 l 628 657 q 614 597 628 624 q 573 549 601 569 q 501 518 545 529 q 398 506 457 506 m 25 313 l 25 452 l 361 427 l 361 338 l 25 313 m 442 338 l 442 427 l 763 452 l 763 313 l 442 338 m 402 -271 q 291 -261 336 -271 q 220 -232 246 -251 q 181 -185 193 -212 q 169 -121 169 -158 l 169 -104 q 177 -62 169 -81 q 198 -29 184 -43 q 232 -6 212 -15 q 279 5 253 3 l 279 28 q 240 37 258 30 q 210 56 222 44 q 189 81 196 66 q 182 115 182 96 l 182 140 q 196 199 182 174 q 239 239 211 223 q 307 263 266 255 q 402 270 347 270 q 496 263 456 270 q 564 240 537 255 q 607 199 592 225 q 621 140 621 174 l 621 115 q 614 81 621 96 q 593 56 607 66 q 563 37 581 44 q 525 28 545 30 l 525 5 q 571 -6 551 3 q 606 -30 591 -15 q 628 -63 620 -44 q 635 -104 635 -82 l 635 -121 q 623 -186 635 -159 q 585 -232 611 -213 q 513 -261 558 -251 q 402 -271 467 -271 m 402 57 q 436 59 422 57 q 462 67 451 62 q 477 81 472 72 q 482 104 482 91 l 482 125 q 477 147 482 138 q 462 162 472 157 q 436 170 451 168 q 402 173 422 173 q 367 170 383 173 q 342 162 352 168 q 326 147 332 157 q 321 125 321 138 l 321 104 q 326 81 321 91 q 342 67 332 72 q 367 59 352 62 q 402 57 381 57 m 402 -174 q 449 -170 431 -174 q 477 -158 467 -167 q 491 -140 487 -150 q 495 -114 495 -129 l 495 -98 q 491 -72 495 -83 q 477 -53 487 -61 q 449 -41 467 -45 q 402 -37 431 -37 q 355 -41 374 -37 q 326 -53 337 -45 q 312 -72 316 -61 q 308 -98 308 -83 l 308 -114 q 312 -140 308 -129 q 326 -158 316 -150 q 355 -170 336 -167 q 402 -174 374 -174 z "},"⅞":{"ha":788,"x_min":25,"x_max":763,"o":"m 312 519 q 347 635 327 582 q 389 734 366 688 q 442 823 413 780 q 509 909 471 865 l 182 909 l 182 1019 l 648 1019 l 648 909 q 581 814 611 861 q 528 720 552 768 q 486 621 504 672 q 457 519 468 571 l 312 519 m 25 313 l 25 452 l 361 427 l 361 338 l 25 313 m 442 338 l 442 427 l 763 452 l 763 313 l 442 338 m 402 -271 q 291 -261 336 -271 q 220 -232 246 -251 q 181 -185 193 -212 q 169 -121 169 -158 l 169 -104 q 177 -62 169 -81 q 198 -29 184 -43 q 232 -6 212 -15 q 279 5 253 3 l 279 28 q 240 37 258 30 q 210 54 222 44 q 189 81 196 66 q 182 114 182 96 l 182 139 q 196 198 182 173 q 239 239 211 223 q 307 263 266 255 q 402 270 347 270 q 496 263 456 270 q 564 240 537 255 q 607 199 592 225 q 621 139 621 174 l 621 114 q 614 81 621 96 q 593 54 607 66 q 563 37 581 44 q 525 28 545 30 l 525 5 q 571 -6 551 3 q 606 -30 591 -15 q 628 -63 620 -44 q 635 -104 635 -82 l 635 -121 q 623 -186 635 -159 q 585 -232 611 -213 q 513 -261 558 -251 q 402 -271 467 -271 m 402 57 q 436 59 422 57 q 462 67 451 62 q 477 81 472 72 q 482 104 482 91 l 482 125 q 477 147 482 138 q 462 162 472 157 q 436 170 451 168 q 402 173 422 173 q 367 170 383 173 q 342 162 352 168 q 326 147 332 157 q 321 125 321 138 l 321 104 q 326 81 321 91 q 342 67 332 72 q 367 59 352 62 q 402 57 381 57 m 402 -174 q 449 -170 431 -174 q 477 -158 467 -167 q 491 -140 487 -150 q 495 -114 495 -129 l 495 -98 q 491 -72 495 -83 q 477 -53 487 -61 q 449 -41 467 -45 q 402 -37 431 -37 q 355 -41 374 -37 q 326 -53 337 -45 q 312 -72 316 -61 q 308 -98 308 -83 l 308 -114 q 312 -140 308 -129 q 326 -158 316 -150 q 355 -170 336 -167 q 402 -174 374 -174 z "},"_":{"ha":788,"x_min":92,"x_max":697,"o":"m 92 -253 l 92 -96 l 697 -96 l 697 -253 l 92 -253 z "},"-":{"ha":788,"x_min":92,"x_max":697,"o":"m 92 366 l 92 523 l 697 523 l 697 366 l 92 366 z "},"­":{"ha":788,"x_min":92,"x_max":697,"o":"m 92 366 l 92 523 l 697 523 l 697 366 l 92 366 z "},"‐":{"ha":788,"x_min":92,"x_max":697,"o":"m 92 366 l 92 523 l 697 523 l 697 366 l 92 366 z "},"‑":{"ha":788,"x_min":92,"x_max":697,"o":"m 92 366 l 92 523 l 697 523 l 697 366 l 92 366 z "},"–":{"ha":788,"x_min":87,"x_max":701,"o":"m 87 366 l 87 523 l 701 523 l 701 366 l 87 366 z "},"—":{"ha":788,"x_min":25,"x_max":763,"o":"m 25 366 l 25 523 l 763 523 l 763 366 l 25 366 z "},"―":{"ha":788,"x_min":25,"x_max":763,"o":"m 25 366 l 25 523 l 763 523 l 763 366 l 25 366 z "},"(":{"ha":788,"x_min":201,"x_max":644,"o":"m 626 -265 q 305 -54 409 -220 q 201 379 201 112 q 305 811 201 644 q 626 1023 409 977 l 644 902 q 440 727 503 859 q 378 379 378 596 q 440 32 378 162 q 644 -140 503 -97 l 626 -265 z "},")":{"ha":788,"x_min":144,"x_max":588,"o":"m 162 -265 l 144 -140 q 348 33 285 -97 q 412 379 412 164 q 348 725 412 592 q 144 902 285 859 l 162 1023 q 484 811 379 977 q 588 379 588 644 q 484 -54 588 112 q 162 -265 379 -220 z "},"[":{"ha":788,"x_min":201,"x_max":641,"o":"m 201 -253 l 201 1010 l 641 1010 l 641 875 l 378 875 l 378 -128 l 641 -128 l 641 -253 l 201 -253 z "},"]":{"ha":788,"x_min":148,"x_max":588,"o":"m 148 -253 l 148 -128 l 412 -128 l 412 875 l 148 875 l 148 1010 l 588 1010 l 588 -253 l 148 -253 z "},"{":{"ha":788,"x_min":43,"x_max":641,"o":"m 641 -265 q 262 -220 376 -270 q 148 -56 148 -169 q 168 47 148 6 q 216 120 188 88 q 266 185 249 159 q 284 240 284 211 q 233 320 284 297 q 43 347 182 343 l 43 441 q 233 468 182 444 q 284 547 284 491 q 266 597 284 574 q 216 650 249 619 q 168 713 188 677 q 148 812 148 750 q 262 977 148 926 q 641 1023 376 1028 l 641 888 q 395 869 465 891 q 324 788 324 846 q 343 730 324 756 q 393 676 361 705 q 443 617 424 646 q 462 545 462 587 q 398 435 462 470 q 187 395 335 400 l 187 389 q 398 338 335 376 q 462 225 462 301 q 443 155 462 183 q 391 97 423 126 q 343 41 361 69 q 324 -27 324 13 q 395 -112 324 -88 q 641 -133 465 -136 l 641 -265 z "},"}":{"ha":788,"x_min":148,"x_max":746,"o":"m 640 -56 q 526 -220 640 -169 q 148 -265 412 -270 l 148 -133 q 394 -112 324 -136 q 463 -27 463 -88 q 446 41 463 13 q 398 97 428 69 q 347 155 366 126 q 327 225 327 183 q 390 338 327 301 q 601 389 453 376 l 601 395 q 390 435 453 400 q 327 545 327 470 q 346 617 327 587 q 396 676 365 646 q 445 730 427 705 q 463 788 463 756 q 394 869 463 846 q 148 888 324 891 l 148 1023 q 526 977 412 1028 q 640 812 640 926 q 620 713 640 750 q 572 650 600 677 q 522 597 540 619 q 504 547 504 574 q 556 468 504 491 q 746 441 607 444 l 746 347 q 556 320 607 343 q 504 240 504 297 q 522 185 504 211 q 573 120 540 159 q 621 47 601 88 q 640 -56 640 6 z "},"#":{"ha":788,"x_min":42,"x_max":746,"o":"m 456 370 l 466 640 l 333 640 l 322 370 l 456 370 m 439 0 l 449 240 l 317 240 l 307 0 l 168 0 l 179 240 l 42 240 l 42 370 l 184 370 l 196 640 l 42 640 l 42 770 l 201 770 l 211 1010 l 348 1010 l 338 770 l 472 770 l 482 1010 l 620 1010 l 610 770 l 746 770 l 746 640 l 604 640 l 593 370 l 746 370 l 746 240 l 587 240 l 577 0 l 439 0 z "},"%":{"ha":788,"x_min":27,"x_max":764,"o":"m 242 587 q 105 634 158 587 q 53 778 53 681 l 53 846 q 106 989 53 942 q 242 1035 159 1035 q 378 989 326 1035 q 429 846 429 942 l 429 778 q 378 634 429 681 q 242 587 326 587 m 242 692 q 284 710 269 692 q 299 770 299 729 l 299 848 q 284 907 299 888 q 242 926 269 926 q 199 907 215 926 q 183 848 183 888 l 183 770 q 199 710 183 729 q 242 692 215 692 m 27 289 l 699 807 l 764 715 l 88 198 l 27 289 m 547 -28 q 411 18 463 -28 q 359 159 359 64 l 359 231 q 411 374 359 327 q 547 420 463 420 q 683 374 631 420 q 735 231 735 327 l 735 159 q 682 18 735 64 q 547 -28 630 -28 m 547 77 q 590 94 574 77 q 605 150 605 111 l 605 234 q 590 292 605 273 q 547 311 574 311 q 504 292 520 311 q 489 234 489 273 l 489 150 q 504 94 489 111 q 547 77 520 77 z "},"‰":{"ha":788,"x_min":20,"x_max":758,"o":"m 223 587 q 95 634 144 587 q 45 780 45 682 l 45 843 q 95 989 45 942 q 223 1035 144 1035 q 351 989 303 1035 q 399 843 399 942 l 399 780 q 350 634 399 682 q 223 587 302 587 m 169 773 q 184 711 169 730 q 223 692 198 692 q 262 711 247 692 q 277 773 277 730 l 277 847 q 262 907 277 888 q 223 926 247 926 q 184 907 198 926 q 169 847 169 888 l 169 773 m 758 713 l 74 269 l 20 356 l 702 801 l 758 713 m 620 -28 q 559 -11 586 -28 q 516 39 533 5 q 472 -11 500 5 q 409 -28 444 -28 q 314 19 351 -28 q 278 160 278 66 l 278 231 q 316 375 278 328 q 415 422 355 422 q 475 405 449 422 q 518 356 501 389 q 561 405 534 389 q 620 422 587 422 q 719 375 682 422 q 756 231 756 328 l 756 160 q 718 19 756 66 q 620 -28 681 -28 m 389 146 q 399 91 389 107 q 426 74 409 74 q 451 91 442 74 q 461 146 461 107 l 461 241 q 451 299 461 280 q 426 317 442 317 q 399 299 409 317 q 389 241 389 280 l 389 146 m 573 146 q 583 91 573 107 q 610 74 593 74 q 636 91 626 74 q 645 146 645 107 l 645 241 q 636 299 645 280 q 610 317 626 317 q 583 299 593 317 q 573 241 573 280 l 573 146 z "},"'":{"ha":788,"x_min":282,"x_max":508,"o":"m 317 484 l 282 1010 l 508 1010 l 471 484 l 317 484 z "},"\"":{"ha":788,"x_min":100,"x_max":688,"o":"m 503 484 l 467 1010 l 688 1010 l 653 484 l 503 484 m 135 484 l 100 1010 l 322 1010 l 285 484 l 135 484 z "},"ʻ":{"ha":788,"x_min":207,"x_max":582,"o":"m 207 484 l 463 1010 l 582 1010 l 477 484 l 207 484 z "},"‘":{"ha":788,"x_min":207,"x_max":582,"o":"m 207 484 l 463 1010 l 582 1010 l 477 484 l 207 484 z "},"’":{"ha":788,"x_min":206,"x_max":581,"o":"m 206 484 l 311 1010 l 581 1010 l 326 484 l 206 484 z "},"“":{"ha":788,"x_min":35,"x_max":758,"o":"m 396 484 l 646 1010 l 758 1010 l 657 484 l 396 484 m 35 484 l 287 1010 l 398 1010 l 295 484 l 35 484 z "},"”":{"ha":788,"x_min":30,"x_max":753,"o":"m 390 484 l 492 1010 l 753 1010 l 501 484 l 390 484 m 30 484 l 131 1010 l 391 1010 l 141 484 l 30 484 z "},"‛":{"ha":788,"x_min":197,"x_max":573,"o":"m 453 484 l 197 1010 l 468 1010 l 573 484 l 453 484 z "},"‚":{"ha":788,"x_min":230,"x_max":583,"o":"m 230 -231 l 313 297 l 583 297 l 348 -231 l 230 -231 z "},"„":{"ha":788,"x_min":-58,"x_max":664,"o":"m 302 -230 l 404 297 l 664 297 l 413 -230 l 302 -230 m -58 -230 l 43 297 l 303 297 l 53 -230 l -58 -230 z "},"‹":{"ha":788,"x_min":201,"x_max":588,"o":"m 588 91 l 201 357 l 201 527 l 588 793 l 588 638 l 304 442 l 588 246 l 588 91 z "},"›":{"ha":788,"x_min":201,"x_max":588,"o":"m 201 91 l 201 246 l 485 442 l 201 638 l 201 793 l 588 527 l 588 357 l 201 91 z "},"«":{"ha":788,"x_min":67,"x_max":721,"o":"m 721 91 l 419 356 l 419 527 l 721 792 l 721 638 l 499 442 l 721 246 l 721 91 m 370 91 l 67 356 l 67 527 l 370 792 l 370 638 l 148 442 l 370 246 l 370 91 z "},"»":{"ha":788,"x_min":67,"x_max":721,"o":"m 67 91 l 67 246 l 289 442 l 67 638 l 67 792 l 369 527 l 369 356 l 67 91 m 418 91 l 418 246 l 640 442 l 418 638 l 418 792 l 721 527 l 721 356 l 418 91 z "},"*":{"ha":788,"x_min":81,"x_max":707,"o":"m 629 381 l 427 576 l 471 278 l 314 278 l 360 574 l 159 381 l 81 525 l 330 645 l 81 765 l 159 908 l 360 713 l 314 1010 l 471 1010 l 427 713 l 629 908 l 707 765 l 457 645 l 707 525 l 629 381 z "},"†":{"ha":788,"x_min":73,"x_max":715,"o":"m 316 -253 l 316 622 l 236 622 l 196 352 l 73 352 l 105 758 l 314 758 l 307 1010 l 481 1010 l 473 758 l 683 758 l 715 352 l 592 352 l 552 622 l 472 622 l 472 -253 l 316 -253 z "},"‡":{"ha":788,"x_min":69,"x_max":718,"o":"m 307 -253 l 313 -15 l 102 -15 l 69 288 l 191 288 l 232 120 l 316 120 l 316 638 l 232 638 l 191 470 l 69 470 l 102 773 l 313 773 l 307 1010 l 481 1010 l 475 773 l 687 773 l 718 470 l 598 470 l 556 638 l 472 638 l 472 120 l 556 120 l 598 288 l 718 288 l 687 -15 l 475 -15 l 481 -253 l 307 -253 z "},".":{"ha":788,"x_min":249,"x_max":539,"o":"m 395 -13 q 289 19 330 -13 q 249 112 249 51 l 249 176 q 289 271 249 240 q 395 303 330 303 q 499 271 460 303 q 539 176 539 240 l 539 112 q 498 19 539 51 q 395 -13 457 -13 z "},",":{"ha":788,"x_min":217,"x_max":571,"o":"m 217 -231 l 301 297 l 571 297 l 336 -231 l 217 -231 z "},":":{"ha":788,"x_min":260,"x_max":529,"o":"m 395 494 q 297 521 333 494 q 260 606 260 549 l 260 668 q 297 755 260 726 q 395 784 333 784 q 492 755 456 784 q 529 668 529 726 l 529 606 q 491 521 529 549 q 395 494 453 494 m 395 -10 q 297 18 333 -10 q 260 104 260 45 l 260 165 q 297 252 260 223 q 395 280 333 280 q 492 252 456 280 q 529 165 529 223 l 529 104 q 491 18 529 45 q 395 -10 453 -10 z "},";":{"ha":788,"x_min":230,"x_max":558,"o":"m 395 494 q 297 521 333 494 q 260 606 260 549 l 260 668 q 297 755 260 726 q 395 784 333 784 q 492 755 456 784 q 529 668 529 726 l 529 606 q 491 521 529 549 q 395 494 453 494 m 230 -221 l 308 287 l 558 287 l 340 -221 l 230 -221 z "},"…":{"ha":788,"x_min":61,"x_max":729,"o":"m 646 -11 q 587 15 610 -11 q 564 95 564 40 l 564 196 q 587 278 564 251 q 646 304 610 304 q 706 278 683 304 q 729 196 729 251 l 729 95 q 705 15 729 40 q 646 -11 682 -11 m 394 -11 q 335 15 359 -11 q 312 95 312 40 l 312 196 q 335 278 312 251 q 394 304 359 304 q 453 278 431 304 q 476 196 476 251 l 476 95 q 453 15 476 40 q 394 -11 429 -11 m 143 -11 q 83 15 106 -11 q 61 95 61 40 l 61 196 q 83 278 61 251 q 143 304 106 304 q 201 278 179 304 q 223 196 223 251 l 223 95 q 201 15 223 40 q 143 -11 178 -11 z "},"!":{"ha":788,"x_min":260,"x_max":535,"o":"m 316 379 l 284 1010 l 504 1010 l 471 379 l 316 379 m 398 -13 q 295 13 330 -13 q 260 93 260 39 l 260 129 q 295 211 260 184 q 398 237 330 237 q 501 211 466 237 q 535 129 535 184 l 535 93 q 501 13 535 39 q 398 -13 466 -13 z "},"¡":{"ha":788,"x_min":258,"x_max":533,"o":"m 394 1023 q 497 997 462 1023 q 533 917 533 971 l 533 881 q 497 799 533 826 q 394 773 462 773 q 292 799 326 773 q 258 881 258 826 l 258 917 q 292 997 258 971 q 394 1023 327 1023 m 477 631 l 509 0 l 289 0 l 322 631 l 477 631 z "},"‼":{"ha":788,"x_min":97,"x_max":697,"o":"m 505 379 l 473 1010 l 665 1010 l 633 379 l 505 379 m 153 379 l 121 1010 l 312 1010 l 280 379 l 153 379 m 574 -13 q 520 -6 543 -13 q 481 13 496 0 q 457 46 465 27 q 449 93 449 66 l 449 129 q 457 177 449 157 q 481 211 465 198 q 520 231 496 225 q 574 237 543 237 q 629 231 606 237 q 667 211 652 225 q 689 177 682 198 q 697 129 697 157 l 697 93 q 689 46 697 66 q 667 13 682 27 q 628 -6 650 0 q 574 -13 605 -13 m 222 -13 q 167 -6 191 -13 q 129 13 144 0 q 105 46 112 27 q 97 93 97 66 l 97 129 q 105 177 97 157 q 129 211 112 198 q 167 231 144 225 q 222 237 191 237 q 276 231 253 237 q 313 211 299 225 q 336 177 328 198 q 343 129 343 157 l 343 93 q 336 46 343 66 q 313 13 328 27 q 275 -6 298 0 q 222 -13 253 -13 z "},"?":{"ha":788,"x_min":56,"x_max":727,"o":"m 277 374 l 255 497 q 489 575 428 530 q 551 697 551 620 l 551 731 q 517 847 551 807 q 396 888 484 888 q 273 847 304 888 q 232 693 241 806 l 56 706 q 142 949 63 875 q 395 1023 221 1023 q 642 946 557 1023 q 727 744 727 869 l 727 692 q 625 485 727 554 q 277 374 523 415 m 346 -13 q 243 13 278 -13 q 208 93 208 39 l 208 129 q 243 211 208 184 q 346 237 278 237 q 449 211 414 237 q 484 129 484 184 l 484 93 q 449 13 484 39 q 346 -13 414 -13 z "}}}
